<?xml version="1.0" encoding="UTF-8"?><svg id="Layer_1" xmlns="http://www.w3.org/2000/svg" viewBox="0 0 336.87 240.17"><defs><style>.cls-1{fill:#687943;stroke-width:0px;}</style></defs><path class="cls-1" d="M53.41,47.98c2.22,0,3.55,0,4.88,0,61.14,0,122.28-.06,183.42.03,47.81.07,88.52,36.22,94.39,83.61,6.47,52.16-28.66,99.23-80.31,107.54-3.8.61-7.69.96-11.54.96-61.02.06-122.03.06-183.05.05-7.23,0-12.24-4.02-13.04-10.31-.82-6.42,2.58-12.04,8.51-13.62,2.01-.53,4.19-.51,6.3-.51,57.9-.02,115.79-.03,173.69-.02,19.32,0,36.72-5.41,51.14-18.61,13.71-12.55,21.66-28.1,23.2-46.78,1.74-21.06-4.55-39.45-18.81-54.92-11.86-12.87-26.68-20.38-44.13-22.21-6.43-.67-12.94-.72-19.42-.73-56.77-.05-113.55-.03-170.32-.03-1.34,0-2.68,0-4.91,0,1.66,1.21,2.58,1.95,3.56,2.61,11,7.35,22.02,14.66,33,22.03,6.75,4.53,8.53,12,4.41,18.11-3.93,5.82-11.53,6.88-18.23,2.42-23.27-15.48-46.53-30.98-69.76-46.53-8.5-5.68-8.57-16-.13-21.65C29.62,33.81,52.98,18.24,76.36,2.7c6.64-4.42,14.3-3.29,18.22,2.54,4.07,6.05,2.23,13.53-4.54,18.08-10.98,7.37-22,14.69-33,22.03-.99.66-1.94,1.4-3.63,2.63Z"/></svg>