<svg width="50" height="55" viewBox="0 0 50 55" fill="none" xmlns="http://www.w3.org/2000/svg">
<path d="M10.9912 46.4004L19.7895 33.383L23.0032 35.8038L11.1789 52.8382L6.80101 49.2885C6.80101 49.2885 0.226299 43.8663 1.66529 42.3976C3.14058 40.8919 6.97413 43.3744 6.97413 43.3744L10.9912 46.4004Z" fill="url(#paint0_linear_367_116)"/>
<path d="M39.2642 46.932L33.5705 32.3727L30.0368 34.0739L37.7819 53.1906L42.6468 50.6266C42.6468 50.6266 49.9714 46.6869 48.9064 44.9516C47.8145 43.1725 43.6813 44.8055 43.6813 44.8055L39.2642 46.932Z" fill="url(#paint1_linear_367_116)"/>
<path d="M22.5082 4.8379C23.262 2.59677 23.7818 0 26.1353 0C28.4888 0 29.0085 2.59677 29.7623 4.8379C30.5304 7.12141 29.7623 11.0104 29.7623 11.0104C29.7623 11.0104 33.801 10.2399 36.1921 11.0104C38.2369 11.6693 40.5067 11.8761 40.8084 14.0132C41.1168 16.1978 38.8551 16.9786 37.0165 18.1838C34.8818 19.583 30.7515 20.0189 30.7515 20.0189C30.7515 20.0189 37.4254 20.564 40.8084 22.8549C43.2346 24.4979 45.7534 25.4242 45.9192 28.3601C46.0961 31.4913 43.4817 32.9156 40.8084 34.5326C36.6157 37.0686 27.9346 36.886 27.9346 36.886H23.648C23.648 36.886 15.6548 37.0686 11.4621 34.5326C8.78883 32.9156 6.17439 31.4913 6.35127 28.3601C6.51711 25.4242 9.03593 24.4979 11.4621 22.8549C14.8451 20.564 21.519 20.0189 21.519 20.0189C21.519 20.0189 17.3887 19.583 15.2541 18.1838C13.4154 16.9786 11.1537 16.1978 11.4621 14.0132C11.7639 11.8761 14.0336 11.6693 16.0784 11.0104C18.4695 10.2399 22.5082 11.0104 22.5082 11.0104C22.5082 11.0104 21.7401 7.12141 22.5082 4.8379Z" fill="url(#paint2_linear_367_116)"/>
<circle cx="21.1646" cy="25.7752" r="1.79932" fill="#E9FC77"/>
<circle cx="30.386" cy="25.7752" r="1.79932" fill="#E9FC77"/>
<defs>
<linearGradient id="paint0_linear_367_116" x1="13.5366" y1="32.2325" x2="9.79236" y2="52.5831" gradientUnits="userSpaceOnUse">
<stop offset="0.0872223" stop-color="#C590FB"/>
<stop offset="1" stop-color="#16960F"/>
</linearGradient>
<linearGradient id="paint1_linear_367_116" x1="39.7248" y1="32.5447" x2="39.1465" y2="53.2288" gradientUnits="userSpaceOnUse">
<stop offset="0.0872223" stop-color="#C590FB"/>
<stop offset="1" stop-color="#16960F"/>
</linearGradient>
<linearGradient id="paint2_linear_367_116" x1="26.1353" y1="0" x2="26.1353" y2="50.3809" gradientUnits="userSpaceOnUse">
<stop stop-color="#16960F"/>
<stop offset="0.862222" stop-color="#C590FB"/>
</linearGradient>
</defs>
</svg>
