<?xml version="1.0" encoding="UTF-8"?><svg id="Layer_1" xmlns="http://www.w3.org/2000/svg" xmlns:xlink="http://www.w3.org/1999/xlink" viewBox="0 0 80 36"><defs><style>.cls-1{fill:url(#linear-gradient);}.cls-1,.cls-2,.cls-3,.cls-4,.cls-5{stroke-width:0px;}.cls-2{fill:url(#linear-gradient-4);}.cls-3{fill:url(#linear-gradient-2);}.cls-4{fill:url(#linear-gradient-3);}.cls-5{fill:url(#linear-gradient-5);}</style><linearGradient id="linear-gradient" x1="11.71" y1="37.09" x2="11.71" y2="1.09" gradientTransform="translate(0 37.09) scale(1 -1)" gradientUnits="userSpaceOnUse"><stop offset="0" stop-color="#39aa44"/><stop offset="1" stop-color="#2d3915"/></linearGradient><linearGradient id="linear-gradient-2" x1="39.8" y1="37.09" x2="39.8" y2="1.11" gradientTransform="translate(0 37.09) scale(1 -1)" gradientUnits="userSpaceOnUse"><stop offset="0" stop-color="#39aa44"/><stop offset="1" stop-color="#2d3915"/></linearGradient><linearGradient id="linear-gradient-3" x1="68.24" y1="37.09" x2="68.24" y2="1.09" gradientTransform="translate(0 37.09) scale(1 -1)" gradientUnits="userSpaceOnUse"><stop offset="0" stop-color="#39aa44"/><stop offset="1" stop-color="#2d3915"/></linearGradient><linearGradient id="linear-gradient-4" x1="46.94" y1="17.29" x2="43.82" y2="7.42" gradientTransform="translate(0 37.09) scale(1 -1)" gradientUnits="userSpaceOnUse"><stop offset="0" stop-color="#c590fb"/><stop offset="1" stop-color="#2d3915"/></linearGradient><linearGradient id="linear-gradient-5" x1="49.98" y1="28.26" x2="42.78" y2="33.86" gradientTransform="translate(0 37.09) scale(1 -1)" gradientUnits="userSpaceOnUse"><stop offset="0" stop-color="#c590fb"/><stop offset="1" stop-color="#39aa44"/></linearGradient></defs><g id="Group_38"><g id="eGo"><path class="cls-1" d="M12.77,35.98c-1.92,0-3.66-.33-5.23-.99s-2.91-1.56-4.03-2.69c-1.12-1.12-1.99-2.44-2.6-3.97-.6-1.54-.9-3.18-.9-4.93v-.96c0-1.99.3-3.8.9-5.43.6-1.65,1.44-3.07,2.51-4.26,1.08-1.19,2.35-2.11,3.82-2.77,1.47-.66,3.08-.99,4.82-.99s3.39.31,4.79.94c1.41.61,2.61,1.47,3.59,2.6.97,1.12,1.71,2.48,2.21,4.06.51,1.57.76,3.31.76,5.22v2.84H6.5v.07c.22,1.04.49,1.88.83,2.52.34.63.79,1.19,1.36,1.71.58.53,1.25.94,2,1.23.75.29,1.57.43,2.47.43,1.26,0,2.48-.25,3.66-.75,1.18-.5,2.14-1.24,2.88-2.24l3.2,3.61c-.81,1.2-2.1,2.29-3.87,3.27-1.77.98-3.86,1.47-6.27,1.47ZM12,14.4c-.72,0-1.38.14-1.98.41-.6.26-1.12.63-1.57,1.13-.46.5-.84,1.09-1.15,1.78-.31.69-.54,1.46-.69,2.31h10.51v-.53c0-.71-.12-1.37-.37-2-.25-.63-.58-1.17-1.01-1.64-.43-.45-.96-.8-1.59-1.06-.61-.27-1.33-.41-2.14-.41Z"/><path class="cls-3" d="M51.84,31.41c-.41.53-.98,1.07-1.7,1.61-.72.55-1.57,1.03-2.56,1.47-1,.45-2.11.81-3.34,1.08-1.23.27-2.55.41-3.96.41-1.23,0-2.39-.15-3.48-.46-1.08-.29-2.07-.71-2.97-1.27-.89-.58-1.71-1.28-2.44-2.12-.72-.83-1.34-1.79-1.84-2.86-.58-1.19-1.03-2.53-1.34-4.02-.29-1.49-.44-3.11-.44-4.86v-4.76c0-1.67.15-3.21.44-4.64.29-1.44.71-2.75,1.24-3.92.51-1.04,1.09-1.98,1.75-2.81.68-.83,1.41-1.56,2.21-2.16.94-.69,1.96-1.21,3.06-1.56,1.11-.35,2.27-.53,3.5-.53,1.89,0,3.53.25,4.93.75,1.41.5,2.6,1.21,3.57,2.14.97.95,1.72,2.09,2.26,3.44.55,1.35.91,2.86,1.08,4.55h-6.31c-.11-.85-.28-1.6-.51-2.26-.22-.66-.51-1.21-.9-1.66-.43-.5-.98-.87-1.64-1.11-.65-.26-1.42-.38-2.33-.38-.49,0-.97.08-1.43.24-.46.16-.89.39-1.29.7-.52.42-1,.96-1.43,1.64-.41.67-.76,1.47-1.04,2.38-.22.71-.38,1.49-.51,2.36-.11.87-.16,1.8-.16,2.81v4.81c0,1.27.08,2.42.23,3.46.17,1.04.4,1.96.69,2.77.18.46.39.9.62,1.3.25.38.51.73.81,1.03.49.51,1.06.91,1.71,1.18.66.26,1.41.39,2.24.41.51,0,1.01-.04,1.5-.12.49-.08.95-.19,1.38-.34s.81-.3,1.13-.48c.34-.19.59-.39.76-.6l.02-6.35h-5.55v-5.05h12l.02,13.8Z"/><path class="cls-4" d="M56.47,22.24c0-1.89.26-3.64.78-5.24.52-1.62,1.29-3.02,2.3-4.21,1-1.19,2.22-2.12,3.66-2.79,1.46-.67,3.13-1.01,5-1.01s3.54.34,5,1.01c1.46.67,2.7,1.6,3.71,2.79,1,1.19,1.76,2.59,2.28,4.21.52,1.6.78,3.35.78,5.24v.5c0,1.91-.26,3.67-.78,5.29-.52,1.6-1.28,3-2.28,4.18-1,1.19-2.23,2.12-3.69,2.79-1.46.66-3.12.99-4.98.99s-3.55-.33-5.02-.99c-1.46-.67-2.69-1.6-3.69-2.79-1.01-1.19-1.78-2.58-2.3-4.18-.52-1.62-.78-3.38-.78-5.29v-.5ZM62.88,22.75c0,1.09.1,2.12.3,3.08.2.95.51,1.77.94,2.48.43.72.98,1.29,1.66,1.71.69.42,1.52.63,2.49.63s1.74-.21,2.42-.63c.68-.42,1.23-.99,1.66-1.71.41-.71.72-1.53.92-2.48.2-.96.3-1.99.3-3.08v-.5c0-1.06-.1-2.06-.3-3.01-.2-.95-.51-1.78-.92-2.5-.43-.72-.98-1.29-1.66-1.71-.68-.42-1.5-.63-2.47-.63s-1.77.21-2.44.63c-.68.42-1.23.99-1.66,1.71-.43.72-.74,1.56-.94,2.5s-.3,1.95-.3,3.01v.5Z"/></g><path id="eGo_2" class="cls-2" d="M45.38,21.53l-.02,6.05,6.5,2.29-.02-13.15h-12v4.81h5.55Z"/><path id="eGo_3" class="cls-5" d="M50.75,5.99c-.54-1.28-1.29-2.37-2.26-3.28l-3.48,5.45c.23.63.4,1.34.51,2.15h6.31c-.17-1.6-.53-3.05-1.08-4.33Z"/></g></svg>