<?xml version="1.0" encoding="UTF-8"?>
<svg id="Layer_1" data-name="Layer 1" xmlns="http://www.w3.org/2000/svg" xmlns:xlink="http://www.w3.org/1999/xlink" viewBox="0 0 359.65 271.72">
  <defs>
    <style>
      .cls-1 {
        fill: #fff;
        stroke: #2d3915;
      }

      .cls-2 {
        fill: #bfe470;
      }

      .cls-2, .cls-3, .cls-4, .cls-5, .cls-6, .cls-7, .cls-8, .cls-9, .cls-10, .cls-11 {
        stroke-width: 0px;
      }

      .cls-3 {
        fill: url(#linear-gradient);
      }

      .cls-4 {
        fill: #39aa44;
      }

      .cls-5 {
        fill: #c590fb;
      }

      .cls-6 {
        fill: #2d3915;
      }

      .cls-7 {
        fill: url(#linear-gradient-4);
      }

      .cls-8 {
        fill: url(#linear-gradient-2);
      }

      .cls-9 {
        fill: url(#linear-gradient-3);
      }

      .cls-10 {
        fill: url(#linear-gradient-5);
      }

      .cls-11 {
        fill: url(#linear-gradient-6);
      }
    </style>
    <linearGradient id="linear-gradient" x1="183.25" y1="37.25" x2="183.25" y2="228.12" gradientTransform="translate(0 291.42) scale(1 -1)" gradientUnits="userSpaceOnUse">
      <stop offset="0" stop-color="#2d3915"/>
      <stop offset="1" stop-color="#549b5f"/>
    </linearGradient>
    <linearGradient id="linear-gradient-2" x1="85.79" y1="156.62" x2="280.47" y2="110.76" gradientTransform="translate(0 291.42) scale(1 -1)" gradientUnits="userSpaceOnUse">
      <stop offset="0" stop-color="#39aa44"/>
      <stop offset=".7" stop-color="#c590fb"/>
    </linearGradient>
    <linearGradient id="linear-gradient-3" x1="101.3" y1="228.84" x2="121.7" y2="200.81" gradientTransform="translate(0 291.42) scale(1 -1)" gradientUnits="userSpaceOnUse">
      <stop offset="0" stop-color="#2d3915"/>
      <stop offset="1" stop-color="#c590fb"/>
    </linearGradient>
    <linearGradient id="linear-gradient-4" x1="206.71" y1="269.72" x2="206.71" y2="218.33" gradientTransform="translate(0 291.42) scale(1 -1)" gradientUnits="userSpaceOnUse">
      <stop offset="0" stop-color="#39aa44"/>
      <stop offset="1" stop-color="#c590fb"/>
    </linearGradient>
    <linearGradient id="linear-gradient-5" x1="133.87" y1="248.5" x2="144.95" y2="212.23" gradientTransform="translate(0 291.42) scale(1 -1)" gradientUnits="userSpaceOnUse">
      <stop offset="0" stop-color="#bfe470"/>
      <stop offset="1" stop-color="#c590fb"/>
    </linearGradient>
    <linearGradient id="linear-gradient-6" x1="300.23" y1="227.08" x2="271.27" y2="209.99" gradientTransform="translate(0 291.42) scale(1 -1)" gradientUnits="userSpaceOnUse">
      <stop offset="0" stop-color="#c590fb"/>
      <stop offset=".59" stop-color="#9d97c7"/>
      <stop offset="1" stop-color="#39aa44"/>
    </linearGradient>
  </defs>
  <path class="cls-3" d="M278.69,158.73c0,52.71-42.73,95.44-95.44,95.44s-95.44-42.73-95.44-95.44,42.73-95.44,95.44-95.44,95.44,42.73,95.44,95.44Z"/>
  <path class="cls-2" d="M190.46,109.25c-2.43-1.22-5.76-3.65-6.37-9.73-.48-4.77,10.67-24.16,16.12-32.55,5.92.61,21.14,5.26,30.84,11.23,16.74,10.32,23.89,19.81,23.89,19.81,0,0-12.68,19.45-17.44,23.4.3,3.24.73,10.16,0,11.86-.73,1.7-4.35,3.34-6.07,3.95-1.01,0-3.46.24-5.16,1.22-1.7.97-2.33,2.43-2.43,3.04l-6.07,10.34c-1.32,1.93-4.49,5.66-6.68,5.17-2.18-.49-2.93-3.65-3.04-5.17l-3.94-18.55c-1.62-.2-5.16-.91-6.37-2.13s.51-13.89,1.52-20.07c-2.12-.2-6.86-.85-8.8-1.82Z"/>
  <path class="cls-2" d="M248.31,159.94c-.84-1.71-6.39-.37-8.89,1.18-.31,0-1.22,1.83-3.74,3.75-2.53,1.92,2.3,4.92,5.32,6.51,2.37,1.73,8.34,1.91,12.44-1.18,5.13-3.86-4.08-8.13-5.13-10.26Z"/>
  <path class="cls-2" d="M140.64,106.55c0-9.8-16.54-12.66-24.71-12.66,1.02.01-24.1,20.63-25.94,60.45-.8,17.37,1.02,42.07,26.75,69.64.82,0,3.27-.82,8.99-4.09,7.15-4.08,5.51-18.79,6.13-20.22.61-1.43-2.65-11.44-6.13-16.34-3.47-4.9,4.29-11.03,7.76-15.52,3.47-4.49,7.15.61,14.7-10.62,7.56-11.23,2.45-4.9-5.11-19.4-7.56-14.5-2.45-18.99-2.45-31.24Z"/>
  <path class="cls-2" d="M140.84,223.98c-5.31,3.57-2.21,13.38,0,17.84,10.37,4.46,19.91,9.13,39.4,10.19,15.59.85,31.1-3.19,41.26-8.07v-7.86c.21-3.04-1.16-10.62-8.29-16.57-7.13-5.95-12.26-5.66-13.91-3.19-3.94,0-6.75-5.91-10.4-8.46-4.56-3.19-6.53-16.31-8.65-20.43-1.77-3.42-7.67-16.14-15.76-13.17-8.09,2.97-4.77,17.42-8.92,25.7-4.77,7.9-14.39,23.76-14.72,24Z"/>
  <path class="cls-8" d="M276.14,141.84c.24,1.36,1.53,2.27,2.89,2.04,1.36-.24,2.27-1.53,2.04-2.89l-4.93.85ZM259.66,219.9c-.12-1.38-1.32-2.4-2.7-2.28l-22.42,1.88c-1.38.11-2.4,1.32-2.28,2.7.11,1.38,1.32,2.4,2.7,2.28l19.93-1.67,1.67,19.93c.12,1.38,1.32,2.4,2.7,2.28,1.38-.12,2.4-1.32,2.28-2.7l-1.88-22.42ZM136.64,238.91c-44.71-26.03-59.83-83.41-33.77-128.15l-4.32-2.52c-27.44,47.13-11.52,107.57,35.58,134.99l2.52-4.32ZM102.86,110.75c26.05-44.75,83.42-59.92,128.13-33.89l2.51-4.32c-47.1-27.42-107.52-11.44-134.96,35.69l4.32,2.52ZM230.99,76.87c24.87,14.48,40.58,38.65,45.15,64.97l4.93-.85c-4.81-27.71-21.36-53.18-47.56-68.43l-2.51,4.32ZM255.26,218.49c-28.82,34.08-78.76,43.63-118.63,20.42l-2.52,4.32c42,24.46,94.6,14.39,124.96-21.51l-3.82-3.23Z"/>
  <path class="cls-1" d="M203.74,189.96h.48s0-.5,0-.5c.06-7.47,6.13-13.51,13.61-13.51h63.79c7.52,0,13.62,6.1,13.62,13.63s-6.1,13.62-13.62,13.62h-23.35v.49c-.13,7.35-6.13,13.27-13.51,13.27h-40.66c-7.46,0-13.5-6.05-13.5-13.5s5.85-13.3,13.13-13.5Z"/>
  <path class="cls-1" d="M63.92,159.51h.5v-.5c0-7.31,5.91-13.23,13.2-13.23h34.52c7.29,0,13.2,5.92,13.2,13.23v.5h.5c7.29,0,13.2,5.92,13.2,13.23s-5.91,13.23-13.2,13.23h-61.92c-7.29,0-13.2-5.92-13.2-13.23s5.91-13.23,13.2-13.23Z"/>
  <path class="cls-4" d="M199.98,83.28c-3.21-1.14,1.89-7,5.3-6.93,3.36.06,8.26,5.79,5.1,6.93-1.12.41-3.06,0-3.06,0,0,0,5.58,3.5,3.88,5.51-1.34,1.58-5.3,0-5.3,0v4.89h-1.43v-4.89s-3.96,1.58-5.3,0c-1.7-2,3.88-5.51,3.88-5.51,0,0-1.93.4-3.06,0Z"/>
  <path class="cls-4" d="M221.91,122.44c-3.21-1.14,1.89-7,5.3-6.93,3.36.06,8.26,5.79,5.1,6.93-1.12.41-3.06,0-3.06,0,0,0,5.58,3.5,3.88,5.51-1.34,1.58-5.3,0-5.3,0v4.89h-1.43v-4.89s-3.96,1.58-5.3,0c-1.7-2.01,3.87-5.51,3.87-5.51,0,0-1.93.4-3.06,0Z"/>
  <path class="cls-4" d="M239.78,159.14c-3.21-1.14,1.89-7,5.3-6.93,3.36.06,8.26,5.79,5.1,6.93-1.12.41-3.06,0-3.06,0,0,0,5.58,3.5,3.88,5.51-1.34,1.58-5.3,0-5.3,0v4.89h-1.43v-4.89s-3.96,1.58-5.3,0c-1.7-2.01,3.88-5.51,3.88-5.51,0,0-1.93.4-3.06,0Z"/>
  <path class="cls-4" d="M164.82,192.18c-3.21-1.14,1.89-7,5.3-6.93,3.36.06,8.26,5.79,5.1,6.93-1.12.41-3.06,0-3.06,0,0,0,5.58,3.5,3.88,5.51-1.34,1.58-5.3,0-5.3,0v4.89h-1.43v-4.89s-3.96,1.58-5.3,0c-1.7-2.01,3.88-5.51,3.88-5.51,0,0-1.93.4-3.06,0Z"/>
  <path class="cls-4" d="M150.13,230.92c-3.21-1.14,1.89-7,5.3-6.93,3.36.06,8.26,5.79,5.1,6.93-1.12.41-3.06,0-3.06,0,0,0,5.58,3.5,3.87,5.51-1.34,1.58-5.3,0-5.3,0v4.89h-1.43v-4.89s-3.96,1.58-5.3,0c-1.7-2.01,3.87-5.51,3.87-5.51,0,0-1.93.4-3.06,0Z"/>
  <path class="cls-4" d="M115.46,104.9c-3.21-1.14,1.89-7,5.3-6.93,3.36.06,8.26,5.79,5.1,6.93-1.12.41-3.06,0-3.06,0,0,0,5.58,3.5,3.87,5.51-1.34,1.58-5.3,0-5.3,0v4.89h-1.43v-4.89s-3.96,1.58-5.3,0c-1.7-2,3.87-5.51,3.87-5.51,0,0-1.93.4-3.06,0Z"/>
  <path class="cls-4" d="M134.23,146.5c-3.21-1.14,1.89-7,5.3-6.93,3.36.06,8.26,5.79,5.1,6.93-1.12.41-3.06,0-3.06,0,0,0,5.58,3.5,3.87,5.51-1.34,1.58-5.3,0-5.3,0v4.89h-1.43v-4.89s-3.96,1.58-5.3,0c-1.7-2,3.87-5.51,3.87-5.51,0,0-1.93.4-3.06,0Z"/>
  <path class="cls-4" d="M112.61,206.86c-3.21-1.14,1.89-7,5.3-6.93,3.36.06,8.26,5.79,5.1,6.93-1.12.41-3.06,0-3.06,0,0,0,5.58,3.5,3.87,5.51-1.34,1.58-5.3,0-5.3,0v4.89h-1.43v-4.89s-3.96,1.58-5.3,0c-1.7-2,3.87-5.51,3.87-5.51,0,0-1.93.4-3.06,0Z"/>
  <path class="cls-4" d="M232.38,62.43c-5.27-4.3,8.28-11.9,14.63-9.48,6.27,2.38,11.6,16.45,4.89,16.48-2.38.01-5.74-2.06-5.74-2.06,0,0,8.11,10.35,3.56,12.97-3.58,2.07-9.95-3.57-9.95-3.57l-3.3,9.21-1.15-.41-.38-.14-1.15-.41,3.3-9.21s-8.5.3-9.96-3.57c-1.84-4.92,10.99-7.76,10.99-7.76,0,0-3.9-.55-5.74-2.06Z"/>
  <path class="cls-9" d="M117.85,67.69c3.85-5.61-11.29-9.09-16.71-4.99-5.35,4.05-6.51,19.05-.06,17.2,2.29-.66,4.93-3.59,4.93-3.59,0,0-4.87,12.21.23,13.45,4.02.98,8.55-6.22,8.55-6.22l5.76,7.91.99-.72.33-.24.99-.72-5.76-7.91s8.25-2.1,8.55-6.22c.39-5.24-12.73-4.36-12.73-4.36,0,0,3.59-1.62,4.93-3.59Z"/>
  <path class="cls-6" d="M191.83,12.56c.93-2.76,1.57-5.95,4.49-5.95s3.55,3.2,4.49,5.95c.95,2.81,0,7.6,0,7.6,0,0,5-.95,7.95,0,2.53.81,5.34,1.07,5.71,3.69.38,2.69-2.42,3.65-4.69,5.13-2.64,1.72-7.75,2.26-7.75,2.26,0,0,8.25.67,12.44,3.49,3,2.02,6.12,3.16,6.32,6.77.22,3.85-3.01,5.61-6.32,7.6-5.19,3.12-15.5,0-15.5,0v19.5h-5.3v-19.5s-10.31,3.12-15.5,0c-3.31-1.99-6.54-3.74-6.32-7.6.21-3.61,3.32-4.75,6.32-6.77,4.18-2.82,12.44-3.49,12.44-3.49,0,0-5.11-.54-7.75-2.26-2.27-1.48-5.07-2.44-4.69-5.13.37-2.63,3.18-2.88,5.71-3.69,2.96-.95,7.95,0,7.95,0,0,0-.95-4.79,0-7.6Z"/>
  <path class="cls-4" d="M113.16,32.98c.04-2.91-.32-6.15,2.45-7.04,2.77-.89,4.36,1.95,6.09,4.29,1.77,2.38,2.33,7.23,2.33,7.23,0,0,4.46-2.43,7.57-2.44,2.66,0,5.41-.62,6.57,1.77,1.19,2.44-1.18,4.21-2.89,6.32-1.99,2.45-6.68,4.52-6.68,4.52,0,0,8.06-1.89,12.91-.49,3.48,1,6.79,1.14,8.09,4.51,1.39,3.6-1.15,6.26-3.69,9.17-3.98,4.56-14.75,4.75-14.75,4.75l5.98,18.56-5.05,1.62-5.98-18.56s-8.86,6.13-14.75,4.75c-3.76-.88-7.37-1.56-8.34-5.29-.91-3.5,1.7-5.54,3.94-8.39,3.12-3.97,10.77-7.13,10.77-7.13,0,0-5.03,1.05-8.07.23-2.62-.71-5.58-.77-6.04-3.45-.45-2.62,2.14-3.72,4.3-5.27,2.52-1.81,7.57-2.44,7.57-2.44,0,0-2.37-4.26-2.33-7.23Z"/>
  <path class="cls-6" d="M166.13,48.37c-6.93-2.43,4.08-14.98,11.43-14.85,7.24.14,17.8,12.39,10.99,14.85-2.42.87-6.59,0-6.59,0,0,0,12.02,7.5,8.35,11.79-2.89,3.38-11.43,0-11.43,0v10.48h-3.08v-10.48s-8.54,3.38-11.43,0c-3.67-4.29,8.35-11.79,8.35-11.79,0,0-4.17.85-6.59,0Z"/>
  <path class="cls-6" d="M143.37,53.51c-6-2.14,3.53-13.17,9.89-13.05,6.27.12,15.41,10.89,9.51,13.05-2.09.77-5.71,0-5.71,0,0,0,10.4,6.59,7.23,10.36-2.5,2.97-9.89,0-9.89,0v9.21h-2.66v-9.21s-7.39,2.97-9.89,0c-3.18-3.77,7.23-10.36,7.23-10.36,0,0-3.61.75-5.71,0Z"/>
  <path class="cls-6" d="M226.64,41.27c1-1.63,1.88-3.59,3.75-3.17,1.87.42,1.82,2.57,2.01,4.47.2,1.94-1.11,4.87-1.11,4.87,0,0,3.34.12,5.1,1.16,1.51.89,3.27,1.46,3.13,3.2-.15,1.78-2.08,1.99-3.76,2.61-1.94.72-5.3.32-5.3.32,0,0,5.2,1.63,7.47,4.05,1.63,1.73,3.47,2.92,3.07,5.27-.42,2.5-2.75,3.16-5.16,3.95-3.78,1.25-9.95-2.26-9.95-2.26l-2.84,12.51-3.4-.77,2.84-12.51s-7.07.5-9.95-2.26c-1.83-1.76-3.65-3.35-2.95-5.79.66-2.29,2.82-2.57,5.04-3.43,3.1-1.2,8.49-.43,8.49-.43,0,0-3.2-1.09-4.64-2.58-1.24-1.28-2.9-2.31-2.26-3.98.62-1.63,2.46-1.39,4.2-1.54,2.04-.18,5.1,1.16,5.1,1.16,0,0,.09-3.21,1.1-4.87Z"/>
  <path class="cls-7" d="M191.48,42.25c-9.41-3.37,5.54-20.75,15.52-20.56,9.84.19,24.17,17.16,14.93,20.56-3.29,1.21-8.96,0-8.96,0,0,0,16.32,10.38,11.34,16.32-3.92,4.68-15.52,0-15.52,0v14.51h-4.18v-14.51s-11.6,4.68-15.52,0c-4.98-5.94,11.34-16.32,11.34-16.32,0,0-5.66,1.18-8.96,0Z"/>
  <path class="cls-10" d="M133.89,58.77s-3.73,2.05-6.31,1.93c-6-.29-2.59-10.65,2.7-15.54,1.2-1.11,2.49-1.93,3.79-2.31,6.97-1.98,20.72,6.91,14.94,11.3-2.05,1.56-6.31,1.93-6.31,1.93,0,0,13.74,3.81,11.51,9.08-1.75,4.15-10.93,3.34-10.93,3.34l3.13,10.24-1.26.39-.42.13-1.26.39-3.13-10.24s-7.16,5.8-10.93,3.34c-4.79-3.12,4.47-13.96,4.47-13.96Z"/>
  <path class="cls-4" d="M156.76,15.41c.93-2.76,1.57-5.95,4.49-5.95s3.55,3.2,4.49,5.95c.95,2.81,0,7.6,0,7.6,0,0,5-.95,7.95,0,2.53.81,5.34,1.07,5.71,3.69.38,2.69-2.42,3.65-4.69,5.13-2.64,1.72-7.75,2.26-7.75,2.26,0,0,8.26.67,12.44,3.49,3,2.02,6.12,3.16,6.32,6.77.22,3.85-3.01,5.61-6.32,7.6-5.19,3.12-15.5,0-15.5,0v19.5h-5.3v-19.5s-10.31,3.12-15.5,0c-3.31-1.99-6.54-3.74-6.32-7.6.21-3.61,3.32-4.75,6.32-6.77,4.19-2.82,12.44-3.49,12.44-3.49,0,0-5.11-.54-7.75-2.26-2.28-1.48-5.07-2.44-4.69-5.13.37-2.63,3.18-2.88,5.71-3.69,2.96-.95,7.95,0,7.95,0,0,0-.95-4.79,0-7.6Z"/>
  <path class="cls-2" d="M185.81,40.42c.44-1.31.75-2.82,2.13-2.82s1.69,1.51,2.13,2.82c.45,1.33,0,3.6,0,3.6,0,0,2.37-.45,3.78,0,1.2.38,2.53.5,2.71,1.75.18,1.27-1.15,1.73-2.23,2.43-1.25.82-3.68,1.07-3.68,1.07,0,0,3.92.32,5.91,1.65,1.43.96,2.9,1.5,3,3.21.1,1.83-1.43,2.66-3,3.6-2.46,1.48-7.36,0-7.36,0v9.24h-2.52v-9.24s-4.9,1.48-7.36,0c-1.57-.94-3.1-1.77-3-3.6.1-1.71,1.58-2.25,3-3.21,1.99-1.34,5.91-1.65,5.91-1.65,0,0-2.43-.25-3.68-1.07-1.08-.7-2.41-1.16-2.23-2.43.18-1.25,1.51-1.37,2.71-1.75,1.4-.45,3.78,0,3.78,0,0,0-.45-2.27,0-3.6Z"/>
  <path class="cls-5" d="M131.86,239.3l-5.02-2.85.04,5.77,4.98-2.92ZM242.94,88.61l.06-.5-.06.5ZM58.69,206.24c-6.15-17.01,1.35-37.25,18.71-56.29,17.34-19.02,44.44-36.71,77.19-48.55l-.34-.94c-32.87,11.88-60.11,29.66-77.59,48.81-17.46,19.14-25.25,39.77-18.92,57.3l.94-.34ZM127.36,238.83c-17.3-.12-32.6-3.05-44.51-8.56-11.9-5.51-20.4-13.6-24.17-24.03l-.94.34c3.89,10.75,12.61,19.01,24.69,24.6,12.07,5.59,27.52,8.53,44.92,8.66v-1ZM154.59,101.4c31.85-11.51,63.14-15.35,88.29-12.29l.12-.99c-25.33-3.07-56.78.79-88.75,12.35l.34.94ZM242.88,89.11c26.59,3.23,46.16,14.12,52.48,31.59l.94-.34c-6.51-18.01-26.58-29-53.3-32.24l-.12.99ZM295.36,120.7c6.13,16.96-1.31,37.15-18.58,56.15l.74.67c17.36-19.1,25.1-39.67,18.78-57.16l-.94.34Z"/>
  <path class="cls-5" d="M306.44,185.81l.17.47-.17-.47ZM304.4,105.88l5.55-1.59-1.4,5.6-4.15-4.01ZM80.16,112.73c-.63.17-1.25.33-1.87.5l-.26-.97c.62-.17,1.25-.34,1.88-.5l.26.97ZM74.57,114.26c-1.25.35-2.48.71-3.7,1.07l-.28-.96c1.22-.36,2.46-.72,3.71-1.08l.27.96ZM67.18,116.45c-1.24.38-2.47.77-3.68,1.17l-.31-.95c1.22-.39,2.45-.78,3.69-1.17l.3.96ZM59.83,118.83c-1.23.42-2.45.84-3.64,1.26l-.33-.94c1.2-.43,2.42-.85,3.66-1.27l.32.95ZM52.57,121.41c-1.22.45-2.42.91-3.6,1.37l-.36-.93c1.19-.46,2.39-.92,3.62-1.38l.35.94ZM45.39,124.22c-1.2.5-2.39,1-3.55,1.5l-.4-.92c1.17-.51,2.36-1.01,3.57-1.51l.38.93ZM38.32,127.29c-1.19.54-2.35,1.09-3.48,1.65l-.44-.9c1.14-.56,2.31-1.11,3.5-1.66l.42.91ZM31.4,130.67c-1.16.6-2.29,1.21-3.39,1.82l-.49-.87c1.11-.61,2.25-1.23,3.41-1.83l.46.89ZM24.68,134.4c-1.12.67-2.21,1.35-3.27,2.03l-.54-.84c1.06-.69,2.16-1.37,3.3-2.05l.51.86ZM18.23,138.59c-1.07.76-2.09,1.53-3.07,2.3l-.62-.79c.99-.78,2.03-1.56,3.11-2.32l.58.82ZM12.22,143.35c-.99.88-1.91,1.76-2.77,2.64l-.72-.7c.88-.9,1.82-1.8,2.82-2.69l.66.75ZM6.9,148.84c-.83,1.02-1.57,2.04-2.23,3.07l-.84-.54c.68-1.06,1.45-2.12,2.3-3.16l.78.63ZM2.85,155.23c-.54,1.18-.96,2.37-1.27,3.55l-.97-.25c.32-1.25.76-2.49,1.32-3.72l.91.42ZM1.02,162.49c-.03.62-.02,1.25.02,1.88l-1,.06c-.04-.66-.05-1.32-.02-1.99l1,.05ZM1.03,164.37c.04.64.12,1.28.23,1.91l-.99.17c-.12-.67-.2-1.34-.24-2.02l1-.06ZM2.33,169.98c.47,1.16,1.06,2.3,1.76,3.43l-.85.53c-.74-1.17-1.35-2.37-1.85-3.58l.93-.38ZM6.4,176.53c.81.95,1.71,1.89,2.7,2.82l-.68.73c-1.01-.95-1.94-1.92-2.78-2.9l.76-.65ZM12.08,181.89c1,.78,2.06,1.55,3.18,2.3l-.56.83c-1.14-.77-2.22-1.55-3.24-2.34l.62-.79ZM18.58,186.28c1.1.65,2.25,1.29,3.44,1.91l-.47.88c-1.21-.63-2.37-1.28-3.48-1.93l.51-.86ZM25.54,189.95c1.17.55,2.37,1.09,3.61,1.62l-.39.92c-1.25-.54-2.46-1.08-3.64-1.64l.43-.9ZM32.81,193.08c1.2.47,2.42.93,3.68,1.38l-.34.94c-1.26-.46-2.5-.92-3.7-1.39l.37-.93ZM40.22,195.75c1.24.41,2.5.81,3.79,1.21l-.29.96c-1.29-.4-2.56-.8-3.81-1.22l.32-.95ZM47.77,198.07c1.25.35,2.52.7,3.81,1.04l-.26.97c-1.3-.34-2.57-.69-3.83-1.05l.27-.96ZM55.43,200.1c1.26.31,2.53.61,3.82.9l-.22.97c-1.3-.3-2.58-.6-3.84-.91l.24-.97ZM63.13,201.86c1.27.27,2.56.54,3.87.79l-.19.98c-1.31-.26-2.6-.52-3.88-.79l.21-.98ZM70.88,203.39c1.29.24,2.59.47,3.91.69l-.17.99c-1.32-.23-2.63-.46-3.92-.69l.18-.98ZM78.67,204.72c1.3.21,2.61.4,3.94.6l-.14.99c-1.33-.19-2.64-.39-3.95-.6l.16-.99ZM86.5,205.86c1.3.18,2.62.35,3.94.51l-.12.99c-1.33-.16-2.65-.33-3.95-.51l.13-.99ZM94.35,206.84c1.31.15,2.62.29,3.95.43l-.1.99c-1.33-.14-2.65-.28-3.96-.43l.11-.99ZM102.22,207.65c1.31.12,2.63.24,3.95.35l-.08,1c-1.33-.11-2.65-.23-3.96-.35l.09-.99ZM110.11,208.32c1.31.1,2.63.19,3.96.28l-.07,1c-1.33-.09-2.65-.18-3.97-.28l.08-1ZM118,208.85c1.32.08,2.64.15,3.97.22l-.05,1c-1.33-.07-2.66-.14-3.98-.22l.06-1ZM125.91,209.25c1.32.06,2.64.11,3.97.15l-.03,1c-1.33-.05-2.66-.1-3.98-.15l.04-1ZM133.82,209.52c1.32.04,2.64.07,3.97.09l-.02,1c-1.33-.03-2.66-.06-3.98-.09l.03-1ZM141.73,209.67c1.32.01,2.64.02,3.96.03v1c-1.33,0-2.66-.01-3.98-.03v-1ZM149.65,209.71c1.32,0,2.63-.01,3.96-.03v1c-1.32.01-2.64.02-3.95.03v-1ZM157.57,209.62c1.31-.02,2.63-.05,3.95-.08l.03,1c-1.32.03-2.64.06-3.96.08l-.02-1ZM165.49,209.43c1.31-.04,2.62-.09,3.94-.14l.04,1c-1.32.05-2.64.1-3.95.14l-.03-1ZM173.4,209.12c1.31-.06,2.62-.12,3.94-.19l.05,1c-1.32.07-2.64.13-3.95.19l-.04-1ZM181.29,208.71c.66-.04,1.32-.08,1.99-.12l.06,1c-.66.04-1.33.08-1.99.12l-.06-1ZM183.28,208.59c.65-.04,1.31-.08,1.96-.13l.07,1c-.65.04-1.31.09-1.96.13l-.06-1ZM189.16,208.2c1.31-.09,2.61-.19,3.91-.3l.08,1c-1.3.1-2.61.2-3.92.3l-.07-1ZM196.98,207.58c1.31-.11,2.61-.23,3.91-.35l.09.99c-1.3.12-2.61.24-3.92.35l-.08-1ZM204.8,206.85c1.31-.13,2.61-.26,3.9-.4l.11.99c-1.3.14-2.6.27-3.91.4l-.1-.99ZM212.61,206.01c1.3-.15,2.6-.3,3.9-.46l.12.99c-1.3.16-2.6.31-3.9.46l-.11-.99ZM220.4,205.07c1.3-.17,2.6-.34,3.89-.52l.13.99c-1.29.18-2.59.35-3.9.52l-.13-.99ZM228.18,204.01c1.3-.19,2.6-.38,3.88-.57l.15.99c-1.29.2-2.59.39-3.89.57l-.14-.99ZM235.94,202.83c1.3-.21,2.59-.42,3.87-.63l.16.99c-1.29.21-2.58.43-3.88.63l-.16-.99ZM243.68,201.54c1.29-.23,2.58-.46,3.86-.7l.18.98c-1.28.24-2.57.47-3.87.7l-.17-.99ZM251.4,200.12c1.29-.25,2.57-.5,3.85-.76l.2.98c-1.28.26-2.56.51-3.86.76l-.19-.98ZM259.09,198.57c1.29-.27,2.57-.55,3.84-.83l.21.98c-1.27.28-2.55.56-3.85.83l-.21-.98ZM266.76,196.88c1.28-.29,2.56-.6,3.82-.9l.23.97c-1.27.3-2.54.6-3.83.9l-.22-.98ZM274.39,195.04c1.28-.32,2.55-.65,3.8-.97l.25.97c-1.26.33-2.53.66-3.81.98l-.24-.97ZM281.98,193.05c1.27-.35,2.53-.7,3.78-1.06l.27.96c-1.25.36-2.51.71-3.79,1.06l-.26-.97ZM289.52,190.89c1.26-.38,2.51-.76,3.75-1.15l.3.95c-1.24.39-2.49.77-3.76,1.15l-.29-.96ZM297.01,188.55c1.26-.41,2.5-.83,3.72-1.25l.32.95c-1.23.42-2.48.84-3.74,1.25l-.31-.95ZM304.43,186.01c.62-.22,1.23-.44,1.84-.67l.35.94c-.61.22-1.22.45-1.84.67l-.34-.94ZM306.27,185.34c.63-.23,1.26-.47,1.89-.7l.35.94c-.63.24-1.26.47-1.89.71l-.35-.94ZM311.89,183.19c1.26-.5,2.49-1.01,3.71-1.51l.39.92c-1.22.51-2.46,1.02-3.73,1.52l-.37-.93ZM319.28,180.08c1.24-.55,2.45-1.11,3.64-1.67l.43.9c-1.2.56-2.42,1.12-3.66,1.68l-.41-.91ZM326.53,176.67c1.22-.61,2.4-1.23,3.56-1.85l.47.88c-1.16.63-2.36,1.25-3.58,1.86l-.45-.89ZM333.58,172.87c1.18-.68,2.33-1.37,3.43-2.07l.53.85c-1.12.7-2.27,1.4-3.46,2.09l-.5-.87ZM340.35,168.61c1.12-.77,2.2-1.55,3.23-2.34l.61.8c-1.04.79-2.13,1.58-3.27,2.37l-.57-.82ZM346.68,163.76c1.04-.9,2.02-1.79,2.93-2.7l.7.71c-.93.92-1.92,1.84-2.98,2.75l-.65-.76ZM352.31,158.15c.88-1.05,1.68-2.1,2.38-3.16l.83.56c-.73,1.09-1.54,2.17-2.45,3.25l-.77-.64ZM356.65,151.56c.58-1.22,1.04-2.45,1.37-3.67l.97.26c-.35,1.29-.83,2.57-1.43,3.84l-.9-.43ZM358.63,144.03c.03-.65.03-1.3-.01-1.95l1-.06c.04.69.05,1.38.01,2.06l-1-.05ZM358.62,142.08c-.04-.62-.11-1.24-.22-1.86l.99-.17c.11.65.19,1.3.23,1.96l-1,.06ZM357.39,136.62c-.45-1.13-1.01-2.25-1.68-3.35l.85-.52c.71,1.15,1.29,2.32,1.76,3.51l-.93.37ZM353.5,130.2c-.78-.94-1.64-1.86-2.59-2.77l.69-.72c.97.93,1.86,1.88,2.66,2.85l-.77.64ZM348.05,124.93c-.96-.77-1.98-1.53-3.06-2.27l.57-.82c1.1.76,2.14,1.53,3.12,2.32l-.63.78ZM341.78,120.59c-1.06-.64-2.16-1.27-3.32-1.89l.48-.88c1.16.63,2.28,1.27,3.36,1.92l-.52.86ZM335.06,116.95c-1.12-.55-2.28-1.08-3.48-1.61l.4-.91c1.21.53,2.38,1.07,3.51,1.63l-.44.9ZM328.05,113.85c-1.16-.47-2.36-.93-3.58-1.38l.35-.94c1.23.46,2.43.92,3.6,1.4l-.37.93ZM320.86,111.18c-1.19-.41-2.4-.81-3.64-1.2l.3-.95c1.24.39,2.47.8,3.66,1.21l-.32.95ZM313.55,108.86c-1.21-.36-2.44-.71-3.69-1.05l.26-.96c1.26.34,2.49.69,3.71,1.05l-.28.96ZM306.44,185.81l.17.47-.17-.47ZM304.4,105.88l5.55-1.59-1.4,5.6-4.15-4.01ZM80.16,112.73c-.63.17-1.25.33-1.87.5l-.26-.97c.62-.17,1.25-.34,1.88-.5l.26.97ZM74.57,114.26c-1.25.35-2.48.71-3.7,1.07l-.28-.96c1.22-.36,2.46-.72,3.71-1.08l.27.96ZM67.18,116.45c-1.24.38-2.47.77-3.68,1.17l-.31-.95c1.22-.39,2.45-.78,3.69-1.17l.3.96ZM59.83,118.83c-1.23.42-2.45.84-3.64,1.26l-.33-.94c1.2-.43,2.42-.85,3.66-1.27l.32.95ZM52.57,121.41c-1.22.45-2.42.91-3.6,1.37l-.36-.93c1.19-.46,2.39-.92,3.62-1.38l.35.94ZM45.39,124.22c-1.2.5-2.39,1-3.55,1.5l-.4-.92c1.17-.51,2.36-1.01,3.57-1.51l.38.93ZM38.32,127.29c-1.19.54-2.35,1.09-3.48,1.65l-.44-.9c1.14-.56,2.31-1.11,3.5-1.66l.42.91ZM31.4,130.67c-1.16.6-2.29,1.21-3.39,1.82l-.49-.87c1.11-.61,2.25-1.23,3.41-1.83l.46.89ZM24.68,134.4c-1.12.67-2.21,1.35-3.27,2.03l-.54-.84c1.06-.69,2.16-1.37,3.3-2.05l.51.86ZM18.23,138.59c-1.07.76-2.09,1.53-3.07,2.3l-.62-.79c.99-.78,2.03-1.56,3.11-2.32l.58.82ZM12.22,143.35c-.99.88-1.91,1.76-2.77,2.64l-.72-.7c.88-.9,1.82-1.8,2.82-2.69l.66.75ZM6.9,148.84c-.83,1.02-1.57,2.04-2.23,3.07l-.84-.54c.68-1.06,1.45-2.12,2.3-3.16l.78.63ZM2.85,155.23c-.54,1.18-.96,2.37-1.27,3.55l-.97-.25c.32-1.25.76-2.49,1.32-3.72l.91.42ZM1.02,162.49c-.03.62-.02,1.25.02,1.88l-1,.06c-.04-.66-.05-1.32-.02-1.99l1,.05ZM1.03,164.37c.04.64.12,1.28.23,1.91l-.99.17c-.12-.67-.2-1.34-.24-2.02l1-.06ZM2.33,169.98c.47,1.16,1.06,2.3,1.76,3.43l-.85.53c-.74-1.17-1.35-2.37-1.85-3.58l.93-.38ZM6.4,176.53c.81.95,1.71,1.89,2.7,2.82l-.68.73c-1.01-.95-1.94-1.92-2.78-2.9l.76-.65ZM12.08,181.89c1,.78,2.06,1.55,3.18,2.3l-.56.83c-1.14-.77-2.22-1.55-3.24-2.34l.62-.79ZM18.58,186.28c1.1.65,2.25,1.29,3.44,1.91l-.47.88c-1.21-.63-2.37-1.28-3.48-1.93l.51-.86ZM25.54,189.95c1.17.55,2.37,1.09,3.61,1.62l-.39.92c-1.25-.54-2.46-1.08-3.64-1.64l.43-.9ZM32.81,193.08c1.2.47,2.42.93,3.68,1.38l-.34.94c-1.26-.46-2.5-.92-3.7-1.39l.37-.93ZM40.22,195.75c1.24.41,2.5.81,3.79,1.21l-.29.96c-1.29-.4-2.56-.8-3.81-1.22l.32-.95ZM47.77,198.07c1.25.35,2.52.7,3.81,1.04l-.26.97c-1.3-.34-2.57-.69-3.83-1.05l.27-.96ZM55.43,200.1c1.26.31,2.53.61,3.82.9l-.22.97c-1.3-.3-2.58-.6-3.84-.91l.24-.97ZM63.13,201.86c1.27.27,2.56.54,3.87.79l-.19.98c-1.31-.26-2.6-.52-3.88-.79l.21-.98ZM70.88,203.39c1.29.24,2.59.47,3.91.69l-.17.99c-1.32-.23-2.63-.46-3.92-.69l.18-.98ZM78.67,204.72c1.3.21,2.61.4,3.94.6l-.14.99c-1.33-.19-2.64-.39-3.95-.6l.16-.99ZM86.5,205.86c1.3.18,2.62.35,3.94.51l-.12.99c-1.33-.16-2.65-.33-3.95-.51l.13-.99ZM94.35,206.84c1.31.15,2.62.29,3.95.43l-.1.99c-1.33-.14-2.65-.28-3.96-.43l.11-.99ZM102.22,207.65c1.31.12,2.63.24,3.95.35l-.08,1c-1.33-.11-2.65-.23-3.96-.35l.09-.99ZM110.11,208.32c1.31.1,2.63.19,3.96.28l-.07,1c-1.33-.09-2.65-.18-3.97-.28l.08-1ZM118,208.85c1.32.08,2.64.15,3.97.22l-.05,1c-1.33-.07-2.66-.14-3.98-.22l.06-1ZM125.91,209.25c1.32.06,2.64.11,3.97.15l-.03,1c-1.33-.05-2.66-.1-3.98-.15l.04-1ZM133.82,209.52c1.32.04,2.64.07,3.97.09l-.02,1c-1.33-.03-2.66-.06-3.98-.09l.03-1ZM141.73,209.67c1.32.01,2.64.02,3.96.03v1c-1.33,0-2.66-.01-3.98-.03v-1ZM149.65,209.71c1.32,0,2.63-.01,3.96-.03v1c-1.32.01-2.64.02-3.95.03v-1ZM157.57,209.62c1.31-.02,2.63-.05,3.95-.08l.03,1c-1.32.03-2.64.06-3.96.08l-.02-1ZM165.49,209.43c1.31-.04,2.62-.09,3.94-.14l.04,1c-1.32.05-2.64.1-3.95.14l-.03-1ZM173.4,209.12c1.31-.06,2.62-.12,3.94-.19l.05,1c-1.32.07-2.64.13-3.95.19l-.04-1ZM181.29,208.71c.66-.04,1.32-.08,1.99-.12l.06,1c-.66.04-1.33.08-1.99.12l-.06-1ZM183.28,208.59c.65-.04,1.31-.08,1.96-.13l.07,1c-.65.04-1.31.09-1.96.13l-.06-1ZM189.16,208.2c1.31-.09,2.61-.19,3.91-.3l.08,1c-1.3.1-2.61.2-3.92.3l-.07-1ZM196.98,207.58c1.31-.11,2.61-.23,3.91-.35l.09.99c-1.3.12-2.61.24-3.92.35l-.08-1ZM204.8,206.85c1.31-.13,2.61-.26,3.9-.4l.11.99c-1.3.14-2.6.27-3.91.4l-.1-.99ZM212.61,206.01c1.3-.15,2.6-.3,3.9-.46l.12.99c-1.3.16-2.6.31-3.9.46l-.11-.99ZM220.4,205.07c1.3-.17,2.6-.34,3.89-.52l.13.99c-1.29.18-2.59.35-3.9.52l-.13-.99ZM228.18,204.01c1.3-.19,2.6-.38,3.88-.57l.15.99c-1.29.2-2.59.39-3.89.57l-.14-.99ZM235.94,202.83c1.3-.21,2.59-.42,3.87-.63l.16.99c-1.29.21-2.58.43-3.88.63l-.16-.99ZM243.68,201.54c1.29-.23,2.58-.46,3.86-.7l.18.98c-1.28.24-2.57.47-3.87.7l-.17-.99ZM251.4,200.12c1.29-.25,2.57-.5,3.85-.76l.2.98c-1.28.26-2.56.51-3.86.76l-.19-.98ZM259.09,198.57c1.29-.27,2.57-.55,3.84-.83l.21.98c-1.27.28-2.55.56-3.85.83l-.21-.98ZM266.76,196.88c1.28-.29,2.56-.6,3.82-.9l.23.97c-1.27.3-2.54.6-3.83.9l-.22-.98ZM274.39,195.04c1.28-.32,2.55-.65,3.8-.97l.25.97c-1.26.33-2.53.66-3.81.98l-.24-.97ZM281.98,193.05c1.27-.35,2.53-.7,3.78-1.06l.27.96c-1.25.36-2.51.71-3.79,1.06l-.26-.97ZM289.52,190.89c1.26-.38,2.51-.76,3.75-1.15l.3.95c-1.24.39-2.49.77-3.76,1.15l-.29-.96ZM297.01,188.55c1.26-.41,2.5-.83,3.72-1.25l.32.95c-1.23.42-2.48.84-3.74,1.25l-.31-.95ZM304.43,186.01c.62-.22,1.23-.44,1.84-.67l.35.94c-.61.22-1.22.45-1.84.67l-.34-.94ZM306.27,185.34c.63-.23,1.26-.47,1.89-.7l.35.94c-.63.24-1.26.47-1.89.71l-.35-.94ZM311.89,183.19c1.26-.5,2.49-1.01,3.71-1.51l.39.92c-1.22.51-2.46,1.02-3.73,1.52l-.37-.93ZM319.28,180.08c1.24-.55,2.45-1.11,3.64-1.67l.43.9c-1.2.56-2.42,1.12-3.66,1.68l-.41-.91ZM326.53,176.67c1.22-.61,2.4-1.23,3.56-1.85l.47.88c-1.16.63-2.36,1.25-3.58,1.86l-.45-.89ZM333.58,172.87c1.18-.68,2.33-1.37,3.43-2.07l.53.85c-1.12.7-2.27,1.4-3.46,2.09l-.5-.87ZM340.35,168.61c1.12-.77,2.2-1.55,3.23-2.34l.61.8c-1.04.79-2.13,1.58-3.27,2.37l-.57-.82ZM346.68,163.76c1.04-.9,2.02-1.79,2.93-2.7l.7.71c-.93.92-1.92,1.84-2.98,2.75l-.65-.76ZM352.31,158.15c.88-1.05,1.68-2.1,2.38-3.16l.83.56c-.73,1.09-1.54,2.17-2.45,3.25l-.77-.64ZM356.65,151.56c.58-1.22,1.04-2.45,1.37-3.67l.97.26c-.35,1.29-.83,2.57-1.43,3.84l-.9-.43ZM358.63,144.03c.03-.65.03-1.3-.01-1.95l1-.06c.04.69.05,1.38.01,2.06l-1-.05ZM358.62,142.08c-.04-.62-.11-1.24-.22-1.86l.99-.17c.11.65.19,1.3.23,1.96l-1,.06ZM357.39,136.62c-.45-1.13-1.01-2.25-1.68-3.35l.85-.52c.71,1.15,1.29,2.32,1.76,3.51l-.93.37ZM353.5,130.2c-.78-.94-1.64-1.86-2.59-2.77l.69-.72c.97.93,1.86,1.88,2.66,2.85l-.77.64ZM348.05,124.93c-.96-.77-1.98-1.53-3.06-2.27l.57-.82c1.1.76,2.14,1.53,3.12,2.32l-.63.78ZM341.78,120.59c-1.06-.64-2.16-1.27-3.32-1.89l.48-.88c1.16.63,2.28,1.27,3.36,1.92l-.52.86ZM335.06,116.95c-1.12-.55-2.28-1.08-3.48-1.61l.4-.91c1.21.53,2.38,1.07,3.51,1.63l-.44.9ZM328.05,113.85c-1.16-.47-2.36-.93-3.58-1.38l.35-.94c1.23.46,2.43.92,3.6,1.4l-.37.93ZM320.86,111.18c-1.19-.41-2.4-.81-3.64-1.2l.3-.95c1.24.39,2.47.8,3.66,1.21l-.32.95ZM313.55,108.86c-1.21-.36-2.44-.71-3.69-1.05l.26-.96c1.26.34,2.49.69,3.71,1.05l-.28.96Z"/>
  <path class="cls-5" d="M277.13,215.76l.49-.09-.49.09ZM224.69,243.56l1.15,5.66,4.32-3.83-5.48-1.83ZM139.86,78.35c-.18-.65-.36-1.31-.53-1.96l-.97.26c.18.65.35,1.31.53,1.96l.96-.27ZM138.3,72.49c-.34-1.32-.66-2.62-.97-3.92l-.97.23c.31,1.3.64,2.61.97,3.93l.97-.25ZM136.42,64.64c-.3-1.33-.58-2.64-.86-3.94l-.98.2c.27,1.3.56,2.62.86,3.95l.98-.22ZM134.77,56.75c-.26-1.34-.5-2.67-.72-3.97l-.99.17c.23,1.31.47,2.64.73,3.99l.98-.19ZM133.4,48.79c-.2-1.35-.39-2.68-.56-3.99l-.99.13c.17,1.31.35,2.65.56,4.01l.99-.15ZM132.39,40.81c-.14-1.37-.26-2.71-.35-4.02l-1,.07c.1,1.32.21,2.67.35,4.05l.99-.1ZM131.81,32.78c-.05-1.38-.08-2.72-.08-4.03h-1c0,1.32.02,2.67.08,4.07l1-.04ZM131.84,24.74c.07-1.39.18-2.72.32-4l-.99-.11c-.15,1.3-.25,2.66-.32,4.06l1,.05ZM132.75,16.77c.26-1.37.58-2.67.95-3.87l-.96-.29c-.38,1.24-.7,2.57-.97,3.97l.98.19ZM135.11,9.2c.6-1.26,1.28-2.38,2.04-3.36l-.79-.61c-.81,1.04-1.52,2.23-2.15,3.55l.9.43ZM139.93,3.14c.53-.37,1.08-.7,1.67-.98l-.43-.9c-.63.3-1.24.66-1.81,1.07l.58.82ZM141.59,2.16c.58-.28,1.19-.51,1.81-.68l-.27-.96c-.68.19-1.33.44-1.97.74l.43.9ZM147.25,1c1.23.02,2.53.2,3.88.52l.23-.97c-1.42-.34-2.78-.52-4.09-.54l-.02,1ZM154.91,2.74c1.17.47,2.37,1.03,3.6,1.69l.47-.88c-1.26-.67-2.49-1.25-3.7-1.73l-.37.93ZM161.96,6.44c1.09.69,2.19,1.44,3.31,2.25l.59-.81c-1.14-.82-2.26-1.59-3.36-2.29l-.54.84ZM168.46,11.13c1.01.81,2.04,1.67,3.08,2.58l.66-.75c-1.05-.91-2.09-1.78-3.12-2.6l-.62.78ZM174.54,16.39c.96.89,1.93,1.82,2.91,2.79l.7-.71c-.98-.97-1.96-1.91-2.93-2.81l-.68.73ZM180.28,22.05c.92.95,1.84,1.93,2.77,2.94l.74-.68c-.93-1.02-1.86-2-2.79-2.96l-.72.69ZM185.74,27.98c.87.99,1.75,2,2.63,3.04l.76-.65c-.88-1.04-1.77-2.06-2.64-3.05l-.75.66ZM190.95,34.12c.85,1.03,1.69,2.08,2.54,3.15l.78-.62c-.85-1.07-1.71-2.13-2.55-3.16l-.77.63ZM195.98,40.43c.81,1.05,1.62,2.12,2.44,3.2l.8-.6c-.82-1.09-1.63-2.16-2.45-3.22l-.79.61ZM200.82,46.89c.78,1.07,1.57,2.16,2.36,3.27l.82-.58c-.79-1.11-1.58-2.2-2.36-3.28l-.81.59ZM205.49,53.45c.76,1.1,1.53,2.21,2.29,3.34l.83-.56c-.77-1.13-1.53-2.25-2.3-3.35l-.82.57ZM210.03,60.13c.74,1.11,1.48,2.24,2.21,3.37l.84-.54c-.74-1.14-1.48-2.27-2.22-3.38l-.83.55ZM214.42,66.91c.71,1.12,1.43,2.26,2.14,3.41l.85-.53c-.71-1.15-1.43-2.29-2.14-3.41l-.84.54ZM218.68,73.76c.69,1.14,1.39,2.29,2.08,3.45l.86-.51c-.69-1.16-1.39-2.31-2.08-3.46l-.85.52ZM222.81,80.68c.68,1.16,1.35,2.32,2.02,3.49l.87-.5c-.68-1.18-1.35-2.34-2.03-3.5l-.86.5ZM226.83,87.68c.66,1.17,1.32,2.35,1.97,3.54l.88-.48c-.66-1.19-1.31-2.37-1.97-3.54l-.87.49ZM230.73,94.75c.64,1.18,1.28,2.37,1.91,3.57l.88-.47c-.64-1.2-1.28-2.39-1.92-3.57l-.88.48ZM234.51,101.88c.62,1.19,1.24,2.39,1.86,3.59l.89-.46c-.62-1.21-1.24-2.41-1.86-3.6l-.89.46ZM238.19,109.06c.6,1.2,1.2,2.4,1.8,3.62l.9-.44c-.6-1.21-1.2-2.42-1.8-3.62l-.89.45ZM241.76,116.3c.29.61.59,1.22.88,1.83l.9-.43c-.29-.61-.59-1.22-.88-1.83l-.9.44ZM242.64,118.13c.29.6.57,1.2.86,1.8l.9-.43c-.29-.6-.57-1.2-.86-1.81l-.9.43ZM245.2,123.55c.56,1.21,1.12,2.42,1.67,3.62l.91-.42c-.55-1.21-1.11-2.42-1.67-3.63l-.91.42ZM248.51,130.81c.54,1.22,1.08,2.44,1.61,3.65l.92-.4c-.53-1.22-1.07-2.44-1.62-3.66l-.91.41ZM251.71,138.12c.53,1.23,1.05,2.45,1.56,3.68l.92-.39c-.51-1.22-1.04-2.45-1.56-3.68l-.92.39ZM254.8,145.48c.51,1.24,1.01,2.47,1.5,3.7l.93-.37c-.49-1.23-1-2.47-1.5-3.71l-.92.38ZM257.77,152.89c.49,1.24.97,2.49,1.44,3.72l.93-.36c-.47-1.24-.95-2.48-1.44-3.73l-.93.36ZM260.62,160.34c.47,1.25.93,2.5,1.38,3.74l.94-.34c-.45-1.24-.91-2.5-1.38-3.75l-.94.35ZM263.34,167.85c.45,1.26.88,2.52,1.31,3.77l.95-.32c-.43-1.25-.87-2.51-1.31-3.78l-.94.33ZM265.92,175.4c.42,1.27.83,2.54,1.23,3.79l.95-.3c-.4-1.26-.82-2.53-1.24-3.8l-.95.32ZM268.35,183c.4,1.28.78,2.56,1.16,3.82l.96-.28c-.38-1.27-.76-2.55-1.16-3.83l-.96.29ZM270.62,190.65c.37,1.29.72,2.57,1.07,3.84l.96-.26c-.35-1.27-.7-2.56-1.07-3.85l-.96.27ZM272.71,198.35c.34,1.3.66,2.59.97,3.87l.97-.24c-.31-1.28-.64-2.57-.97-3.88l-.97.25ZM274.6,206.1c.3,1.31.59,2.61.86,3.89l.98-.21c-.27-1.29-.56-2.59-.86-3.91l-.98.22ZM276.26,213.9c.13.66.25,1.31.37,1.95l.98-.18c-.12-.65-.25-1.3-.38-1.96l-.98.19ZM276.64,215.85c.13.68.25,1.36.37,2.03l.99-.18c-.12-.67-.24-1.35-.37-2.04l-.98.18ZM277.68,221.94c.22,1.38.41,2.73.59,4.06l.99-.13c-.18-1.34-.38-2.7-.59-4.09l-.99.15ZM278.76,230.09c.15,1.39.28,2.76.38,4.09l1-.08c-.1-1.34-.23-2.72-.38-4.12l-.99.11ZM279.4,238.27c.06,1.4.1,2.77.1,4.1h1c0-1.35-.04-2.73-.1-4.14l-1,.04ZM279.42,246.47c-.06,1.42-.16,2.78-.3,4.08l.99.1c.14-1.33.24-2.71.3-4.14l-1-.04ZM278.55,254.59c-.26,1.4-.57,2.73-.93,3.96l.96.28c.38-1.27.69-2.63.96-4.06l-.98-.18ZM276.21,262.34c-.6,1.29-1.28,2.44-2.05,3.44l.79.61c.81-1.07,1.53-2.28,2.16-3.63l-.91-.42ZM271.34,268.55c-.54.38-1.1.72-1.7,1l.43.9c.65-.31,1.26-.67,1.85-1.09l-.58-.82ZM269.64,269.56c-.57.27-1.16.49-1.76.67l.28.96c.66-.19,1.3-.43,1.92-.73l-.43-.9ZM264.13,270.72c-1.21-.01-2.47-.17-3.8-.47l-.22.98c1.39.31,2.72.48,4.01.49v-1ZM256.64,269.1c-1.15-.45-2.33-.99-3.54-1.61l-.46.89c1.24.64,2.45,1.2,3.64,1.66l.36-.93ZM249.72,265.55c-1.07-.66-2.15-1.39-3.25-2.17l-.58.82c1.12.8,2.22,1.53,3.31,2.21l.53-.85ZM243.33,261.03c-1-.79-2.01-1.62-3.03-2.49l-.65.76c1.03.88,2.05,1.72,3.06,2.52l.62-.79ZM237.37,255.94c-.94-.86-1.9-1.76-2.85-2.7l-.7.72c.97.94,1.93,1.85,2.88,2.72l.68-.74ZM231.73,250.46c-.9-.92-1.8-1.87-2.71-2.84l-.73.68c.91.98,1.82,1.93,2.72,2.86l.72-.7ZM277.13,215.76l.49-.09-.49.09ZM224.69,243.56l1.15,5.66,4.32-3.83-5.48-1.83ZM139.86,78.35c-.18-.65-.36-1.31-.53-1.96l-.97.26c.18.65.35,1.31.53,1.96l.96-.27ZM138.3,72.49c-.34-1.32-.66-2.62-.97-3.92l-.97.23c.31,1.3.64,2.61.97,3.93l.97-.25ZM136.42,64.64c-.3-1.33-.58-2.64-.86-3.94l-.98.2c.27,1.3.56,2.62.86,3.95l.98-.22ZM134.77,56.75c-.26-1.34-.5-2.67-.72-3.97l-.99.17c.23,1.31.47,2.64.73,3.99l.98-.19ZM133.4,48.79c-.2-1.35-.39-2.68-.56-3.99l-.99.13c.17,1.31.35,2.65.56,4.01l.99-.15ZM132.39,40.81c-.14-1.37-.26-2.71-.35-4.02l-1,.07c.1,1.32.21,2.67.35,4.05l.99-.1ZM131.81,32.78c-.05-1.38-.08-2.72-.08-4.03h-1c0,1.32.02,2.67.08,4.07l1-.04ZM131.84,24.74c.07-1.39.18-2.72.32-4l-.99-.11c-.15,1.3-.25,2.66-.32,4.06l1,.05ZM132.75,16.77c.26-1.37.58-2.67.95-3.87l-.96-.29c-.38,1.24-.7,2.57-.97,3.97l.98.19ZM135.11,9.2c.6-1.26,1.28-2.38,2.04-3.36l-.79-.61c-.81,1.04-1.52,2.23-2.15,3.55l.9.43ZM139.93,3.14c.53-.37,1.08-.7,1.67-.98l-.43-.9c-.63.3-1.24.66-1.81,1.07l.58.82ZM141.59,2.16c.58-.28,1.19-.51,1.81-.68l-.27-.96c-.68.19-1.33.44-1.97.74l.43.9ZM147.25,1c1.23.02,2.53.2,3.88.52l.23-.97c-1.42-.34-2.78-.52-4.09-.54l-.02,1ZM154.91,2.74c1.17.47,2.37,1.03,3.6,1.69l.47-.88c-1.26-.67-2.49-1.25-3.7-1.73l-.37.93ZM161.96,6.44c1.09.69,2.19,1.44,3.31,2.25l.59-.81c-1.14-.82-2.26-1.59-3.36-2.29l-.54.84ZM168.46,11.13c1.01.81,2.04,1.67,3.08,2.58l.66-.75c-1.05-.91-2.09-1.78-3.12-2.6l-.62.78ZM174.54,16.39c.96.89,1.93,1.82,2.91,2.79l.7-.71c-.98-.97-1.96-1.91-2.93-2.81l-.68.73ZM180.28,22.05c.92.95,1.84,1.93,2.77,2.94l.74-.68c-.93-1.02-1.86-2-2.79-2.96l-.72.69ZM185.74,27.98c.87.99,1.75,2,2.63,3.04l.76-.65c-.88-1.04-1.77-2.06-2.64-3.05l-.75.66ZM190.95,34.12c.85,1.03,1.69,2.08,2.54,3.15l.78-.62c-.85-1.07-1.71-2.13-2.55-3.16l-.77.63ZM195.98,40.43c.81,1.05,1.62,2.12,2.44,3.2l.8-.6c-.82-1.09-1.63-2.16-2.45-3.22l-.79.61ZM200.82,46.89c.78,1.07,1.57,2.16,2.36,3.27l.82-.58c-.79-1.11-1.58-2.2-2.36-3.28l-.81.59ZM205.49,53.45c.76,1.1,1.53,2.21,2.29,3.34l.83-.56c-.77-1.13-1.53-2.25-2.3-3.35l-.82.57ZM210.03,60.13c.74,1.11,1.48,2.24,2.21,3.37l.84-.54c-.74-1.14-1.48-2.27-2.22-3.38l-.83.55ZM214.42,66.91c.71,1.12,1.43,2.26,2.14,3.41l.85-.53c-.71-1.15-1.43-2.29-2.14-3.41l-.84.54ZM218.68,73.76c.69,1.14,1.39,2.29,2.08,3.45l.86-.51c-.69-1.16-1.39-2.31-2.08-3.46l-.85.52ZM222.81,80.68c.68,1.16,1.35,2.32,2.02,3.49l.87-.5c-.68-1.18-1.35-2.34-2.03-3.5l-.86.5ZM226.83,87.68c.66,1.17,1.32,2.35,1.97,3.54l.88-.48c-.66-1.19-1.31-2.37-1.97-3.54l-.87.49ZM230.73,94.75c.64,1.18,1.28,2.37,1.91,3.57l.88-.47c-.64-1.2-1.28-2.39-1.92-3.57l-.88.48ZM234.51,101.88c.62,1.19,1.24,2.39,1.86,3.59l.89-.46c-.62-1.21-1.24-2.41-1.86-3.6l-.89.46ZM238.19,109.06c.6,1.2,1.2,2.4,1.8,3.62l.9-.44c-.6-1.21-1.2-2.42-1.8-3.62l-.89.45ZM241.76,116.3c.29.61.59,1.22.88,1.83l.9-.43c-.29-.61-.59-1.22-.88-1.83l-.9.44ZM242.64,118.13c.29.6.57,1.2.86,1.8l.9-.43c-.29-.6-.57-1.2-.86-1.81l-.9.43ZM245.2,123.55c.56,1.21,1.12,2.42,1.67,3.62l.91-.42c-.55-1.21-1.11-2.42-1.67-3.63l-.91.42ZM248.51,130.81c.54,1.22,1.08,2.44,1.61,3.65l.92-.4c-.53-1.22-1.07-2.44-1.62-3.66l-.91.41ZM251.71,138.12c.53,1.23,1.05,2.45,1.56,3.68l.92-.39c-.51-1.22-1.04-2.45-1.56-3.68l-.92.39ZM254.8,145.48c.51,1.24,1.01,2.47,1.5,3.7l.93-.37c-.49-1.23-1-2.47-1.5-3.71l-.92.38ZM257.77,152.89c.49,1.24.97,2.49,1.44,3.72l.93-.36c-.47-1.24-.95-2.48-1.44-3.73l-.93.36ZM260.62,160.34c.47,1.25.93,2.5,1.38,3.74l.94-.34c-.45-1.24-.91-2.5-1.38-3.75l-.94.35ZM263.34,167.85c.45,1.26.88,2.52,1.31,3.77l.95-.32c-.43-1.25-.87-2.51-1.31-3.78l-.94.33ZM265.92,175.4c.42,1.27.83,2.54,1.23,3.79l.95-.3c-.4-1.26-.82-2.53-1.24-3.8l-.95.32ZM268.35,183c.4,1.28.78,2.56,1.16,3.82l.96-.28c-.38-1.27-.76-2.55-1.16-3.83l-.96.29ZM270.62,190.65c.37,1.29.72,2.57,1.07,3.84l.96-.26c-.35-1.27-.7-2.56-1.07-3.85l-.96.27ZM272.71,198.35c.34,1.3.66,2.59.97,3.87l.97-.24c-.31-1.28-.64-2.57-.97-3.88l-.97.25ZM274.6,206.1c.3,1.31.59,2.61.86,3.89l.98-.21c-.27-1.29-.56-2.59-.86-3.91l-.98.22ZM276.26,213.9c.13.66.25,1.31.37,1.95l.98-.18c-.12-.65-.25-1.3-.38-1.96l-.98.19ZM276.64,215.85c.13.68.25,1.36.37,2.03l.99-.18c-.12-.67-.24-1.35-.37-2.04l-.98.18ZM277.68,221.94c.22,1.38.41,2.73.59,4.06l.99-.13c-.18-1.34-.38-2.7-.59-4.09l-.99.15ZM278.76,230.09c.15,1.39.28,2.76.38,4.09l1-.08c-.1-1.34-.23-2.72-.38-4.12l-.99.11ZM279.4,238.27c.06,1.4.1,2.77.1,4.1h1c0-1.35-.04-2.73-.1-4.14l-1,.04ZM279.42,246.47c-.06,1.42-.16,2.78-.3,4.08l.99.1c.14-1.33.24-2.71.3-4.14l-1-.04ZM278.55,254.59c-.26,1.4-.57,2.73-.93,3.96l.96.28c.38-1.27.69-2.63.96-4.06l-.98-.18ZM276.21,262.34c-.6,1.29-1.28,2.44-2.05,3.44l.79.61c.81-1.07,1.53-2.28,2.16-3.63l-.91-.42ZM271.34,268.55c-.54.38-1.1.72-1.7,1l.43.9c.65-.31,1.26-.67,1.85-1.09l-.58-.82ZM269.64,269.56c-.57.27-1.16.49-1.76.67l.28.96c.66-.19,1.3-.43,1.92-.73l-.43-.9ZM264.13,270.72c-1.21-.01-2.47-.17-3.8-.47l-.22.98c1.39.31,2.72.48,4.01.49v-1ZM256.64,269.1c-1.15-.45-2.33-.99-3.54-1.61l-.46.89c1.24.64,2.45,1.2,3.64,1.66l.36-.93ZM249.72,265.55c-1.07-.66-2.15-1.39-3.25-2.17l-.58.82c1.12.8,2.22,1.53,3.31,2.21l.53-.85ZM243.33,261.03c-1-.79-2.01-1.62-3.03-2.49l-.65.76c1.03.88,2.05,1.72,3.06,2.52l.62-.79ZM237.37,255.94c-.94-.86-1.9-1.76-2.85-2.7l-.7.72c.97.94,1.93,1.85,2.88,2.72l.68-.74ZM231.73,250.46c-.9-.92-1.8-1.87-2.71-2.84l-.73.68c.91.98,1.82,1.93,2.72,2.86l.72-.7Z"/>
  <path class="cls-5" d="M75.35,141.57l-1.41-5.6-4.14,4.02,5.55,1.57ZM295.35,147.95l.4-.31-.4.31ZM41.33,56.98c4.53-7.84,12.6-13.19,23.4-16.12,10.8-2.92,24.3-3.41,39.6-1.54,30.6,3.74,68.3,16.88,105.85,38.56l.5-.87c-37.63-21.73-75.47-34.93-106.23-38.68-15.38-1.88-29.02-1.4-39.98,1.57-10.97,2.97-19.31,8.45-24.01,16.58l.87.5ZM72.58,138c-14.73-15.45-25.37-30.86-30.91-44.85-5.54-13.99-5.95-26.48-.35-36.17l-.87-.5c-5.81,10.06-5.31,22.9.28,37.04,5.6,14.14,16.33,29.66,31.11,45.17l.72-.69ZM210.18,77.88c36.52,21.09,66.13,46.34,84.78,70.37l.79-.61c-18.74-24.15-48.46-49.49-85.07-70.63l-.5.87ZM294.95,148.25c9.85,12.69,16.63,25.02,19.77,36.2,3.14,11.17,2.64,21.15-2.02,29.21l.87.5c4.83-8.36,5.3-18.64,2.11-29.98-3.19-11.34-10.04-23.79-19.94-36.54l-.79.61ZM312.7,213.66c-4.52,7.82-12.56,13.17-23.32,16.1-10.76,2.93-24.21,3.43-39.45,1.59l-.12.99c15.32,1.85,28.91,1.36,39.83-1.62,10.93-2.98,19.24-8.44,23.92-16.56l-.87-.5Z"/>
  <circle class="cls-11" cx="285.75" cy="72.88" r="14.48"/>
</svg>