<svg width="80" height="37" viewBox="0 0 80 37" fill="none" xmlns="http://www.w3.org/2000/svg">
  <path d="M12.765 36.376C10.8449 36.376 9.10138 36.0473 7.53456 35.39C5.96774 34.7327 4.62366 33.8349 3.5023 32.6966C2.38095 31.5744 1.51306 30.2517 0.898618 28.7287C0.299539 27.1896 0 25.5463 0 23.7988V22.8369C0 20.8489 0.299539 19.0373 0.898618 17.402C1.4977 15.7507 2.33487 14.3319 3.41014 13.1455C4.48541 11.9591 5.76037 11.0373 7.23502 10.38C8.70968 9.72267 10.3149 9.39401 12.0507 9.39401C13.8479 9.39401 15.4455 9.70664 16.8433 10.3319C18.2565 10.9411 19.4547 11.8068 20.4378 12.9291C21.4055 14.0513 22.1429 15.406 22.6498 16.9932C23.1567 18.5644 23.4101 20.3038 23.4101 22.2116V25.0493H6.4977V25.1215C6.71275 26.1636 6.98925 27.0052 7.32719 27.6465C7.66513 28.2718 8.11828 28.8409 8.68664 29.3539C9.27035 29.883 9.93856 30.2918 10.6912 30.5804C11.4439 30.869 12.2657 31.0133 13.1567 31.0133C14.4163 31.0133 15.6375 30.7648 16.8203 30.2678C18.0031 29.7708 18.9631 29.0253 19.7005 28.0313L22.9032 31.6385C22.0891 32.8409 20.7988 33.9311 19.0323 34.909C17.2657 35.887 15.1767 36.376 12.765 36.376ZM12.0046 14.8048C11.2826 14.8048 10.6221 14.9411 10.023 15.2137C9.42396 15.4702 8.90169 15.8469 8.45622 16.3439C7.99539 16.8409 7.61137 17.4341 7.30415 18.1235C6.99693 18.8129 6.76651 19.5824 6.6129 20.4321H17.1198V19.903C17.1198 19.1976 16.9969 18.5323 16.7512 17.907C16.5054 17.2818 16.1674 16.7367 15.7373 16.2718C15.3072 15.8229 14.7773 15.4702 14.1475 15.2137C13.533 14.9411 12.8187 14.8048 12.0046 14.8048Z" fill="url(#paint0_linear_12_1347)"/>
  <path d="M51.8433 31.8068C51.4286 32.3359 50.8602 32.873 50.1383 33.4181C49.4163 33.9632 48.5638 34.4521 47.5806 34.885C46.5822 35.3339 45.4685 35.6946 44.2396 35.9672C43.0108 36.2397 41.6897 36.376 40.2765 36.376C39.0476 36.376 37.8879 36.2237 36.7972 35.9191C35.722 35.6305 34.7312 35.2056 33.8249 34.6445C32.9339 34.0674 32.1198 33.3619 31.3825 32.5283C30.6605 31.6946 30.0461 30.7407 29.5392 29.6666C28.9555 28.4802 28.51 27.1415 28.2028 25.6505C27.9109 24.1595 27.765 22.5403 27.765 20.7928V16.0313C27.765 14.364 27.9109 12.8169 28.2028 11.39C28.4946 9.94712 28.9094 8.64051 29.447 7.47017C29.9539 6.42808 30.5376 5.49021 31.1982 4.65654C31.874 3.82287 32.6114 3.10143 33.4101 2.49221C34.3472 1.80283 35.3687 1.28179 36.4747 0.929083C37.5807 0.576377 38.7481 0.400024 39.977 0.400024C41.8664 0.400024 43.51 0.648521 44.9078 1.14552C46.321 1.64251 47.5115 2.35594 48.4793 3.2858C49.447 4.23169 50.1997 5.37798 50.7373 6.72467C51.2903 8.07137 51.6513 9.5864 51.8203 11.2698H45.5069C45.3994 10.4201 45.2304 9.66656 45 9.00924C44.7849 8.35193 44.4854 7.79882 44.1014 7.34993C43.6713 6.85293 43.126 6.48419 42.4654 6.24371C41.8203 5.9872 41.0446 5.85894 40.1383 5.85894C39.6467 5.85894 39.1705 5.9391 38.7097 6.09942C38.2489 6.25974 37.8187 6.49221 37.4194 6.79682C36.8971 7.21365 36.4209 7.75874 35.9908 8.43209C35.576 9.10544 35.2304 9.89902 34.9539 10.8129C34.7389 11.5183 34.5699 12.3038 34.447 13.1696C34.3395 14.0353 34.2857 14.9732 34.2857 15.9832V20.7928C34.2857 22.0593 34.3625 23.2137 34.5161 24.2557C34.6851 25.2978 34.9155 26.2197 35.2074 27.0213C35.3917 27.4862 35.5991 27.9191 35.8295 28.3199C36.0753 28.7046 36.3441 29.0493 36.6359 29.3539C37.1275 29.867 37.6959 30.2597 38.341 30.5323C39.0015 30.7888 39.7465 30.9251 40.576 30.9411C41.083 30.9411 41.5822 30.901 42.0737 30.8209C42.5653 30.7407 43.0261 30.6285 43.4562 30.4842C43.8863 30.3399 44.2627 30.1796 44.5853 30.0032C44.9232 29.8108 45.1767 29.6104 45.3456 29.402L45.3687 23.0533H39.8157V18.0032H51.8203L51.8433 31.8068Z" fill="url(#paint1_linear_12_1347)"/>
  <path d="M56.4747 22.6445C56.4747 20.7527 56.7358 19.0052 57.2581 17.402C57.7803 15.7828 58.5484 14.38 59.5622 13.1936C60.5607 12.0072 61.7819 11.0774 63.2258 10.404C64.6851 9.73069 66.3518 9.39401 68.2258 9.39401C70.0999 9.39401 71.7665 9.73069 73.2258 10.404C74.6851 11.0774 75.9217 12.0072 76.9355 13.1936C77.934 14.38 78.6943 15.7828 79.2166 17.402C79.7389 19.0052 80 20.7527 80 22.6445V23.1495C80 25.0573 79.7389 26.8209 79.2166 28.4401C78.6943 30.0433 77.934 31.4381 76.9355 32.6245C75.937 33.8108 74.7081 34.7407 73.2489 35.4141C71.7896 36.0714 70.1306 36.4 68.2719 36.4C66.3979 36.4 64.7235 36.0714 63.2489 35.4141C61.7896 34.7407 60.5607 33.8108 59.5622 32.6245C58.5484 31.4381 57.7803 30.0433 57.2581 28.4401C56.7358 26.8209 56.4747 25.0573 56.4747 23.1495V22.6445ZM62.8802 23.1495C62.8802 24.2397 62.98 25.2658 63.1797 26.2277C63.3794 27.1736 63.6943 27.9992 64.1244 28.7046C64.5545 29.4261 65.1075 29.9952 65.7834 30.4121C66.4747 30.8289 67.3042 31.0373 68.2719 31.0373C69.2089 31.0373 70.0154 30.8289 70.6913 30.4121C71.3671 29.9952 71.9201 29.4261 72.3502 28.7046C72.765 27.9992 73.0722 27.1736 73.2719 26.2277C73.4716 25.2658 73.5714 24.2397 73.5714 23.1495V22.6445C73.5714 21.5864 73.4716 20.5844 73.2719 19.6385C73.0722 18.6926 72.765 17.8589 72.3502 17.1375C71.9201 16.4161 71.3671 15.8469 70.6913 15.4301C70.0154 15.0133 69.1936 14.8048 68.2258 14.8048C67.2734 14.8048 66.4593 15.0133 65.7834 15.4301C65.1075 15.8469 64.5545 16.4161 64.1244 17.1375C63.6943 17.8589 63.3794 18.6926 63.1797 19.6385C62.98 20.5844 62.8802 21.5864 62.8802 22.6445V23.1495Z" fill="url(#paint2_linear_12_1347)"/>
  <path d="M45.375 21.9275L45.352 27.9739L51.8497 30.2642L51.8266 17.1179H39.822V21.9275H45.375Z" fill="url(#paint3_linear_12_1347)"/>
  <path d="M50.75 6.3884C50.2124 5.10584 49.4597 4.01413 48.492 3.11328L45.0127 8.56418C45.2431 9.1902 45.4121 9.90782 45.5196 10.7171H51.833C51.664 9.11385 51.303 7.67097 50.75 6.3884Z" fill="url(#paint4_linear_12_1347)"/>
  <defs>
    <linearGradient id="paint0_linear_12_1347" x1="40" y1="0.400024" x2="40" y2="36.4" gradientUnits="userSpaceOnUse">
      <stop stop-color="#39AA44"/>
      <stop offset="1" stop-color="#2D3915"/>
    </linearGradient>
    <linearGradient id="paint1_linear_12_1347" x1="40" y1="0.400024" x2="40" y2="36.4" gradientUnits="userSpaceOnUse">
      <stop stop-color="#39AA44"/>
      <stop offset="1" stop-color="#2D3915"/>
    </linearGradient>
    <linearGradient id="paint2_linear_12_1347" x1="40" y1="0.400024" x2="40" y2="36.4" gradientUnits="userSpaceOnUse">
      <stop stop-color="#39AA44"/>
      <stop offset="1" stop-color="#2D3915"/>
    </linearGradient>
    <linearGradient id="paint3_linear_12_1347" x1="46.7533" y1="20.1404" x2="43.6364" y2="30.0105" gradientUnits="userSpaceOnUse">
      <stop offset="0.00550273" stop-color="#C590FB"/>
      <stop offset="1" stop-color="#2D3915"/>
    </linearGradient>
    <linearGradient id="paint4_linear_12_1347" x1="50" y1="9.19999" x2="42.8" y2="3.6" gradientUnits="userSpaceOnUse">
      <stop offset="0.00218283" stop-color="#C590FB"/>
      <stop offset="1" stop-color="#39AA44"/>
    </linearGradient>
  </defs>
</svg>      