<svg width="329" height="394" viewBox="0 0 329 394" fill="none" xmlns="http://www.w3.org/2000/svg">
<rect width="329" height="394" rx="35" fill="url(#paint0_linear_530_28)"/>
<path d="M63.7524 233.529C72.3168 230.492 58.7047 214.83 49.6219 215.001C40.6665 215.17 27.6148 230.467 36.035 233.529C39.0278 234.618 44.1871 233.529 44.1871 233.529C44.1871 233.529 29.326 242.886 33.8611 248.242C37.4325 252.46 47.9915 248.242 47.9915 248.242L47.9915 261L49.6219 261L50.1654 261L51.7959 261L51.7959 248.242C51.7959 248.242 62.3548 252.46 65.9263 248.242C70.4614 242.886 55.6002 233.529 55.6002 233.529C55.6002 233.529 60.7509 234.593 63.7524 233.529Z" fill="url(#paint1_linear_530_28)"/>
<path d="M234.796 186.8C229.727 185.03 237.784 175.901 243.161 176.001C248.462 176.099 256.188 185.015 251.204 186.8C249.432 187.435 246.378 186.8 246.378 186.8C246.378 186.8 255.175 192.255 252.49 195.377C250.376 197.835 244.126 195.377 244.126 195.377V203H243.161H242.839H241.874V195.377C241.874 195.377 235.624 197.835 233.51 195.377C230.825 192.255 239.622 186.8 239.622 186.8C239.622 186.8 236.573 187.421 234.796 186.8Z" fill="#2D3915"/>
<path d="M190.089 151.273C190.089 151.273 184.523 152.438 181.279 151.273C173.73 148.562 182.127 136.659 190.806 132.467C192.767 131.52 194.741 130.967 196.549 131.002C206.227 131.186 220.331 147.922 211.232 151.273C207.998 152.464 202.423 151.273 202.423 151.273C202.423 151.273 218.482 161.511 213.581 167.371C209.722 171.986 198.311 167.371 198.311 167.371V181.68H196.549H195.962H194.2V167.371C194.2 167.371 182.79 171.986 178.93 167.371C174.029 161.511 190.089 151.273 190.089 151.273Z" fill="url(#paint2_linear_530_28)"/>
<path d="M87.3768 161.474C88.2337 158.938 88.8246 156 91.5 156C94.1754 156 94.7663 158.938 95.6232 161.474C96.4964 164.057 95.6232 168.457 95.6232 168.457C95.6232 168.457 100.214 167.585 102.933 168.457C105.257 169.202 107.837 169.436 108.18 171.854C108.531 174.326 105.96 175.209 103.87 176.573C101.443 178.156 96.7477 178.649 96.7477 178.649C96.7477 178.649 104.335 179.266 108.18 181.858C110.938 183.716 113.802 184.764 113.99 188.086C114.191 191.629 111.219 193.24 108.18 195.07C103.414 197.939 93.9365 195.07 93.9365 195.07L93.9365 213H89.0635L89.0635 195.07C89.0635 195.07 79.5859 197.939 74.8197 195.07C71.7807 193.24 68.8086 191.629 69.0097 188.086C69.1982 184.764 72.0616 183.716 74.8197 181.858C78.6654 179.266 86.2523 178.649 86.2523 178.649C86.2523 178.649 81.557 178.156 79.1303 176.573C77.0401 175.209 74.469 174.326 74.8197 171.854C75.1627 169.436 77.7429 169.202 80.0674 168.457C82.7856 167.585 87.3768 168.457 87.3768 168.457C87.3768 168.457 86.5036 164.057 87.3768 161.474Z" fill="#39AA44"/>
<path d="M141.66 139.841C142.25 138.062 142.657 136 144.5 136C146.343 136 146.75 138.062 147.34 139.841C147.942 141.654 147.34 144.742 147.34 144.742C147.34 144.742 150.503 144.13 152.376 144.742C153.977 145.265 155.755 145.429 155.991 147.126C156.232 148.86 154.461 149.48 153.021 150.437C151.35 151.548 148.115 151.894 148.115 151.894C148.115 151.894 153.342 152.327 155.991 154.146C157.891 155.45 159.863 156.186 159.993 158.517C160.132 161.003 158.084 162.133 155.991 163.417C152.707 165.431 146.178 163.417 146.178 163.417V176H142.822V163.417C142.822 163.417 136.293 165.431 133.009 163.417C130.916 162.133 128.868 161.003 129.007 158.517C129.137 156.186 131.109 155.45 133.009 154.146C135.658 152.327 140.885 151.894 140.885 151.894C140.885 151.894 137.65 151.548 135.979 150.437C134.539 149.48 132.768 148.86 133.009 147.126C133.245 145.429 135.023 145.265 136.624 144.742C138.497 144.13 141.66 144.742 141.66 144.742C141.66 144.742 141.058 141.654 141.66 139.841Z" fill="#BFE470"/>
<path d="M270.92 230.401C270.92 230.401 265.432 231.573 262.234 230.401C254.789 227.673 263.069 215.695 271.627 211.477C273.56 210.524 275.506 209.967 277.29 210.002C286.832 210.188 300.738 227.029 291.766 230.401C288.578 231.599 283.08 230.401 283.08 230.401C283.08 230.401 298.915 240.703 294.083 246.6C290.277 251.244 279.027 246.6 279.027 246.6V261H277.29H276.71H274.973V246.6C274.973 246.6 263.723 251.244 259.917 246.6C255.085 240.703 270.92 230.401 270.92 230.401Z" fill="url(#paint3_linear_530_28)"/>
<path d="M120.063 345.358L145.729 307.384L155.104 314.446L120.611 364.138L107.84 353.783C107.84 353.783 88.66 337.966 92.8578 333.681C97.1615 329.289 108.345 336.531 108.345 336.531L120.063 345.358Z" fill="url(#paint4_linear_530_28)"/>
<path d="M202.541 346.909L185.932 304.437L175.623 309.4L198.217 365.167L212.409 357.687C212.409 357.687 233.776 346.194 230.669 341.132C227.484 335.942 215.427 340.706 215.427 340.706L202.541 346.909Z" fill="url(#paint5_linear_530_28)"/>
<path d="M153.661 224.113C155.86 217.575 157.377 210 164.242 210C171.108 210 172.624 217.575 174.823 224.113C177.064 230.774 174.823 242.119 174.823 242.119C174.823 242.119 186.604 239.872 193.58 242.119C199.545 244.042 206.166 244.645 207.046 250.879C207.946 257.252 201.348 259.53 195.985 263.046C189.757 267.127 177.709 268.399 177.709 268.399C177.709 268.399 197.177 269.989 207.046 276.672C214.124 281.465 221.472 284.167 221.956 292.732C222.472 301.866 214.845 306.021 207.046 310.738C194.815 318.136 169.491 317.603 169.491 317.603H156.986C156.986 317.603 133.669 318.136 121.438 310.738C113.64 306.021 106.013 301.866 106.529 292.732C107.012 284.167 114.36 281.465 121.438 276.672C131.307 269.989 150.776 268.399 150.776 268.399C150.776 268.399 138.727 267.127 132.5 263.046C127.136 259.53 120.538 257.252 121.438 250.879C122.318 244.645 128.939 244.042 134.904 242.119C141.88 239.872 153.661 242.119 153.661 242.119C153.661 242.119 151.421 230.774 153.661 224.113Z" fill="url(#paint6_linear_530_28)"/>
<circle cx="149.741" cy="285.191" r="5.24893" fill="#E9FC77"/>
<circle cx="176.642" cy="285.191" r="5.24893" fill="#E9FC77"/>
<path d="M72.2031 56H81.4688V60H67.3594V37.1562H72.2031V56ZM99.125 59.0781C97.5208 59.901 95.474 60.3125 92.9844 60.3125C90.1719 60.3125 87.974 59.5365 86.3906 57.9844C84.8073 56.4323 84.0156 54.2135 84.0156 51.3281C84.0156 48.4427 84.7448 46.2083 86.2031 44.625C87.6615 43.0104 89.6562 42.2031 92.1875 42.2031C94.7188 42.2031 96.6667 42.9062 98.0312 44.3125C99.4167 45.7083 100.109 47.651 100.109 50.1406V52.4531H88.8438C88.8958 53.8177 89.2969 54.8802 90.0469 55.6406C90.8073 56.3906 91.8594 56.7656 93.2031 56.7656C95.1823 56.7656 97.1562 56.3073 99.125 55.3906V59.0781ZM95.6406 49.2812C95.6198 48.1146 95.3125 47.2083 94.7188 46.5625C94.1354 45.9167 93.3385 45.5938 92.3281 45.5938C91.3177 45.5938 90.5208 45.9115 89.9375 46.5469C89.3646 47.1823 89.0365 48.0938 88.9531 49.2812H95.6406ZM109.266 42.5312H114.156V46.1094H109.266V54.5312C109.266 55.1875 109.448 55.6823 109.812 56.0156C110.188 56.349 110.74 56.5156 111.469 56.5156C112.198 56.5156 113.156 56.3333 114.344 55.9688V59.5156C113.156 60.0469 111.656 60.3125 109.844 60.3125C108.042 60.3125 106.698 59.8385 105.812 58.8906C104.938 57.9323 104.5 56.4792 104.5 54.5312V46.1094H102.219V44.0938L104.844 42.5L106.219 38.8125H109.266V42.5312ZM146.719 42.2031C148.729 42.2031 150.234 42.7188 151.234 43.75C152.234 44.7812 152.734 46.401 152.734 48.6094V60H147.953V49.7969C147.953 48.526 147.74 47.5781 147.312 46.9531C146.885 46.3281 146.224 46.0156 145.328 46.0156C144.151 46.0156 143.276 46.4375 142.703 47.2812C142.13 48.125 141.844 49.4427 141.844 51.2344V60H137.078V49.7969C137.078 48.526 136.865 47.5781 136.438 46.9531C136.01 46.3281 135.349 46.0156 134.453 46.0156C133.234 46.0156 132.349 46.4635 131.797 47.3594C131.245 48.2552 130.969 49.7292 130.969 51.7812V60H126.203V42.5312H129.844L130.484 44.7812H130.75C131.219 43.9688 131.896 43.3385 132.781 42.8906C133.667 42.4323 134.682 42.2031 135.828 42.2031C138.453 42.2031 140.224 43.0625 141.141 44.7812H141.562C142.031 43.9688 142.719 43.3385 143.625 42.8906C144.531 42.4323 145.562 42.2031 146.719 42.2031ZM171.688 59.0781C170.083 59.901 168.036 60.3125 165.547 60.3125C162.734 60.3125 160.536 59.5365 158.953 57.9844C157.37 56.4323 156.578 54.2135 156.578 51.3281C156.578 48.4427 157.307 46.2083 158.766 44.625C160.224 43.0104 162.219 42.2031 164.75 42.2031C167.281 42.2031 169.229 42.9062 170.594 44.3125C171.979 45.7083 172.672 47.651 172.672 50.1406V52.4531H161.406C161.458 53.8177 161.859 54.8802 162.609 55.6406C163.37 56.3906 164.422 56.7656 165.766 56.7656C167.745 56.7656 169.719 56.3073 171.688 55.3906V59.0781ZM168.203 49.2812C168.182 48.1146 167.875 47.2083 167.281 46.5625C166.698 45.9167 165.901 45.5938 164.891 45.5938C163.88 45.5938 163.083 45.9115 162.5 46.5469C161.927 47.1823 161.599 48.0938 161.516 49.2812H168.203ZM189.75 56.8281C191.479 56.8281 192.344 56.3281 192.344 55.3281C192.344 54.8177 192.115 54.4115 191.656 54.1094C191.208 53.8073 190.177 53.2969 188.562 52.5781C187.219 52.0156 186.229 51.4948 185.594 51.0156C184.969 50.5365 184.51 49.9896 184.219 49.375C183.938 48.75 183.797 47.9844 183.797 47.0781C183.797 45.526 184.396 44.3281 185.594 43.4844C186.802 42.6302 188.49 42.2031 190.656 42.2031C192.823 42.2031 194.891 42.6615 196.859 43.5781L195.422 47.0156C194.411 46.5885 193.542 46.2708 192.812 46.0625C192.094 45.8438 191.37 45.7344 190.641 45.7344C189.234 45.7344 188.531 46.1146 188.531 46.875C188.531 47.3021 188.76 47.6771 189.219 48C189.677 48.3125 190.625 48.7552 192.062 49.3281C193.51 49.901 194.552 50.4323 195.188 50.9219C196.427 51.8594 197.047 53.1927 197.047 54.9219C197.047 56.651 196.422 57.9844 195.172 58.9219C193.922 59.849 192.115 60.3125 189.75 60.3125C187.385 60.3125 185.406 59.974 183.812 59.2969V55.3594C184.708 55.776 185.708 56.125 186.812 56.4062C187.927 56.6875 188.906 56.8281 189.75 56.8281ZM205.531 35.6875V40.6406C205.531 41.1302 205.495 42.0365 205.422 43.3594L205.312 44.7812H205.562C206.625 43.0625 208.312 42.2031 210.625 42.2031C212.667 42.2031 214.219 42.7552 215.281 43.8594C216.354 44.9635 216.891 46.5469 216.891 48.6094V60H212.125V49.7969C212.125 47.276 211.188 46.0156 209.312 46.0156C207.979 46.0156 207.016 46.4688 206.422 47.375C205.828 48.2812 205.531 49.75 205.531 51.7812V60H200.766V35.6875H205.531ZM229.375 42.2031C230.979 42.2031 232.411 42.5677 233.672 43.2969C234.943 44.0156 235.922 45.0573 236.609 46.4219C237.307 47.776 237.656 49.3281 237.656 51.0781C237.656 51.1302 237.656 51.1823 237.656 51.2344C237.656 54.0781 236.906 56.3021 235.406 57.9062C233.906 59.5104 231.818 60.3125 229.141 60.3125C229.099 60.3125 229.052 60.3125 229 60.3125C227.396 60.3125 225.958 59.9479 224.688 59.2188C223.427 58.4792 222.448 57.4271 221.75 56.0625C221.062 54.6979 220.719 53.1406 220.719 51.3906C220.719 51.3385 220.719 51.2865 220.719 51.2344C220.719 48.3802 221.464 46.1667 222.953 44.5938C224.443 43 226.536 42.2031 229.234 42.2031C229.276 42.2031 229.323 42.2031 229.375 42.2031ZM231.922 47.3281C231.349 46.474 230.432 46.0469 229.172 46.0469C227.911 46.0469 226.995 46.4688 226.422 47.3125C225.859 48.1562 225.578 49.4635 225.578 51.2344C225.578 52.9948 225.865 54.3125 226.438 55.1875C227.021 56.0521 227.938 56.4844 229.188 56.4844C230.448 56.4844 231.359 56.0521 231.922 55.1875C232.495 54.3229 232.781 53.0104 232.781 51.25C232.781 49.4792 232.495 48.1719 231.922 47.3281ZM261.156 60H255.969L254.609 53.8906L252.812 46.1719H252.703L249.516 60H244.391L239.422 42.5312H244.172L246.188 50.2656C246.521 51.6615 246.849 53.5729 247.172 56H247.266C247.318 55.1354 247.5 53.8802 247.812 52.2344L248.062 50.9062L250.219 42.5312H255.469L257.516 50.9062C258.016 53.6042 258.281 55.3021 258.312 56H258.406C258.49 55.3229 258.651 54.3073 258.891 52.9531C259.141 51.599 259.318 50.7031 259.422 50.2656L261.516 42.5312H266.188L261.156 60ZM72.75 111.688C71.9583 111.688 71.151 111.599 70.3281 111.422V107.641C70.8802 107.776 71.5052 107.844 72.2031 107.844C73.9635 107.844 75.1927 106.807 75.8906 104.734L76.1719 103.875L69.2344 86.5312H74.4531L77.75 96.3594C78.0208 97.2031 78.2135 98.2135 78.3281 99.3906H78.4219C78.526 98.3698 78.75 97.3594 79.0938 96.3594L82.3281 86.5312H87.4375L80.0469 106.234C79.3698 108.036 78.4062 109.396 77.1562 110.312C75.9167 111.229 74.4479 111.688 72.75 111.688ZM97.5312 86.2031C99.1354 86.2031 100.568 86.5677 101.828 87.2969C103.099 88.0156 104.078 89.0573 104.766 90.4219C105.464 91.776 105.812 93.3281 105.812 95.0781C105.812 95.1302 105.812 95.1823 105.812 95.2344C105.812 98.0781 105.062 100.302 103.562 101.906C102.062 103.51 99.974 104.312 97.2969 104.312C97.2552 104.312 97.2083 104.312 97.1562 104.312C95.5521 104.312 94.1146 103.948 92.8438 103.219C91.5833 102.479 90.6042 101.427 89.9062 100.062C89.2188 98.6979 88.875 97.1406 88.875 95.3906C88.875 95.3385 88.875 95.2865 88.875 95.2344C88.875 92.3802 89.6198 90.1667 91.1094 88.5938C92.599 87 94.6927 86.2031 97.3906 86.2031C97.4323 86.2031 97.4792 86.2031 97.5312 86.2031ZM100.078 91.3281C99.5052 90.474 98.5885 90.0469 97.3281 90.0469C96.0677 90.0469 95.151 90.4688 94.5781 91.3125C94.0156 92.1562 93.7344 93.4635 93.7344 95.2344C93.7344 96.9948 94.0208 98.3125 94.5938 99.1875C95.1771 100.052 96.0938 100.484 97.3438 100.484C98.6042 100.484 99.5156 100.052 100.078 99.1875C100.651 98.3229 100.938 97.0104 100.938 95.25C100.938 93.4792 100.651 92.1719 100.078 91.3281ZM125.797 104H122.141L121.5 101.766H121.25C120.74 102.578 120.016 103.208 119.078 103.656C118.141 104.094 117.073 104.312 115.875 104.312C113.833 104.312 112.286 103.766 111.234 102.672C110.193 101.578 109.672 99.9948 109.672 97.9219V86.5312H114.438V96.7344C114.438 98.0052 114.661 98.9531 115.109 99.5781C115.568 100.203 116.281 100.516 117.25 100.516C118.583 100.516 119.547 100.073 120.141 99.1875C120.734 98.3021 121.031 96.8229 121.031 94.75V86.5312H125.797V104ZM139.578 87.75C141.599 86.6979 143.812 86.1719 146.219 86.1719C148.625 86.1719 150.443 86.6875 151.672 87.7188C152.911 88.75 153.531 90.2969 153.531 92.3594V104H150.203L149.281 101.625H149.156C148.354 102.646 147.531 103.349 146.688 103.734C145.844 104.12 144.734 104.312 143.359 104.312C141.693 104.312 140.37 103.833 139.391 102.875C138.432 101.917 137.953 100.536 137.953 98.7344C137.953 96.9323 138.594 95.5885 139.875 94.7031C141.156 93.8073 143.12 93.3125 145.766 93.2188L148.797 93.125V92.3594C148.797 90.5885 147.891 89.7031 146.078 89.7031C144.682 89.7031 143.042 90.125 141.156 90.9688L139.578 87.75ZM142.844 98.8125C142.844 100.156 143.615 100.828 145.156 100.828C146.271 100.828 147.156 100.51 147.812 99.875C148.469 99.2396 148.797 98.3958 148.797 97.3438V95.9062L146.953 95.9688C145.568 96.0104 144.536 96.2604 143.859 96.7188C143.182 97.1771 142.844 97.875 142.844 98.8125ZM168.203 86.2031C168.859 86.2031 169.396 86.25 169.812 86.3438L169.453 90.8125C169.078 90.7083 168.609 90.6562 168.047 90.6562C166.526 90.6562 165.339 91.0469 164.484 91.8281C163.641 92.6094 163.219 93.7031 163.219 95.1094V104H158.453V86.5312H162.062L162.766 89.4688H163C163.562 88.4688 164.292 87.6823 165.188 87.1094C166.104 86.5052 167.109 86.2031 168.203 86.2031ZM180.562 86.2031C182.167 86.2031 183.599 86.5677 184.859 87.2969C186.13 88.0156 187.109 89.0573 187.797 90.4219C188.495 91.776 188.844 93.3281 188.844 95.0781C188.844 95.1302 188.844 95.1823 188.844 95.2344C188.844 98.0781 188.094 100.302 186.594 101.906C185.094 103.51 183.005 104.312 180.328 104.312C180.286 104.312 180.24 104.312 180.188 104.312C178.583 104.312 177.146 103.948 175.875 103.219C174.615 102.479 173.635 101.427 172.938 100.062C172.25 98.6979 171.906 97.1406 171.906 95.3906C171.906 95.3385 171.906 95.2865 171.906 95.2344C171.906 92.3802 172.651 90.1667 174.141 88.5938C175.63 87 177.724 86.2031 180.422 86.2031C180.464 86.2031 180.51 86.2031 180.562 86.2031ZM183.109 91.3281C182.536 90.474 181.62 90.0469 180.359 90.0469C179.099 90.0469 178.182 90.4688 177.609 91.3125C177.047 92.1562 176.766 93.4635 176.766 95.2344C176.766 96.9948 177.052 98.3125 177.625 99.1875C178.208 100.052 179.125 100.484 180.375 100.484C181.635 100.484 182.547 100.052 183.109 99.1875C183.682 98.3229 183.969 97.0104 183.969 95.25C183.969 93.4792 183.682 92.1719 183.109 91.3281ZM208.828 104H205.172L204.531 101.766H204.281C203.771 102.578 203.047 103.208 202.109 103.656C201.172 104.094 200.104 104.312 198.906 104.312C196.865 104.312 195.318 103.766 194.266 102.672C193.224 101.578 192.703 99.9948 192.703 97.9219V86.5312H197.469V96.7344C197.469 98.0052 197.693 98.9531 198.141 99.5781C198.599 100.203 199.312 100.516 200.281 100.516C201.615 100.516 202.578 100.073 203.172 99.1875C203.766 98.3021 204.062 96.8229 204.062 94.75V86.5312H208.828V104ZM223.75 86.2031C225.771 86.2031 227.307 86.7552 228.359 87.8594C229.422 88.9531 229.953 90.5365 229.953 92.6094V104H225.188V93.7969C225.188 92.526 224.958 91.5781 224.5 90.9531C224.052 90.3281 223.344 90.0156 222.375 90.0156C221.042 90.0156 220.078 90.4635 219.484 91.3594C218.891 92.2552 218.594 93.7292 218.594 95.7812V104H213.828V86.5312H217.469L218.109 88.7812H218.375C218.896 87.9375 219.62 87.2969 220.547 86.8594C221.484 86.4219 222.552 86.2031 223.75 86.2031ZM250.125 104H246.469L245.547 101.734H245.344C244.271 103.453 242.62 104.312 240.391 104.312C238.328 104.312 236.714 103.521 235.547 101.938C234.38 100.344 233.797 98.125 233.797 95.2812C233.797 92.4271 234.391 90.2031 235.578 88.6094C236.776 87.0052 238.448 86.2031 240.594 86.2031C242.74 86.2031 244.391 87.0625 245.547 88.7812H245.703C245.464 87.4375 245.344 86.2708 245.344 85.2812V79.6875H250.125V104ZM245.672 95.3281C245.672 93.4635 245.38 92.125 244.797 91.3125C244.214 90.4896 243.276 90.0781 241.984 90.0781C240.911 90.0781 240.083 90.5312 239.5 91.4375C238.917 92.3438 238.625 93.651 238.625 95.3594C238.625 97.0573 238.917 98.3438 239.5 99.2188C240.094 100.083 240.974 100.516 242.141 100.516C243.307 100.516 244.177 100.167 244.75 99.4688C245.323 98.7604 245.63 97.5521 245.672 95.8438V95.3281ZM259.109 96.4219H255.297L254.5 81.1562H259.906L259.109 96.4219ZM254.438 101.75C254.438 100.885 254.672 100.229 255.141 99.7812C255.609 99.3333 256.281 99.1094 257.156 99.1094C258.042 99.1094 258.719 99.3385 259.188 99.7969C259.667 100.255 259.906 100.906 259.906 101.75C259.906 102.583 259.661 103.24 259.172 103.719C258.693 104.188 258.021 104.422 257.156 104.422C256.302 104.422 255.635 104.193 255.156 103.734C254.677 103.266 254.438 102.604 254.438 101.75Z" fill="black"/>
<defs>
<linearGradient id="paint0_linear_530_28" x1="164.5" y1="0" x2="164.5" y2="394" gradientUnits="userSpaceOnUse">
<stop stop-color="white"/>
<stop offset="1" stop-color="#CCE0A1"/>
</linearGradient>
<linearGradient id="paint1_linear_530_28" x1="49.8937" y1="215" x2="49.8937" y2="261.321" gradientUnits="userSpaceOnUse">
<stop stop-color="#2D3915"/>
<stop offset="1" stop-color="#C590FB"/>
</linearGradient>
<linearGradient id="paint2_linear_530_28" x1="196.256" y1="131" x2="196.256" y2="181.68" gradientUnits="userSpaceOnUse">
<stop stop-color="#BFE470"/>
<stop offset="1" stop-color="#C590FB"/>
</linearGradient>
<linearGradient id="paint3_linear_530_28" x1="277" y1="210" x2="277" y2="261" gradientUnits="userSpaceOnUse">
<stop stop-color="#BFE470"/>
<stop offset="1" stop-color="#C590FB"/>
</linearGradient>
<linearGradient id="paint4_linear_530_28" x1="127.488" y1="304.028" x2="116.566" y2="363.394" gradientUnits="userSpaceOnUse">
<stop offset="0.0872223" stop-color="#C590FB"/>
<stop offset="1" stop-color="#16960F"/>
</linearGradient>
<linearGradient id="paint5_linear_530_28" x1="203.885" y1="304.939" x2="202.198" y2="365.278" gradientUnits="userSpaceOnUse">
<stop offset="0.0872223" stop-color="#C590FB"/>
<stop offset="1" stop-color="#16960F"/>
</linearGradient>
<linearGradient id="paint6_linear_530_28" x1="164.242" y1="210" x2="164.242" y2="356.97" gradientUnits="userSpaceOnUse">
<stop stop-color="#16960F"/>
<stop offset="0.862222" stop-color="#C590FB"/>
</linearGradient>
</defs>
</svg>
