<svg width="225" height="138" viewBox="0 0 225 138" fill="none" xmlns="http://www.w3.org/2000/svg">
<path d="M240.841 149.915C240.841 195.076 204.23 231.687 159.069 231.687C113.907 231.687 77.2969 195.076 77.2969 149.915C77.2969 104.754 113.907 68.1433 159.069 68.1433C204.23 68.1433 240.841 104.754 240.841 149.915Z" fill="url(#paint0_linear_1_786)"/>
<path d="M165.241 107.513C163.16 106.471 160.3 104.387 159.78 99.1761C159.372 95.085 168.922 78.4796 173.589 71.2883C178.664 71.8133 191.703 75.7914 200.011 80.912C214.359 89.7551 220.483 97.8846 220.483 97.8846C220.483 97.8846 209.617 114.547 205.543 117.934C205.803 120.713 206.168 126.635 205.543 128.094C204.919 129.553 201.817 130.96 200.343 131.481C199.476 131.481 197.379 131.69 195.923 132.523C194.467 133.357 193.929 134.607 193.843 135.129L188.642 143.986C187.516 145.636 184.794 148.832 182.922 148.415C181.05 147.998 180.408 145.289 180.322 143.986L176.941 128.094C175.555 127.921 172.521 127.313 171.481 126.271C170.441 125.229 171.914 114.373 172.781 109.076C170.961 108.902 166.905 108.347 165.241 107.513Z" fill="#BFE470"/>
<path d="M122.559 105.201C122.559 96.8019 108.386 94.3523 101.387 94.3523C102.261 94.3627 80.7395 112.025 79.1649 146.145C78.478 161.028 80.0398 182.19 102.087 205.812C102.786 205.812 104.886 205.112 109.785 202.312C115.91 198.812 114.51 186.214 115.035 184.989C115.56 183.765 112.76 175.191 109.785 170.991C106.811 166.792 113.46 161.543 116.435 157.693C119.409 153.844 122.559 158.218 129.033 148.595C135.507 138.971 131.132 144.395 124.658 131.972C118.184 119.549 122.559 115.699 122.559 105.201Z" fill="#BFE470"/>
<path d="M238.789 135.414C238.978 136.503 240.013 137.232 241.101 137.043C242.19 136.854 242.919 135.819 242.73 134.73L238.789 135.414ZM224.394 202.334C224.302 201.233 223.335 200.415 222.234 200.507L204.297 202.008C203.196 202.1 202.378 203.067 202.47 204.168C202.562 205.268 203.529 206.086 204.63 205.994L220.574 204.66L221.908 220.604C222 221.705 222.967 222.523 224.068 222.431C225.169 222.339 225.986 221.372 225.894 220.271L224.394 202.334ZM119.054 218.733C80.6821 196.39 67.7006 147.143 90.0642 108.735L86.6074 106.722C63.1339 147.037 76.7575 198.734 117.041 222.189L119.054 218.733ZM90.0642 108.735C112.428 70.327 161.665 57.3075 200.037 79.6501L202.05 76.1934C161.766 52.7375 110.081 66.408 86.6074 106.722L90.0642 108.735ZM200.037 79.6501C221.381 92.0783 234.869 112.828 238.789 135.414L242.73 134.73C238.617 111.031 224.458 89.2411 202.05 76.1934L200.037 79.6501ZM220.874 201.209C196.139 230.46 153.274 238.658 119.054 218.733L117.041 222.189C152.97 243.109 197.963 234.497 223.928 203.792L220.874 201.209Z" fill="url(#paint1_linear_1_786)"/>
<path d="M173.396 85.2666C170.642 84.2928 175.018 79.2709 177.938 79.3259C180.818 79.3801 185.014 84.2846 182.307 85.2666C181.344 85.6156 179.686 85.2666 179.686 85.2666C179.686 85.2666 184.464 88.2669 183.006 89.9842C181.857 91.3366 178.463 89.9842 178.463 89.9842V94.1776H177.938H177.764H177.24V89.9842C177.24 89.9842 173.845 91.3366 172.697 89.9842C171.239 88.2669 176.016 85.2666 176.016 85.2666C176.016 85.2666 174.361 85.6079 173.396 85.2666Z" fill="#39AA44"/>
<path d="M192.191 118.814C189.438 117.84 193.814 112.819 196.734 112.873C199.613 112.928 203.81 117.832 201.103 118.814C200.14 119.163 198.482 118.814 198.482 118.814C198.482 118.814 203.259 121.814 201.801 123.532C200.653 124.884 197.259 123.532 197.259 123.532V127.725H196.734H196.56H196.035V123.532C196.035 123.532 192.641 124.884 191.493 123.532C190.035 121.814 194.812 118.814 194.812 118.814C194.812 118.814 193.156 119.155 192.191 118.814Z" fill="#39AA44"/>
<path d="M100.985 103.788C98.232 102.814 102.608 97.7922 105.528 97.8471C108.407 97.9013 112.604 102.806 109.896 103.788C108.934 104.137 107.276 103.788 107.276 103.788C107.276 103.788 112.053 106.788 110.595 108.505C109.447 109.858 106.052 108.505 106.052 108.505V112.699H105.528H105.354H104.829V108.505C104.829 108.505 101.435 109.858 100.287 108.505C98.8285 106.788 103.606 103.788 103.606 103.788C103.606 103.788 101.95 104.129 100.985 103.788Z" fill="#39AA44"/>
<path d="M117.06 139.432C114.307 138.458 118.683 133.436 121.603 133.491C124.482 133.545 128.678 138.45 125.971 139.432C125.009 139.781 123.35 139.432 123.35 139.432C123.35 139.432 128.128 142.432 126.67 144.149C125.522 145.502 122.127 144.149 122.127 144.149V148.343H121.603H121.428H120.904V144.149C120.904 144.149 117.509 145.502 116.361 144.149C114.903 142.432 119.681 139.432 119.681 139.432C119.681 139.432 118.025 139.773 117.06 139.432Z" fill="#39AA44"/>
<path d="M201.161 67.4046C196.648 63.7179 208.255 57.2094 213.7 59.2784C219.069 61.3184 223.638 73.3762 217.892 73.4027C215.85 73.4121 212.971 71.6385 212.971 71.6385C212.971 71.6385 219.917 80.5029 216.021 82.7546C212.952 84.5278 207.491 79.6967 207.491 79.6967L204.661 87.5914L203.677 87.2385L203.349 87.1209L202.364 86.7681L205.194 78.8735C205.194 78.8735 197.908 79.1346 196.665 75.8156C195.086 71.6012 206.082 69.1688 206.082 69.1688C206.082 69.1688 202.742 68.6966 201.161 67.4046Z" fill="#39AA44"/>
<path d="M103.029 71.9068C106.324 67.1006 93.3564 64.1157 88.7116 67.6315C84.1319 71.0981 83.1358 83.9538 88.6572 82.3647C90.6197 81.7999 92.8842 79.2889 92.8842 79.2889C92.8842 79.2889 88.7091 89.7479 93.0814 90.8139C96.5247 91.6534 100.408 85.4824 100.408 85.4824L105.343 92.2636L106.188 91.6485L106.47 91.4434L107.315 90.8282L102.381 84.047C102.381 84.047 109.447 82.2501 109.707 78.7155C110.038 74.2273 98.8019 74.9827 98.8019 74.9827C98.8019 74.9827 101.874 73.5912 103.029 71.9068Z" fill="url(#paint2_linear_1_786)"/>
<path d="M166.415 24.67C167.214 22.3071 167.765 19.5693 170.259 19.5693C172.753 19.5693 173.304 22.3071 174.103 24.67C174.917 27.0775 174.103 31.1776 174.103 31.1776C174.103 31.1776 178.383 30.3652 180.917 31.1776C183.084 31.8723 185.49 32.0904 185.809 34.3435C186.136 36.6468 183.739 37.47 181.791 38.7406C179.528 40.2158 175.151 40.6753 175.151 40.6753C175.151 40.6753 182.224 41.25 185.809 43.6653C188.381 45.3976 191.05 46.3741 191.226 49.4695C191.413 52.7707 188.643 54.2724 185.809 55.9772C181.366 58.6509 172.53 55.9772 172.53 55.9772V72.6861H167.987V55.9772C167.987 55.9772 159.152 58.6509 154.708 55.9772C151.875 54.2724 149.104 52.7707 149.292 49.4695C149.467 46.3741 152.137 45.3976 154.708 43.6653C158.294 41.25 165.367 40.6753 165.367 40.6753C165.367 40.6753 160.989 40.2158 158.727 38.7406C156.778 37.47 154.381 36.6468 154.708 34.3435C155.028 32.0904 157.433 31.8723 159.601 31.1776C162.135 30.3652 166.415 31.1776 166.415 31.1776C166.415 31.1776 165.601 27.0775 166.415 24.67Z" fill="#2D3915"/>
<path d="M99.0116 42.1644C99.048 39.6704 98.7335 36.8955 101.108 36.1312C103.482 35.3669 104.845 37.8042 106.33 39.8086C107.842 41.8509 108.324 46.0032 108.324 46.0032C108.324 46.0032 112.149 43.9183 114.81 43.9151C117.086 43.9124 119.443 43.3828 120.437 45.4296C121.454 47.5219 119.425 49.04 117.959 50.8466C116.258 52.944 112.232 54.7228 112.232 54.7228C112.232 54.7228 119.141 53.1025 123.294 54.303C126.272 55.164 129.113 55.2756 130.228 58.1682C131.418 61.2531 129.241 63.5316 127.067 66.0225C123.656 69.9292 114.426 70.0916 114.426 70.0916L119.546 85.9967L115.222 87.3888L110.102 71.4837C110.102 71.4837 102.51 76.7363 97.4614 75.5528C94.2421 74.7981 91.1445 74.2177 90.3114 71.0179C89.5302 68.0176 91.772 66.27 93.6888 63.8332C96.3615 60.4354 102.918 57.721 102.918 57.721C102.918 57.721 98.6106 58.6249 96.0051 57.9139C93.7608 57.3015 91.2269 57.2524 90.8323 54.9598C90.4463 52.7171 92.6692 51.7724 94.5192 50.4471C96.6825 48.8972 101.006 48.359 101.006 48.359C101.006 48.359 98.9745 44.7055 99.0116 42.1644Z" fill="#39AA44"/>
<path d="M144.397 55.3537C138.462 53.2686 147.895 42.5163 154.189 42.634C160.395 42.7501 169.44 53.2513 163.605 55.3537C161.531 56.101 157.956 55.3537 157.956 55.3537C157.956 55.3537 168.254 61.7776 165.111 65.4546C162.636 68.3503 155.319 65.4546 155.319 65.4546V74.4332H154.189H153.813H152.683V65.4546C152.683 65.4546 145.366 68.3503 142.891 65.4546C139.748 61.7776 150.047 55.3537 150.047 55.3537C150.047 55.3537 146.477 56.0844 144.397 55.3537Z" fill="#2D3915"/>
<path d="M124.894 59.757C119.757 57.9239 127.922 48.4713 133.371 48.5748C138.743 48.6768 146.573 57.9087 141.521 59.757C139.726 60.4139 136.631 59.757 136.631 59.757C136.631 59.757 145.546 65.4044 142.826 68.6369C140.683 71.1825 134.349 68.6369 134.349 68.6369V76.5302H133.371H133.045H132.067V68.6369C132.067 68.6369 125.733 71.1825 123.59 68.6369C120.87 65.4044 129.785 59.757 129.785 59.757C129.785 59.757 126.695 60.3993 124.894 59.757Z" fill="#2D3915"/>
<path d="M196.242 49.2735C197.098 47.8738 197.85 46.1975 199.451 46.5605C201.051 46.9236 201.006 48.7603 201.175 50.3926C201.347 52.0557 200.228 54.5679 200.228 54.5679C200.228 54.5679 203.093 54.6697 204.601 55.5597C205.891 56.3209 207.403 56.8109 207.28 58.3031C207.155 59.8284 205.497 60.0077 204.062 60.5393C202.395 61.1565 199.519 60.8142 199.519 60.8142C199.519 60.8142 203.974 62.2124 205.924 64.2839C207.322 65.7696 208.893 66.7847 208.555 68.7963C208.195 70.9416 206.199 71.5018 204.132 72.1832C200.892 73.2519 195.61 70.2504 195.61 70.2504L193.179 80.9708L190.263 80.3095L192.695 69.5891C192.695 69.5891 186.636 70.0185 184.173 67.6563C182.603 66.1501 181.043 64.7833 181.644 62.6925C182.207 60.7321 184.062 60.4941 185.965 59.757C188.617 58.7292 193.24 59.39 193.24 59.39C193.24 59.39 190.497 58.458 189.26 57.1822C188.195 56.0834 186.776 55.2063 187.321 53.7761C187.854 52.3771 189.43 52.5873 190.922 52.457C192.666 52.3046 195.295 53.4489 195.295 53.4489C195.295 53.4489 195.369 50.6997 196.242 49.2735Z" fill="#2D3915"/>
<path d="M166.118 50.1125C158.057 47.2254 170.869 32.3376 179.418 32.5006C187.846 32.6613 200.131 47.2014 192.206 50.1125C189.389 51.1471 184.533 50.1125 184.533 50.1125C184.533 50.1125 198.52 59.0071 194.252 64.0984C190.89 68.1078 180.952 64.0984 180.952 64.0984V76.5303H179.418H178.906H177.371V64.0984C177.371 64.0984 167.433 68.1078 164.072 64.0984C159.803 59.0071 173.791 50.1125 173.791 50.1125C173.791 50.1125 168.943 51.1242 166.118 50.1125Z" fill="url(#paint3_linear_1_786)"/>
<path d="M116.77 64.2699C116.77 64.2699 113.575 66.0274 111.368 65.9212C106.23 65.674 109.149 56.8005 113.685 52.6029C114.71 51.6548 115.817 50.9452 116.932 50.6275C122.902 48.9269 134.688 56.5464 129.736 60.3068C127.976 61.6433 124.334 61.9581 124.334 61.9581C124.334 61.9581 136.101 65.2261 134.194 69.7385C132.693 73.292 124.83 72.6007 124.83 72.6007L127.512 81.3759L126.432 81.7062L126.072 81.8162L124.991 82.1465L122.309 73.3713C122.309 73.3713 116.177 78.3403 112.945 76.2336C108.841 73.5586 116.77 64.2699 116.77 64.2699Z" fill="url(#paint4_linear_1_786)"/>
<path d="M136.364 27.1162C137.163 24.7534 137.713 22.0156 140.208 22.0156C142.702 22.0156 143.253 24.7534 144.052 27.1162C144.866 29.5238 144.052 33.6239 144.052 33.6239C144.052 33.6239 148.332 32.8115 150.866 33.6239C153.033 34.3186 155.438 34.5367 155.758 36.7898C156.085 39.093 153.688 39.9163 151.74 41.1869C149.477 42.6621 145.1 43.1216 145.1 43.1216C145.1 43.1216 152.173 43.6963 155.758 46.1116C158.33 47.8438 160.999 48.8204 161.175 51.9158C161.362 55.217 158.591 56.7187 155.758 58.4235C151.315 61.0972 142.479 58.4235 142.479 58.4235V75.1324H137.936V58.4235C137.936 58.4235 129.1 61.0972 124.657 58.4235C121.824 56.7187 119.053 55.217 119.24 51.9158C119.416 48.8204 122.086 47.8438 124.657 46.1116C128.242 43.6963 135.315 43.1216 135.315 43.1216C135.315 43.1216 130.938 42.6621 128.676 41.1869C126.727 39.9163 124.33 39.093 124.657 36.7898C124.977 34.5367 127.382 34.3186 129.549 33.6239C132.083 32.8115 136.364 33.6239 136.364 33.6239C136.364 33.6239 135.55 29.5238 136.364 27.1162Z" fill="#39AA44"/>
<path d="M161.262 48.5438C161.641 47.4245 161.903 46.1277 163.087 46.1277C164.271 46.1277 164.533 47.4245 164.912 48.5438C165.298 49.6842 164.912 51.6264 164.912 51.6264C164.912 51.6264 166.944 51.2415 168.147 51.6264C169.176 51.9554 170.318 52.0587 170.47 53.126C170.625 54.217 169.487 54.6069 168.562 55.2088C167.488 55.9076 165.41 56.1253 165.41 56.1253C165.41 56.1253 168.768 56.3975 170.47 57.5416C171.691 58.3621 172.958 58.8247 173.042 60.2909C173.131 61.8546 171.815 62.566 170.47 63.3735C168.36 64.64 164.165 63.3735 164.165 63.3735V71.2882H162.008V63.3735C162.008 63.3735 157.813 64.64 155.703 63.3735C154.358 62.566 153.043 61.8546 153.132 60.2909C153.215 58.8247 154.483 58.3621 155.703 57.5416C157.406 56.3975 160.764 56.1253 160.764 56.1253C160.764 56.1253 158.686 55.9076 157.612 55.2088C156.686 54.6069 155.548 54.217 155.703 53.126C155.855 52.0587 156.997 51.9554 158.026 51.6264C159.23 51.2415 161.262 51.6264 161.262 51.6264C161.262 51.6264 160.875 49.6842 161.262 48.5438Z" fill="#BFE470"/>
<path d="M115.029 218.948L110.017 216.083L110.042 221.857L115.029 218.948ZM210.205 89.8357L210.266 89.3394L210.205 89.8357ZM52.4025 190.596C47.1491 176.061 53.5532 158.741 68.4223 142.439C83.2738 126.156 106.481 111.001 134.53 100.863L134.19 99.9223C106.019 110.104 82.6648 125.34 67.6834 141.765C52.7197 158.171 46.0197 175.878 51.462 190.936L52.4025 190.596ZM110.535 218.468C95.8727 218.294 82.9268 215.757 72.8516 211.041C62.7792 206.326 55.6021 199.449 52.4025 190.596L51.462 190.936C54.7754 200.103 62.1856 207.153 72.4277 211.947C82.6669 216.74 95.7628 219.293 110.523 219.468L110.535 218.468ZM134.53 100.863C161.813 91.0013 188.611 87.7191 210.145 90.3321L210.266 89.3394C188.548 86.7042 161.592 90.0179 134.19 99.9223L134.53 100.863ZM210.145 90.3321C232.916 93.0952 249.653 102.421 255.049 117.352L255.99 117.012C250.399 101.544 233.17 92.1187 210.266 89.3394L210.145 90.3321ZM255.049 117.352C260.289 131.85 253.931 149.118 239.143 165.385L239.883 166.057C254.766 149.686 261.418 132.031 255.99 117.012L255.049 117.352Z" fill="#C590FB"/>
<path d="M264.614 173.114L264.787 173.583L264.614 173.114ZM262.863 104.628L268.416 103.048L267.009 108.647L262.863 104.628ZM70.7524 110.566C70.1174 110.735 69.4859 110.905 68.8578 111.076L68.5945 110.112C69.2246 109.94 69.8582 109.769 70.4952 109.599L70.7524 110.566ZM65.0971 112.129C63.8334 112.492 62.5847 112.86 61.3513 113.233L61.062 112.276C62.2998 111.902 63.553 111.532 64.8211 111.168L65.0971 112.129ZM57.6222 114.39C56.3679 114.79 55.1309 115.194 53.9116 115.604L53.5931 114.656C54.8175 114.245 56.0595 113.838 57.3187 113.437L57.6222 114.39ZM50.2221 116.878C48.9801 117.318 47.7582 117.764 46.5569 118.215L46.2054 117.279C47.4126 116.826 48.6402 116.378 49.8877 115.935L50.2221 116.878ZM42.92 119.621C41.6949 120.109 40.4935 120.602 39.3164 121.101L38.9265 120.18C40.1104 119.679 41.3185 119.183 42.5501 118.692L42.92 119.621ZM35.7387 122.665C34.5311 123.211 33.3523 123.762 32.2031 124.319L31.7672 123.419C32.9247 122.858 34.1116 122.303 35.327 121.754L35.7387 122.665ZM28.7226 126.068C27.5484 126.681 26.4098 127.299 25.3077 127.923L24.815 127.053C25.9275 126.423 27.0762 125.799 28.2599 125.182L28.7226 126.068ZM21.95 129.911C20.8203 130.611 19.7365 131.317 18.6997 132.029L18.1338 131.204C19.1842 130.483 20.2811 129.769 21.4232 129.061L21.95 129.911ZM15.5517 134.318C14.4944 135.134 13.4993 135.957 12.5681 136.785L11.9037 136.037C12.8534 135.193 13.8663 134.356 14.9404 133.526L15.5517 134.318ZM9.79132 139.468C8.86941 140.444 8.03727 141.424 7.2973 142.409L6.49794 141.808C7.26253 140.791 8.1193 139.782 9.06455 138.782L9.79132 139.468ZM5.21577 145.628C4.5836 146.795 4.0832 147.964 3.71769 149.135L2.76317 148.836C3.14961 147.599 3.67634 146.37 4.3365 145.151L5.21577 145.628ZM3.01409 152.851C2.97284 153.48 2.97152 154.111 3.01084 154.741L2.01277 154.803C1.97079 154.13 1.97222 153.457 2.01623 152.785L3.01409 152.851ZM3.01084 154.741C3.05147 155.393 3.13515 156.039 3.26106 156.679L2.27986 156.872C2.14553 156.189 2.05617 155.5 2.01277 154.803L3.01084 154.741ZM4.48506 160.382C5.02166 161.529 5.69984 162.657 6.51594 163.765L5.71076 164.358C4.85936 163.202 4.14631 162.018 3.57931 160.806L4.48506 160.382ZM9.09713 166.753C9.9928 167.652 10.9829 168.536 12.0647 169.402L11.4396 170.182C10.3314 169.295 9.31304 168.387 8.38851 167.458L9.09713 166.753ZM15.2981 171.76C16.3714 172.477 17.5099 173.179 18.7117 173.868L18.2147 174.736C16.9946 174.037 15.8365 173.322 14.7428 172.592L15.2981 171.76ZM22.2507 175.762C23.4137 176.345 24.6242 176.917 25.8808 177.476L25.4743 178.389C24.2045 177.824 22.9801 177.247 21.8026 176.656L22.2507 175.762ZM29.5808 179.034C30.797 179.519 32.0497 179.994 33.3379 180.458L32.9989 181.398C31.7006 180.931 30.4374 180.452 29.2103 179.963L29.5808 179.034ZM37.1437 181.764C38.3977 182.174 39.6811 182.575 40.9931 182.966L40.7073 183.925C39.3872 183.531 38.0954 183.128 36.8328 182.715L37.1437 181.764ZM44.8824 184.076C46.1551 184.422 47.4518 184.761 48.7719 185.091L48.5295 186.061C47.2028 185.729 45.8991 185.389 44.6194 185.04L44.8824 184.076ZM52.6818 186.026C53.9761 186.323 55.2908 186.611 56.6252 186.892L56.4196 187.87C55.0794 187.589 53.7588 187.299 52.4585 187.001L52.6818 186.026ZM60.5935 187.691C61.8921 187.941 63.2078 188.183 64.5401 188.419L64.3663 189.403C63.0289 189.167 61.7081 188.924 60.4044 188.672L60.5935 187.691ZM68.5191 189.091C69.8382 189.304 71.1724 189.509 72.5212 189.708L72.3756 190.697C71.0223 190.498 69.6835 190.292 68.3598 190.078L68.5191 189.091ZM76.4975 190.266C77.8207 190.443 79.157 190.614 80.5059 190.777L80.3857 191.77C79.0327 191.606 77.6923 191.435 76.3649 191.257L76.4975 190.266ZM84.5169 191.238C85.8404 191.382 87.1752 191.52 88.5211 191.651L88.4242 192.646C87.0746 192.515 85.7359 192.377 84.4086 192.232L84.5169 191.238ZM92.5562 192.021C93.8817 192.135 95.2173 192.243 96.5625 192.345L96.4872 193.342C95.1385 193.24 93.7994 193.132 92.4703 193.017L92.5562 192.021ZM100.593 192.628C101.927 192.715 103.27 192.796 104.621 192.87L104.566 193.869C103.212 193.794 101.865 193.713 100.528 193.626L100.593 192.628ZM108.648 193.072C109.987 193.133 111.335 193.188 112.69 193.236L112.655 194.236C111.296 194.187 109.945 194.132 108.602 194.071L108.648 193.072ZM116.713 193.362C118.056 193.397 119.406 193.427 120.763 193.451L120.746 194.451C119.386 194.427 118.032 194.397 116.686 194.361L116.713 193.362ZM124.784 193.503C126.126 193.515 127.475 193.52 128.83 193.52L128.83 194.52C127.472 194.52 126.12 194.515 124.775 194.503L124.784 193.503ZM132.857 193.502C134.199 193.49 135.546 193.473 136.899 193.45L136.916 194.449C135.56 194.473 134.21 194.49 132.866 194.502L132.857 193.502ZM140.929 193.363C142.27 193.329 143.616 193.289 144.967 193.243L145.001 194.242C143.647 194.288 142.299 194.328 140.955 194.363L140.929 193.363ZM148.998 193.09C150.338 193.033 151.683 192.971 153.031 192.904L153.082 193.902C151.73 193.97 150.383 194.032 149.04 194.089L148.998 193.09ZM157.061 192.685C157.735 192.646 158.409 192.605 159.085 192.563L159.147 193.561C158.47 193.603 157.794 193.644 157.119 193.683L157.061 192.685ZM159.085 192.563C159.775 192.52 160.465 192.475 161.153 192.43L161.219 193.427C160.53 193.473 159.839 193.518 159.147 193.561L159.085 192.563ZM165.281 192.138C166.662 192.035 168.037 191.926 169.407 191.812L169.49 192.809C168.117 192.923 166.739 193.032 165.356 193.135L165.281 192.138ZM173.53 191.452C174.909 191.326 176.282 191.194 177.649 191.057L177.749 192.052C176.379 192.189 175.003 192.321 173.621 192.448L173.53 191.452ZM181.764 190.627C183.142 190.477 184.513 190.322 185.877 190.161L185.994 191.154C184.627 191.315 183.253 191.471 181.872 191.621L181.764 190.627ZM189.987 189.659C191.362 189.485 192.73 189.305 194.091 189.12L194.226 190.111C192.862 190.296 191.491 190.476 190.112 190.651L189.987 189.659ZM198.19 188.544C199.562 188.345 200.926 188.141 202.282 187.931L202.435 188.919C201.076 189.129 199.708 189.334 198.333 189.534L198.19 188.544ZM206.367 187.279C207.735 187.054 209.095 186.823 210.445 186.587L210.617 187.572C209.264 187.809 207.901 188.04 206.529 188.265L206.367 187.279ZM214.52 185.855C215.886 185.602 217.241 185.344 218.587 185.081L218.779 186.062C217.43 186.326 216.071 186.585 214.702 186.838L214.52 185.855ZM222.642 184.264C224.002 183.983 225.35 183.696 226.687 183.404L226.9 184.381C225.56 184.674 224.208 184.961 222.845 185.243L222.642 184.264ZM230.725 182.498C232.081 182.185 233.423 181.867 234.753 181.544L234.989 182.515C233.656 182.84 232.309 183.159 230.95 183.472L230.725 182.498ZM238.765 180.541C240.112 180.196 241.445 179.844 242.764 179.488L243.025 180.453C241.702 180.811 240.365 181.163 239.013 181.51L238.765 180.541ZM246.751 178.379C248.09 177.997 249.412 177.609 250.717 177.216L251.005 178.173C249.696 178.568 248.369 178.957 247.026 179.341L246.751 178.379ZM254.669 175.991C255.998 175.567 257.308 175.138 258.598 174.703L258.917 175.651C257.622 176.087 256.307 176.518 254.973 176.943L254.669 175.991ZM262.503 173.348C263.155 173.115 263.801 172.88 264.442 172.645L264.787 173.583C264.144 173.82 263.494 174.055 262.84 174.289L262.503 173.348ZM264.442 172.645C265.052 172.42 265.657 172.194 266.257 171.967L266.612 172.902C266.009 173.13 265.4 173.357 264.787 173.583L264.442 172.645ZM269.853 170.564C271.068 170.076 272.26 169.583 273.427 169.085L273.82 170.004C272.646 170.506 271.448 171.002 270.226 171.492L269.853 170.564ZM276.954 167.53C278.149 166.985 279.315 166.435 280.452 165.88L280.891 166.779C279.745 167.338 278.571 167.892 277.368 168.44L276.954 167.53ZM283.89 164.138C285.054 163.526 286.182 162.909 287.274 162.285L287.77 163.154C286.667 163.783 285.529 164.406 284.356 165.024L283.89 164.138ZM290.585 160.309C291.704 159.611 292.777 158.906 293.803 158.196L294.372 159.018C293.332 159.738 292.246 160.451 291.115 161.158L290.585 160.309ZM296.903 155.923C297.948 155.109 298.932 154.29 299.852 153.465L300.519 154.21C299.581 155.051 298.58 155.885 297.518 156.712L296.903 155.923ZM302.593 150.792C303.499 149.825 304.317 148.852 305.044 147.876L305.846 148.473C305.095 149.483 304.252 150.484 303.323 151.476L302.593 150.792ZM307.094 144.676C307.714 143.52 308.204 142.361 308.562 141.202L309.517 141.497C309.139 142.723 308.623 143.941 307.975 145.148L307.094 144.676ZM309.25 137.521C309.29 136.897 309.291 136.273 309.252 135.648L310.25 135.586C310.292 136.253 310.291 136.919 310.248 137.585L309.25 137.521ZM309.252 135.648C309.21 134.965 309.12 134.288 308.983 133.617L309.963 133.418C310.109 134.134 310.205 134.856 310.25 135.586L309.252 135.648ZM307.65 129.739C307.07 128.551 306.337 127.384 305.457 126.239L306.25 125.629C307.167 126.822 307.936 128.046 308.548 129.3L307.65 129.739ZM302.669 123.149C301.709 122.226 300.649 121.321 299.492 120.434L300.1 119.641C301.284 120.548 302.372 121.477 303.362 122.428L302.669 123.149ZM296.051 118.033C294.912 117.305 293.705 116.593 292.433 115.895L292.913 115.018C294.204 115.726 295.43 116.449 296.589 117.19L296.051 118.033ZM288.684 113.976C287.452 113.386 286.17 112.808 284.84 112.244L285.231 111.323C286.574 111.894 287.87 112.477 289.116 113.075L288.684 113.976ZM280.924 110.672C279.637 110.183 278.312 109.705 276.95 109.238L277.274 108.292C278.646 108.762 279.982 109.244 281.279 109.737L280.924 110.672ZM272.93 107.928C271.611 107.519 270.262 107.12 268.883 106.731L269.154 105.768C270.541 106.16 271.899 106.561 273.227 106.973L272.93 107.928ZM264.614 173.114L264.787 173.583L264.614 173.114ZM262.863 104.628L268.416 103.048L267.009 108.647L262.863 104.628ZM70.7524 110.566C70.1174 110.735 69.4859 110.905 68.8578 111.076L68.5945 110.112C69.2246 109.94 69.8582 109.769 70.4952 109.599L70.7524 110.566ZM65.0971 112.129C63.8334 112.492 62.5847 112.86 61.3513 113.233L61.062 112.276C62.2998 111.902 63.553 111.532 64.8211 111.168L65.0971 112.129ZM57.6222 114.39C56.3679 114.79 55.1309 115.194 53.9116 115.604L53.5931 114.656C54.8175 114.245 56.0595 113.838 57.3187 113.437L57.6222 114.39ZM50.2221 116.878C48.9801 117.318 47.7582 117.764 46.5569 118.215L46.2054 117.279C47.4126 116.826 48.6402 116.378 49.8877 115.935L50.2221 116.878ZM42.92 119.621C41.6949 120.109 40.4935 120.602 39.3164 121.101L38.9265 120.18C40.1104 119.679 41.3185 119.183 42.5501 118.692L42.92 119.621ZM35.7387 122.665C34.5311 123.211 33.3523 123.762 32.2031 124.319L31.7672 123.419C32.9247 122.858 34.1116 122.303 35.327 121.754L35.7387 122.665ZM28.7226 126.068C27.5484 126.681 26.4098 127.299 25.3077 127.923L24.815 127.053C25.9275 126.423 27.0762 125.799 28.2599 125.182L28.7226 126.068ZM21.95 129.911C20.8203 130.611 19.7365 131.317 18.6997 132.029L18.1338 131.204C19.1842 130.483 20.2811 129.769 21.4232 129.061L21.95 129.911ZM15.5517 134.318C14.4944 135.134 13.4993 135.957 12.5681 136.785L11.9037 136.037C12.8534 135.193 13.8663 134.356 14.9404 133.526L15.5517 134.318ZM9.79132 139.468C8.86941 140.444 8.03727 141.424 7.2973 142.409L6.49794 141.808C7.26253 140.791 8.1193 139.782 9.06455 138.782L9.79132 139.468ZM5.21577 145.628C4.5836 146.795 4.0832 147.964 3.71769 149.135L2.76317 148.836C3.14961 147.599 3.67634 146.37 4.3365 145.151L5.21577 145.628ZM3.01409 152.851C2.97284 153.48 2.97152 154.111 3.01084 154.741L2.01277 154.803C1.97079 154.13 1.97222 153.457 2.01623 152.785L3.01409 152.851ZM3.01084 154.741C3.05147 155.393 3.13515 156.039 3.26106 156.679L2.27986 156.872C2.14553 156.189 2.05617 155.5 2.01277 154.803L3.01084 154.741ZM4.48506 160.382C5.02166 161.529 5.69984 162.657 6.51594 163.765L5.71076 164.358C4.85936 163.202 4.14631 162.018 3.57931 160.806L4.48506 160.382ZM9.09713 166.753C9.9928 167.652 10.9829 168.536 12.0647 169.402L11.4396 170.182C10.3314 169.295 9.31304 168.387 8.38851 167.458L9.09713 166.753ZM15.2981 171.76C16.3714 172.477 17.5099 173.179 18.7117 173.868L18.2147 174.736C16.9946 174.037 15.8365 173.322 14.7428 172.592L15.2981 171.76ZM22.2507 175.762C23.4137 176.345 24.6242 176.917 25.8808 177.476L25.4743 178.389C24.2045 177.824 22.9801 177.247 21.8026 176.656L22.2507 175.762ZM29.5808 179.034C30.797 179.519 32.0497 179.994 33.3379 180.458L32.9989 181.398C31.7006 180.931 30.4374 180.452 29.2103 179.963L29.5808 179.034ZM37.1437 181.764C38.3977 182.174 39.6811 182.575 40.9931 182.966L40.7073 183.925C39.3872 183.531 38.0954 183.128 36.8328 182.715L37.1437 181.764ZM44.8824 184.076C46.1551 184.422 47.4518 184.761 48.7719 185.091L48.5295 186.061C47.2028 185.729 45.8991 185.389 44.6194 185.04L44.8824 184.076ZM52.6818 186.026C53.9761 186.323 55.2908 186.611 56.6252 186.892L56.4196 187.87C55.0794 187.589 53.7588 187.299 52.4585 187.001L52.6818 186.026ZM60.5935 187.691C61.8921 187.941 63.2078 188.183 64.5401 188.419L64.3663 189.403C63.0289 189.167 61.7081 188.924 60.4044 188.672L60.5935 187.691ZM68.5191 189.091C69.8382 189.304 71.1724 189.509 72.5212 189.708L72.3756 190.697C71.0223 190.498 69.6835 190.292 68.3598 190.078L68.5191 189.091ZM76.4975 190.266C77.8207 190.443 79.157 190.614 80.5059 190.777L80.3857 191.77C79.0327 191.606 77.6923 191.435 76.3649 191.257L76.4975 190.266ZM84.5169 191.238C85.8404 191.382 87.1752 191.52 88.5211 191.651L88.4242 192.646C87.0746 192.515 85.7359 192.377 84.4086 192.232L84.5169 191.238ZM92.5562 192.021C93.8817 192.135 95.2173 192.243 96.5625 192.345L96.4872 193.342C95.1385 193.24 93.7994 193.132 92.4703 193.017L92.5562 192.021ZM100.593 192.628C101.927 192.715 103.27 192.796 104.621 192.87L104.566 193.869C103.212 193.794 101.865 193.713 100.528 193.626L100.593 192.628ZM108.648 193.072C109.987 193.133 111.335 193.188 112.69 193.236L112.655 194.236C111.296 194.187 109.945 194.132 108.602 194.071L108.648 193.072ZM116.713 193.362C118.056 193.397 119.406 193.427 120.763 193.451L120.746 194.451C119.386 194.427 118.032 194.397 116.686 194.361L116.713 193.362ZM124.784 193.503C126.126 193.515 127.475 193.52 128.83 193.52L128.83 194.52C127.472 194.52 126.12 194.515 124.775 194.503L124.784 193.503ZM132.857 193.502C134.199 193.49 135.546 193.473 136.899 193.45L136.916 194.449C135.56 194.473 134.21 194.49 132.866 194.502L132.857 193.502ZM140.929 193.363C142.27 193.329 143.616 193.289 144.967 193.243L145.001 194.242C143.647 194.288 142.299 194.328 140.955 194.363L140.929 193.363ZM148.998 193.09C150.338 193.033 151.683 192.971 153.031 192.904L153.082 193.902C151.73 193.97 150.383 194.032 149.04 194.089L148.998 193.09ZM157.061 192.685C157.735 192.646 158.409 192.605 159.085 192.563L159.147 193.561C158.47 193.603 157.794 193.644 157.119 193.683L157.061 192.685ZM159.085 192.563C159.775 192.52 160.465 192.475 161.153 192.43L161.219 193.427C160.53 193.473 159.839 193.518 159.147 193.561L159.085 192.563ZM165.281 192.138C166.662 192.035 168.037 191.926 169.407 191.812L169.49 192.809C168.117 192.923 166.739 193.032 165.356 193.135L165.281 192.138ZM173.53 191.452C174.909 191.326 176.282 191.194 177.649 191.057L177.749 192.052C176.379 192.189 175.003 192.321 173.621 192.448L173.53 191.452ZM181.764 190.627C183.142 190.477 184.513 190.322 185.877 190.161L185.994 191.154C184.627 191.315 183.253 191.471 181.872 191.621L181.764 190.627ZM189.987 189.659C191.362 189.485 192.73 189.305 194.091 189.12L194.226 190.111C192.862 190.296 191.491 190.476 190.112 190.651L189.987 189.659ZM198.19 188.544C199.562 188.345 200.926 188.141 202.282 187.931L202.435 188.919C201.076 189.129 199.708 189.334 198.333 189.534L198.19 188.544ZM206.367 187.279C207.735 187.054 209.095 186.823 210.445 186.587L210.617 187.572C209.264 187.809 207.901 188.04 206.529 188.265L206.367 187.279ZM214.52 185.855C215.886 185.602 217.241 185.344 218.587 185.081L218.779 186.062C217.43 186.326 216.071 186.585 214.702 186.838L214.52 185.855ZM222.642 184.264C224.002 183.983 225.35 183.696 226.687 183.404L226.9 184.381C225.56 184.674 224.208 184.961 222.845 185.243L222.642 184.264ZM230.725 182.498C232.081 182.185 233.423 181.867 234.753 181.544L234.989 182.515C233.656 182.84 232.309 183.159 230.95 183.472L230.725 182.498ZM238.765 180.541C240.112 180.196 241.445 179.844 242.764 179.488L243.025 180.453C241.702 180.811 240.365 181.163 239.013 181.51L238.765 180.541ZM246.751 178.379C248.09 177.997 249.412 177.609 250.717 177.216L251.005 178.173C249.696 178.568 248.369 178.957 247.026 179.341L246.751 178.379ZM254.669 175.991C255.998 175.567 257.308 175.138 258.598 174.703L258.917 175.651C257.622 176.087 256.307 176.518 254.973 176.943L254.669 175.991ZM262.503 173.348C263.155 173.115 263.801 172.88 264.442 172.645L264.787 173.583C264.144 173.82 263.494 174.055 262.84 174.289L262.503 173.348ZM264.442 172.645C265.052 172.42 265.657 172.194 266.257 171.967L266.612 172.902C266.009 173.13 265.4 173.357 264.787 173.583L264.442 172.645ZM269.853 170.564C271.068 170.076 272.26 169.583 273.427 169.085L273.82 170.004C272.646 170.506 271.448 171.002 270.226 171.492L269.853 170.564ZM276.954 167.53C278.149 166.985 279.315 166.435 280.452 165.88L280.891 166.779C279.745 167.338 278.571 167.892 277.368 168.44L276.954 167.53ZM283.89 164.138C285.054 163.526 286.182 162.909 287.274 162.285L287.77 163.154C286.667 163.783 285.529 164.406 284.356 165.024L283.89 164.138ZM290.585 160.309C291.704 159.611 292.777 158.906 293.803 158.196L294.372 159.018C293.332 159.738 292.246 160.451 291.115 161.158L290.585 160.309ZM296.903 155.923C297.948 155.109 298.932 154.29 299.852 153.465L300.519 154.21C299.581 155.051 298.58 155.885 297.518 156.712L296.903 155.923ZM302.593 150.792C303.499 149.825 304.317 148.852 305.044 147.876L305.846 148.473C305.095 149.483 304.252 150.484 303.323 151.476L302.593 150.792ZM307.094 144.676C307.714 143.52 308.204 142.361 308.562 141.202L309.517 141.497C309.139 142.723 308.623 143.941 307.975 145.148L307.094 144.676ZM309.25 137.521C309.29 136.897 309.291 136.273 309.252 135.648L310.25 135.586C310.292 136.253 310.291 136.919 310.248 137.585L309.25 137.521ZM309.252 135.648C309.21 134.965 309.12 134.288 308.983 133.617L309.963 133.418C310.109 134.134 310.205 134.856 310.25 135.586L309.252 135.648ZM307.65 129.739C307.07 128.551 306.337 127.384 305.457 126.239L306.25 125.629C307.167 126.822 307.936 128.046 308.548 129.3L307.65 129.739ZM302.669 123.149C301.709 122.226 300.649 121.321 299.492 120.434L300.1 119.641C301.284 120.548 302.372 121.477 303.362 122.428L302.669 123.149ZM296.051 118.033C294.912 117.305 293.705 116.593 292.433 115.895L292.913 115.018C294.204 115.726 295.43 116.449 296.589 117.19L296.051 118.033ZM288.684 113.976C287.452 113.386 286.17 112.808 284.84 112.244L285.231 111.323C286.574 111.894 287.87 112.477 289.116 113.075L288.684 113.976ZM280.924 110.672C279.637 110.183 278.312 109.705 276.95 109.238L277.274 108.292C278.646 108.762 279.982 109.244 281.279 109.737L280.924 110.672ZM272.93 107.928C271.611 107.519 270.262 107.12 268.883 106.731L269.154 105.768C270.541 106.16 271.899 106.561 273.227 106.973L272.93 107.928Z" fill="#C590FB"/>
<path d="M239.499 198.776L239.008 198.868L239.499 198.776ZM194.569 222.599L195.727 228.256L200.046 224.425L194.569 222.599ZM121.954 81.0227C121.782 80.3995 121.614 79.7791 121.448 79.1617L120.482 79.4206C120.648 80.0403 120.817 80.6629 120.99 81.2883L121.954 81.0227ZM120.48 75.4462C120.163 74.1908 119.859 72.9486 119.568 71.7202L118.595 71.9503C118.887 73.1838 119.192 74.431 119.511 75.6913L120.48 75.4462ZM118.715 67.9725C118.437 66.7023 118.174 65.4483 117.926 64.2114L116.946 64.4075C117.194 65.6506 117.458 66.9105 117.738 68.1863L118.715 67.9725ZM117.21 60.4428C116.98 59.1618 116.768 57.901 116.573 56.6613L115.585 56.8164C115.781 58.0636 115.995 59.3316 116.226 60.6195L117.21 60.4428ZM116.024 52.8593C115.853 51.5671 115.704 50.3007 115.576 49.0611L114.581 49.1639C114.71 50.4132 114.861 51.6889 115.032 52.9899L116.024 52.8593ZM115.242 45.2337C115.149 43.9254 115.083 42.6518 115.044 41.4142L114.044 41.4462C114.084 42.6974 114.151 43.9838 114.244 45.304L115.242 45.2337ZM115.007 37.5914C115.026 36.268 115.08 34.9941 115.168 33.7719L114.171 33.6995C114.081 34.9426 114.026 36.2358 114.007 37.577L115.007 37.5914ZM115.58 29.9846C115.777 28.6667 116.022 27.4266 116.318 26.2674L115.349 26.0202C115.044 27.216 114.792 28.4898 114.591 29.8374L115.58 29.9846ZM117.502 22.6784C118.018 21.447 118.613 20.3546 119.286 19.4058L118.471 18.8271C117.749 19.8442 117.12 21.0028 116.58 22.2918L117.502 22.6784ZM121.838 16.7659C122.332 16.4024 122.854 16.0885 123.404 15.8251L122.972 14.9232C122.365 15.214 121.79 15.5603 121.246 15.9602L121.838 16.7659ZM123.404 15.8251C123.986 15.5465 124.593 15.3277 125.223 15.1676L124.977 14.1984C124.284 14.3744 123.615 14.6155 122.972 14.9232L123.404 15.8251ZM129.095 14.8847C130.321 14.9872 131.616 15.2542 132.973 15.6831L133.274 14.7295C131.857 14.2818 130.49 13.9977 129.179 13.8882L129.095 14.8847ZM136.668 17.1733C137.81 17.7265 138.986 18.3756 140.192 19.1179L140.716 18.2662C139.485 17.5084 138.279 16.8428 137.103 16.2733L136.668 17.1733ZM143.535 21.3565C144.588 22.1157 145.659 22.9377 146.747 23.821L147.377 23.0445C146.275 22.1503 145.189 21.3167 144.12 20.5456L143.535 21.3565ZM149.836 26.4511C150.818 27.3247 151.812 28.2438 152.816 29.2074L153.508 28.4859C152.496 27.5142 151.493 26.5864 150.501 25.704L149.836 26.4511ZM155.697 32.0639C156.621 33.0087 157.553 33.9886 158.491 35.0028L159.225 34.3235C158.281 33.303 157.343 32.3164 156.412 31.3647L155.697 32.0639ZM161.209 38.0121C162.086 39.0077 162.969 40.0317 163.857 41.0833L164.621 40.4383C163.729 39.3814 162.841 38.352 161.959 37.3508L161.209 38.0121ZM166.443 44.2102C167.283 45.2461 168.127 46.3057 168.974 47.3883L169.761 46.7723C168.911 45.6852 168.064 44.621 167.22 43.5803L166.443 44.2102ZM171.453 50.6138C172.261 51.6837 173.072 52.7739 173.884 53.8837L174.691 53.2931C173.876 52.1793 173.062 51.085 172.25 50.0109L171.453 50.6138ZM176.258 57.1765C177.032 58.2673 177.808 59.3753 178.585 60.5002L179.408 59.9322C178.629 58.8037 177.85 57.692 177.073 56.5975L176.258 57.1765ZM180.873 63.8621C181.623 64.9798 182.374 66.1127 183.125 67.2606L183.962 66.7133C183.209 65.5621 182.456 64.4258 181.703 63.3047L180.873 63.8621ZM185.326 70.671C186.048 71.8033 186.769 72.9489 187.49 74.1076L188.339 73.5795C187.617 72.4177 186.893 71.2689 186.17 70.1335L185.326 70.671ZM189.622 77.5777C190.321 78.729 191.019 79.8923 191.715 81.0672L192.576 80.5573C191.877 79.3794 191.178 78.2131 190.477 77.0588L189.622 77.5777ZM193.767 84.5691C194.443 85.7362 195.118 86.914 195.791 88.1023L196.661 87.6097C195.987 86.4185 195.31 85.2378 194.633 84.0678L193.767 84.5691ZM197.779 91.6539C198.43 92.8315 199.08 94.0188 199.728 95.2153L200.607 94.7394C199.958 93.54 199.307 92.35 198.654 91.1696L197.779 91.6539ZM201.65 98.8061C202.281 99.9984 202.91 101.199 203.536 102.409L204.424 101.949C203.796 100.737 203.166 99.5333 202.534 98.3383L201.65 98.8061ZM205.387 106.026C205.998 107.233 206.607 108.447 207.212 109.67L208.108 109.226C207.502 108.001 206.892 106.784 206.28 105.574L205.387 106.026ZM208.998 113.317C209.294 113.929 209.59 114.542 209.884 115.157L210.786 114.725C210.491 114.109 210.195 113.494 209.898 112.881L208.998 113.317ZM209.884 115.157C210.176 115.766 210.466 116.375 210.754 116.983L211.658 116.555C211.369 115.946 211.078 115.336 210.786 114.725L209.884 115.157ZM212.467 120.642C213.035 121.869 213.595 123.095 214.148 124.317L215.059 123.905C214.505 122.68 213.944 121.452 213.374 120.222L212.467 120.642ZM215.797 128.007C216.344 129.245 216.882 130.48 217.412 131.711L218.331 131.315C217.799 130.081 217.26 128.844 216.712 127.603L215.797 128.007ZM218.993 135.428C219.517 136.677 220.033 137.922 220.541 139.163L221.466 138.785C220.958 137.541 220.441 136.293 219.915 135.041L218.993 135.428ZM222.051 142.91C222.552 144.168 223.044 145.422 223.526 146.67L224.459 146.31C223.975 145.059 223.483 143.802 222.981 142.54L222.051 142.91ZM224.964 150.448C225.44 151.717 225.906 152.98 226.362 154.236L227.302 153.895C226.845 152.636 226.378 151.369 225.901 150.097L224.964 150.448ZM227.722 158.043C228.172 159.323 228.611 160.596 229.039 161.861L229.986 161.541C229.557 160.272 229.116 158.995 228.666 157.712L227.722 158.043ZM230.313 165.695C230.735 166.987 231.144 168.27 231.543 169.543L232.497 169.245C232.098 167.967 231.687 166.681 231.264 165.385L230.313 165.695ZM232.724 173.405C233.113 174.709 233.491 176.001 233.855 177.282L234.817 177.009C234.451 175.723 234.073 174.426 233.682 173.119L232.724 173.405ZM234.933 181.175C235.287 182.49 235.627 183.791 235.953 185.078L236.922 184.833C236.595 183.54 236.254 182.234 235.899 180.915L234.933 181.175ZM236.914 189.004C237.227 190.332 237.525 191.645 237.807 192.94L238.784 192.727C238.501 191.426 238.202 190.108 237.887 188.774L236.914 189.004ZM238.627 196.889C238.759 197.554 238.885 198.213 239.008 198.868L239.991 198.684C239.868 198.026 239.74 197.363 239.608 196.695L238.627 196.889ZM239.008 198.868C239.135 199.548 239.257 200.223 239.375 200.892L240.36 200.719C240.242 200.046 240.119 199.368 239.991 198.684L239.008 198.868ZM240.037 204.949C240.246 206.333 240.432 207.69 240.595 209.019L241.588 208.897C241.423 207.559 241.236 206.193 241.026 204.8L240.037 204.949ZM241.033 213.1C241.16 214.5 241.259 215.864 241.33 217.19L242.328 217.137C242.257 215.798 242.157 214.421 242.029 213.009L241.033 213.1ZM241.458 221.281C241.47 222.7 241.444 224.066 241.381 225.377L242.38 225.425C242.444 224.094 242.47 222.709 242.458 221.273L241.458 221.281ZM241.042 229.442C240.869 230.864 240.641 232.203 240.36 233.455L241.335 233.675C241.625 232.386 241.858 231.014 242.035 229.563L241.042 229.442ZM239.208 237.328C238.692 238.674 238.088 239.867 237.397 240.9L238.229 241.456C238.967 240.351 239.603 239.09 240.142 237.687L239.208 237.328ZM234.726 243.787C234.201 244.184 233.644 244.523 233.056 244.805L233.488 245.707C234.138 245.396 234.752 245.021 235.329 244.585L234.726 243.787ZM233.056 244.805C232.493 245.075 231.906 245.289 231.298 245.447L231.55 246.415C232.219 246.241 232.866 246.005 233.488 245.707L233.056 244.805ZM227.551 245.76C226.363 245.677 225.109 245.436 223.795 245.042L223.508 246C224.882 246.412 226.208 246.668 227.481 246.758L227.551 245.76ZM220.192 243.647C219.08 243.127 217.936 242.515 216.761 241.812L216.248 242.67C217.448 243.388 218.622 244.017 219.768 244.553L220.192 243.647ZM213.498 239.683C212.471 238.96 211.426 238.176 210.364 237.332L209.742 238.116C210.818 238.97 211.879 239.765 212.922 240.5L213.498 239.683ZM207.359 234.827C206.402 233.993 205.434 233.115 204.455 232.193L203.769 232.922C204.757 233.851 205.735 234.738 206.702 235.581L207.359 234.827ZM201.642 229.457C200.739 228.55 199.828 227.61 198.91 226.636L198.182 227.321C199.106 228.302 200.023 229.249 200.933 230.163L201.642 229.457ZM239.499 198.776L239.008 198.868L239.499 198.776ZM194.569 222.599L195.727 228.256L200.046 224.425L194.569 222.599ZM121.954 81.0227C121.782 80.3995 121.614 79.7791 121.448 79.1617L120.482 79.4206C120.648 80.0403 120.817 80.6629 120.99 81.2883L121.954 81.0227ZM120.48 75.4462C120.163 74.1908 119.859 72.9486 119.568 71.7202L118.595 71.9503C118.887 73.1838 119.192 74.431 119.511 75.6913L120.48 75.4462ZM118.715 67.9725C118.437 66.7023 118.174 65.4483 117.926 64.2114L116.946 64.4075C117.194 65.6506 117.458 66.9105 117.738 68.1863L118.715 67.9725ZM117.21 60.4428C116.98 59.1618 116.768 57.901 116.573 56.6613L115.585 56.8164C115.781 58.0636 115.995 59.3316 116.226 60.6195L117.21 60.4428ZM116.024 52.8593C115.853 51.5671 115.704 50.3007 115.576 49.0611L114.581 49.1639C114.71 50.4132 114.861 51.6889 115.032 52.9899L116.024 52.8593ZM115.242 45.2337C115.149 43.9254 115.083 42.6518 115.044 41.4142L114.044 41.4462C114.084 42.6974 114.151 43.9838 114.244 45.304L115.242 45.2337ZM115.007 37.5914C115.026 36.268 115.08 34.9941 115.168 33.7719L114.171 33.6995C114.081 34.9426 114.026 36.2358 114.007 37.577L115.007 37.5914ZM115.58 29.9846C115.777 28.6667 116.022 27.4266 116.318 26.2674L115.349 26.0202C115.044 27.216 114.792 28.4898 114.591 29.8374L115.58 29.9846ZM117.502 22.6784C118.018 21.447 118.613 20.3546 119.286 19.4058L118.471 18.8271C117.749 19.8442 117.12 21.0028 116.58 22.2918L117.502 22.6784ZM121.838 16.7659C122.332 16.4024 122.854 16.0885 123.404 15.8251L122.972 14.9232C122.365 15.214 121.79 15.5603 121.246 15.9602L121.838 16.7659ZM123.404 15.8251C123.986 15.5465 124.593 15.3277 125.223 15.1676L124.977 14.1984C124.284 14.3744 123.615 14.6155 122.972 14.9232L123.404 15.8251ZM129.095 14.8847C130.321 14.9872 131.616 15.2542 132.973 15.6831L133.274 14.7295C131.857 14.2818 130.49 13.9977 129.179 13.8882L129.095 14.8847ZM136.668 17.1733C137.81 17.7265 138.986 18.3756 140.192 19.1179L140.716 18.2662C139.485 17.5084 138.279 16.8428 137.103 16.2733L136.668 17.1733ZM143.535 21.3565C144.588 22.1157 145.659 22.9377 146.747 23.821L147.377 23.0445C146.275 22.1503 145.189 21.3167 144.12 20.5456L143.535 21.3565ZM149.836 26.4511C150.818 27.3247 151.812 28.2438 152.816 29.2074L153.508 28.4859C152.496 27.5142 151.493 26.5864 150.501 25.704L149.836 26.4511ZM155.697 32.0639C156.621 33.0087 157.553 33.9886 158.491 35.0028L159.225 34.3235C158.281 33.303 157.343 32.3164 156.412 31.3647L155.697 32.0639ZM161.209 38.0121C162.086 39.0077 162.969 40.0317 163.857 41.0833L164.621 40.4383C163.729 39.3814 162.841 38.352 161.959 37.3508L161.209 38.0121ZM166.443 44.2102C167.283 45.2461 168.127 46.3057 168.974 47.3883L169.761 46.7723C168.911 45.6852 168.064 44.621 167.22 43.5803L166.443 44.2102ZM171.453 50.6138C172.261 51.6837 173.072 52.7739 173.884 53.8837L174.691 53.2931C173.876 52.1793 173.062 51.085 172.25 50.0109L171.453 50.6138ZM176.258 57.1765C177.032 58.2673 177.808 59.3753 178.585 60.5002L179.408 59.9322C178.629 58.8037 177.85 57.692 177.073 56.5975L176.258 57.1765ZM180.873 63.8621C181.623 64.9798 182.374 66.1127 183.125 67.2606L183.962 66.7133C183.209 65.5621 182.456 64.4258 181.703 63.3047L180.873 63.8621ZM185.326 70.671C186.048 71.8033 186.769 72.9489 187.49 74.1076L188.339 73.5795C187.617 72.4177 186.893 71.2689 186.17 70.1335L185.326 70.671ZM189.622 77.5777C190.321 78.729 191.019 79.8923 191.715 81.0672L192.576 80.5573C191.877 79.3794 191.178 78.2131 190.477 77.0588L189.622 77.5777ZM193.767 84.5691C194.443 85.7362 195.118 86.914 195.791 88.1023L196.661 87.6097C195.987 86.4185 195.31 85.2378 194.633 84.0678L193.767 84.5691ZM197.779 91.6539C198.43 92.8315 199.08 94.0188 199.728 95.2153L200.607 94.7394C199.958 93.54 199.307 92.35 198.654 91.1696L197.779 91.6539ZM201.65 98.8061C202.281 99.9984 202.91 101.199 203.536 102.409L204.424 101.949C203.796 100.737 203.166 99.5333 202.534 98.3383L201.65 98.8061ZM205.387 106.026C205.998 107.233 206.607 108.447 207.212 109.67L208.108 109.226C207.502 108.001 206.892 106.784 206.28 105.574L205.387 106.026ZM208.998 113.317C209.294 113.929 209.59 114.542 209.884 115.157L210.786 114.725C210.491 114.109 210.195 113.494 209.898 112.881L208.998 113.317ZM209.884 115.157C210.176 115.766 210.466 116.375 210.754 116.983L211.658 116.555C211.369 115.946 211.078 115.336 210.786 114.725L209.884 115.157ZM212.467 120.642C213.035 121.869 213.595 123.095 214.148 124.317L215.059 123.905C214.505 122.68 213.944 121.452 213.374 120.222L212.467 120.642ZM215.797 128.007C216.344 129.245 216.882 130.48 217.412 131.711L218.331 131.315C217.799 130.081 217.26 128.844 216.712 127.603L215.797 128.007ZM218.993 135.428C219.517 136.677 220.033 137.922 220.541 139.163L221.466 138.785C220.958 137.541 220.441 136.293 219.915 135.041L218.993 135.428ZM222.051 142.91C222.552 144.168 223.044 145.422 223.526 146.67L224.459 146.31C223.975 145.059 223.483 143.802 222.981 142.54L222.051 142.91ZM224.964 150.448C225.44 151.717 225.906 152.98 226.362 154.236L227.302 153.895C226.845 152.636 226.378 151.369 225.901 150.097L224.964 150.448ZM227.722 158.043C228.172 159.323 228.611 160.596 229.039 161.861L229.986 161.541C229.557 160.272 229.116 158.995 228.666 157.712L227.722 158.043ZM230.313 165.695C230.735 166.987 231.144 168.27 231.543 169.543L232.497 169.245C232.098 167.967 231.687 166.681 231.264 165.385L230.313 165.695ZM232.724 173.405C233.113 174.709 233.491 176.001 233.855 177.282L234.817 177.009C234.451 175.723 234.073 174.426 233.682 173.119L232.724 173.405ZM234.933 181.175C235.287 182.49 235.627 183.791 235.953 185.078L236.922 184.833C236.595 183.54 236.254 182.234 235.899 180.915L234.933 181.175ZM236.914 189.004C237.227 190.332 237.525 191.645 237.807 192.94L238.784 192.727C238.501 191.426 238.202 190.108 237.887 188.774L236.914 189.004ZM238.627 196.889C238.759 197.554 238.885 198.213 239.008 198.868L239.991 198.684C239.868 198.026 239.74 197.363 239.608 196.695L238.627 196.889ZM239.008 198.868C239.135 199.548 239.257 200.223 239.375 200.892L240.36 200.719C240.242 200.046 240.119 199.368 239.991 198.684L239.008 198.868ZM240.037 204.949C240.246 206.333 240.432 207.69 240.595 209.019L241.588 208.897C241.423 207.559 241.236 206.193 241.026 204.8L240.037 204.949ZM241.033 213.1C241.16 214.5 241.259 215.864 241.33 217.19L242.328 217.137C242.257 215.798 242.157 214.421 242.029 213.009L241.033 213.1ZM241.458 221.281C241.47 222.7 241.444 224.066 241.381 225.377L242.38 225.425C242.444 224.094 242.47 222.709 242.458 221.273L241.458 221.281ZM241.042 229.442C240.869 230.864 240.641 232.203 240.36 233.455L241.335 233.675C241.625 232.386 241.858 231.014 242.035 229.563L241.042 229.442ZM239.208 237.328C238.692 238.674 238.088 239.867 237.397 240.9L238.229 241.456C238.967 240.351 239.603 239.09 240.142 237.687L239.208 237.328ZM234.726 243.787C234.201 244.184 233.644 244.523 233.056 244.805L233.488 245.707C234.138 245.396 234.752 245.021 235.329 244.585L234.726 243.787ZM233.056 244.805C232.493 245.075 231.906 245.289 231.298 245.447L231.55 246.415C232.219 246.241 232.866 246.005 233.488 245.707L233.056 244.805ZM227.551 245.76C226.363 245.677 225.109 245.436 223.795 245.042L223.508 246C224.882 246.412 226.208 246.668 227.481 246.758L227.551 245.76ZM220.192 243.647C219.08 243.127 217.936 242.515 216.761 241.812L216.248 242.67C217.448 243.388 218.622 244.017 219.768 244.553L220.192 243.647ZM213.498 239.683C212.471 238.96 211.426 238.176 210.364 237.332L209.742 238.116C210.818 238.97 211.879 239.765 212.922 240.5L213.498 239.683ZM207.359 234.827C206.402 233.993 205.434 233.115 204.455 232.193L203.769 232.922C204.757 233.851 205.735 234.738 206.702 235.581L207.359 234.827ZM201.642 229.457C200.739 228.55 199.828 227.61 198.91 226.636L198.182 227.321C199.106 228.302 200.023 229.249 200.933 230.163L201.642 229.457Z" fill="#C590FB"/>
<path d="M66.6153 135.207L65.2108 129.607L61.0633 133.624L66.6153 135.207ZM255.112 140.672L254.717 140.978L255.112 140.672ZM37.5249 62.7666C41.3924 56.0677 48.2897 51.4915 57.5316 48.9895C66.7762 46.4867 78.3314 46.0711 91.4351 47.6723C117.64 50.8744 149.938 62.1304 182.101 80.6996L182.601 79.8336C150.351 61.2137 117.925 49.9017 91.5564 46.6797C78.3734 45.0687 66.6794 45.4769 57.2702 48.0242C47.8583 50.5723 40.6969 55.2724 36.6588 62.2666L37.5249 62.7666ZM63.8516 131.635C51.3891 118.476 42.4052 105.372 37.7449 93.4863C33.0831 81.5969 32.7719 70.9989 37.5249 62.7666L36.6588 62.2666C31.6948 70.8645 32.0928 81.8107 36.814 93.8513C41.5367 105.896 50.6096 119.107 63.1256 132.322L63.8516 131.635ZM182.101 80.6996C213.387 98.7624 238.745 120.396 254.717 140.978L255.507 140.365C239.439 119.66 213.973 97.9461 182.601 79.8336L182.101 80.6996ZM254.717 140.978C263.151 151.847 268.953 162.402 271.641 171.966C274.327 181.528 273.893 190.059 269.92 196.94L270.786 197.44C274.934 190.255 275.338 181.426 272.603 171.696C269.869 161.967 263.99 151.297 255.507 140.365L254.717 140.978ZM269.92 196.94C266.062 203.622 259.19 208.192 249.984 210.698C240.774 213.205 229.264 213.635 216.209 212.058L216.09 213.051C229.224 214.637 240.873 214.214 250.246 211.663C259.623 209.11 266.758 204.416 270.786 197.44L269.92 196.94Z" fill="#C590FB"/>
<defs>
<linearGradient id="paint0_linear_1_786" x1="159.069" y1="231.687" x2="159.069" y2="68.1433" gradientUnits="userSpaceOnUse">
<stop stop-color="#2D3915"/>
<stop offset="1" stop-color="#549B5F"/>
</linearGradient>
<linearGradient id="paint1_linear_1_786" x1="75.4546" y1="129.851" x2="242.254" y2="169.148" gradientUnits="userSpaceOnUse">
<stop offset="0.01" stop-color="#39AA44"/>
<stop offset="0.697222" stop-color="#C590FB"/>
</linearGradient>
<linearGradient id="paint2_linear_1_786" x1="88.8519" y1="67.5283" x2="106.329" y2="91.5459" gradientUnits="userSpaceOnUse">
<stop stop-color="#2D3915"/>
<stop offset="1" stop-color="#C590FB"/>
</linearGradient>
<linearGradient id="paint3_linear_1_786" x1="179.162" y1="32.4993" x2="179.162" y2="76.5303" gradientUnits="userSpaceOnUse">
<stop stop-color="#39AA44"/>
<stop offset="1" stop-color="#C590FB"/>
</linearGradient>
<linearGradient id="paint4_linear_1_786" x1="116.752" y1="50.6816" x2="126.252" y2="81.7612" gradientUnits="userSpaceOnUse">
<stop stop-color="#BFE470"/>
<stop offset="1" stop-color="#C590FB"/>
</linearGradient>
</defs>
</svg>
