<svg width="150" height="29" viewBox="0 0 150 29" fill="none" xmlns="http://www.w3.org/2000/svg">
<ellipse cx="75" cy="60" rx="75" ry="60" fill="#687943"/>
<path d="M52.62 22H51.32V19.35L49.1 15.43L50.38 15.06L51.96 18.04L53.62 15.2H54.98L52.62 19.4V22ZM57.924 22.12C57.3973 22.12 56.9407 22.0167 56.554 21.81C56.1673 21.6033 55.8673 21.31 55.654 20.93C55.4407 20.5433 55.334 20.0933 55.334 19.58C55.3407 19.06 55.4473 18.61 55.654 18.23C55.8673 17.8433 56.1673 17.5467 56.554 17.34C56.9473 17.1267 57.404 17.02 57.924 17.02C58.4573 17.02 58.914 17.1233 59.294 17.33C59.6807 17.5367 59.9807 17.83 60.194 18.21C60.4073 18.59 60.514 19.04 60.514 19.56C60.514 20.0733 60.4073 20.5233 60.194 20.91C59.9807 21.2967 59.6807 21.5967 59.294 21.81C58.9073 22.0167 58.4507 22.12 57.924 22.12ZM57.934 21.01C58.1807 21.01 58.394 20.9467 58.574 20.82C58.7607 20.6933 58.9073 20.52 59.014 20.3C59.1207 20.08 59.174 19.8333 59.174 19.56C59.174 19.28 59.1207 19.0333 59.014 18.82C58.9073 18.6067 58.7607 18.44 58.574 18.32C58.3873 18.1933 58.1707 18.13 57.924 18.13C57.684 18.13 57.4673 18.1933 57.274 18.32C57.0873 18.4467 56.9407 18.62 56.834 18.84C56.7273 19.0533 56.674 19.3 56.674 19.58C56.674 19.86 56.7273 20.1067 56.834 20.32C56.9407 20.5333 57.0907 20.7033 57.284 20.83C57.4773 20.95 57.694 21.01 57.934 21.01ZM64.5678 17.15H65.8678V22H65.0078L64.7978 21.48C64.5911 21.6267 64.3745 21.75 64.1478 21.85C63.9278 21.9433 63.7111 22.0167 63.4978 22.07C63.2911 22.13 63.1011 22.16 62.9278 22.16C62.4878 22.16 62.1478 22.0733 61.9078 21.9C61.6678 21.7267 61.5011 21.4933 61.4078 21.2C61.3145 20.9 61.2678 20.5633 61.2678 20.19V17.15H62.5678V20.13C62.5678 20.4367 62.6311 20.67 62.7578 20.83C62.8845 20.99 63.0545 21.07 63.2678 21.07C63.4411 21.07 63.6045 21.04 63.7578 20.98C63.9178 20.92 64.0645 20.8467 64.1978 20.76C64.3378 20.6733 64.4611 20.59 64.5678 20.51V17.15ZM68.2816 22H66.9816V17.15H67.6616L68.0916 17.96C68.225 17.84 68.3883 17.72 68.5816 17.6C68.775 17.4733 68.9716 17.3667 69.1716 17.28C69.3783 17.1933 69.5683 17.15 69.7416 17.15L70.0016 18.19C69.8483 18.19 69.675 18.2267 69.4816 18.3C69.2883 18.3733 69.085 18.4733 68.8716 18.6C68.665 18.7267 68.4683 18.8733 68.2816 19.04V22ZM76.5296 19.34L75.6196 16.98L74.7296 19.34H76.5296ZM75.0996 15.2H76.1996L78.8396 21.92L77.5396 22.1L76.9296 20.4H74.3496L73.7496 22H72.4496L75.0996 15.2ZM83.0814 20.68L83.4514 21.62C83.3047 21.7333 83.1214 21.83 82.9014 21.91C82.6881 21.9833 82.4814 22.0367 82.2814 22.07C82.0814 22.1033 81.9114 22.12 81.7714 22.12C81.2514 22.12 80.7981 22.0167 80.4114 21.81C80.0247 21.6033 79.7247 21.31 79.5114 20.93C79.2981 20.5433 79.1914 20.0933 79.1914 19.58C79.1981 19.06 79.3047 18.61 79.5114 18.23C79.7247 17.8433 80.0247 17.5467 80.4114 17.34C80.7981 17.1267 81.2514 17.02 81.7714 17.02C81.9114 17.02 82.0814 17.04 82.2814 17.08C82.4814 17.12 82.6847 17.1767 82.8914 17.25C83.1047 17.3233 83.2914 17.4167 83.4514 17.53L83.0814 18.46C82.8481 18.3533 82.6281 18.2733 82.4214 18.22C82.2214 18.16 82.0081 18.13 81.7814 18.13C81.5414 18.13 81.3247 18.1933 81.1314 18.32C80.9447 18.4467 80.7981 18.62 80.6914 18.84C80.5847 19.0533 80.5314 19.3 80.5314 19.58C80.5314 19.86 80.5847 20.1067 80.6914 20.32C80.7981 20.5333 80.9481 20.7033 81.1414 20.83C81.3347 20.95 81.5514 21.01 81.7914 21.01C82.0047 21.01 82.2147 20.9833 82.4214 20.93C82.6281 20.87 82.8481 20.7867 83.0814 20.68ZM86.588 17.17L86.988 18.15H85.708V20.22C85.708 20.4733 85.768 20.68 85.888 20.84C86.008 21 86.1846 21.08 86.418 21.08C86.5046 21.08 86.5913 21.07 86.678 21.05C86.7646 21.03 86.8546 21 86.948 20.96L87.328 21.9C87.2613 21.9533 87.1713 22 87.058 22.04C86.9446 22.0867 86.8246 22.1233 86.698 22.15C86.5713 22.1833 86.4546 22.2 86.348 22.2C85.948 22.2 85.6046 22.1333 85.318 22C85.038 21.86 84.818 21.66 84.658 21.4C84.498 21.14 84.418 20.8233 84.418 20.45V18.15H83.758L83.768 17.17H84.418V16.01L85.708 15.78V17.17H86.588ZM89.3366 22H88.0266V17.15H89.3366V22ZM88.6766 16.47C88.4699 16.47 88.2966 16.4 88.1566 16.26C88.0166 16.1133 87.9466 15.9367 87.9466 15.73C87.9466 15.5233 88.0166 15.35 88.1566 15.21C88.2966 15.07 88.4666 15 88.6666 15C88.8666 15 89.0366 15.07 89.1766 15.21C89.3232 15.35 89.3966 15.5233 89.3966 15.73C89.3966 15.9367 89.3266 16.1133 89.1866 16.26C89.0466 16.4 88.8766 16.47 88.6766 16.47ZM92.8889 22H91.7689L89.9789 17.35L91.2589 16.97L92.3789 20.09L93.4289 17.15H94.7989L92.8889 22ZM96.7584 22H95.4484V17.15H96.7584V22ZM96.0984 16.47C95.8918 16.47 95.7184 16.4 95.5784 16.26C95.4384 16.1133 95.3684 15.9367 95.3684 15.73C95.3684 15.5233 95.4384 15.35 95.5784 15.21C95.7184 15.07 95.8884 15 96.0884 15C96.2884 15 96.4584 15.07 96.5984 15.21C96.7451 15.35 96.8184 15.5233 96.8184 15.73C96.8184 15.9367 96.7484 16.1133 96.6084 16.26C96.4684 16.4 96.2984 16.47 96.0984 16.47ZM100.221 17.17L100.621 18.15H99.3408V20.22C99.3408 20.4733 99.4008 20.68 99.5208 20.84C99.6408 21 99.8174 21.08 100.051 21.08C100.137 21.08 100.224 21.07 100.311 21.05C100.397 21.03 100.487 21 100.581 20.96L100.961 21.9C100.894 21.9533 100.804 22 100.691 22.04C100.577 22.0867 100.457 22.1233 100.331 22.15C100.204 22.1833 100.087 22.2 99.9808 22.2C99.5808 22.2 99.2374 22.1333 98.9508 22C98.6708 21.86 98.4508 21.66 98.2908 21.4C98.1308 21.14 98.0508 20.8233 98.0508 20.45V18.15H97.3908L97.4008 17.17H98.0508V16.01L99.3408 15.78V17.17H100.221ZM102.649 22.23L102.879 21.66L101.209 17.36L102.489 16.96L103.619 20.09L104.669 17.15H106.039L103.869 22.64C103.769 22.9 103.613 23.1367 103.399 23.35C103.186 23.57 102.943 23.7533 102.669 23.9C102.403 24.0467 102.126 24.1533 101.839 24.22L101.379 23.15C101.533 23.0833 101.696 23.0067 101.869 22.92C102.049 22.8333 102.209 22.7333 102.349 22.62C102.496 22.5067 102.596 22.3767 102.649 22.23Z" fill="white"/>
</svg>
