<svg width="320" height="286" viewBox="0 0 320 286" fill="none" xmlns="http://www.w3.org/2000/svg">
<path d="M236.089 155.969C236.089 208.678 193.36 251.407 140.651 251.407C87.9427 251.407 45.2139 208.678 45.2139 155.969C45.2139 103.26 87.9427 60.5316 140.651 60.5316C193.36 60.5316 236.089 103.26 236.089 155.969Z" fill="url(#paint0_linear_4932_740)"/>
<path d="M147.854 106.481C145.427 105.264 142.089 102.832 141.482 96.7505C141.005 91.9758 152.151 72.5953 157.599 64.2021C163.521 64.8148 178.739 69.4578 188.436 75.4341C205.181 85.7551 212.329 95.2432 212.329 95.2432C212.329 95.2432 199.647 114.69 194.893 118.643C195.196 121.886 195.621 128.799 194.893 130.502C194.164 132.204 190.543 133.846 188.823 134.454C187.812 134.454 185.364 134.698 183.664 135.671C181.965 136.644 181.338 138.103 181.236 138.711L175.167 149.049C173.852 150.975 170.676 154.705 168.491 154.219C166.306 153.732 165.557 150.57 165.456 149.049L161.511 130.502C159.892 130.299 156.352 129.589 155.138 128.373C153.924 127.157 155.644 114.488 156.655 108.305C154.531 108.102 149.797 107.454 147.854 106.481Z" fill="#BFE470"/>
<path d="M205.707 157.173C204.865 155.468 199.319 156.803 196.82 158.358C196.513 158.358 195.603 160.185 193.076 162.104C190.55 164.023 195.372 167.02 198.398 168.619C200.767 170.351 206.733 170.525 210.838 167.434C215.969 163.57 206.759 159.305 205.707 157.173Z" fill="#BFE470"/>
<path d="M98.0398 103.782C98.0398 93.9795 81.4982 91.1205 73.3295 91.1205C74.3505 91.1326 49.2319 111.746 47.394 151.569C46.5924 168.939 48.4152 193.637 74.1464 221.207C74.9633 221.207 77.4139 220.39 83.132 217.122C90.2796 213.038 88.6458 198.334 89.2585 196.905C89.8711 195.475 86.6037 185.469 83.132 180.568C79.6603 175.666 87.4205 169.54 90.8922 165.047C94.3639 160.554 98.0399 165.66 105.596 154.428C113.152 143.196 108.046 149.527 100.49 135.027C92.9344 120.528 98.0398 116.035 98.0398 103.782Z" fill="#BFE470"/>
<path d="M98.2327 221.218C92.9245 224.786 96.0209 234.599 98.2327 239.059C108.6 243.519 118.138 248.192 137.629 249.254C153.222 250.103 168.732 246.068 178.892 241.183V233.324C179.1 230.28 177.731 222.705 170.598 216.758C163.465 210.811 158.342 211.094 156.684 213.572C152.744 213.572 149.933 207.664 146.283 205.115C141.722 201.929 139.758 188.801 137.629 184.686C135.863 181.271 129.957 168.545 121.871 171.518C113.784 174.491 117.102 188.934 112.955 197.218C108.186 205.116 98.5645 220.974 98.2327 221.218Z" fill="#BFE470"/>
<path d="M233.533 139.073C233.769 140.434 235.063 141.345 236.423 141.109C237.784 140.873 238.695 139.579 238.459 138.218L233.533 139.073ZM217.061 217.134C216.946 215.758 215.737 214.736 214.361 214.851L191.939 216.727C190.563 216.842 189.541 218.05 189.656 219.426C189.771 220.802 190.98 221.824 192.356 221.709L212.286 220.042L213.954 239.973C214.069 241.348 215.277 242.37 216.653 242.255C218.029 242.14 219.051 240.932 218.936 239.556L217.061 217.134ZM94.0349 236.144C49.3292 210.114 34.2049 152.738 60.2599 107.99L55.939 105.474C28.4965 152.605 44.4235 213.043 91.519 240.465L94.0349 236.144ZM60.2599 107.99C86.3148 63.2426 143.679 48.0742 188.385 74.1046L190.9 69.7837C143.805 42.3618 83.3814 58.3438 55.939 105.474L60.2599 107.99ZM188.385 74.1046C213.252 88.5841 228.967 112.758 233.533 139.073L238.459 138.218C233.651 110.512 217.098 85.0377 190.9 69.7837L188.385 74.1046ZM212.66 215.728C183.843 249.807 133.903 259.358 94.0349 236.144L91.519 240.465C133.523 264.922 186.123 254.853 216.478 218.957L212.66 215.728Z" fill="url(#paint1_linear_4932_740)"/>
<path d="M161.139 187.199L161.622 187.186L161.626 186.703C161.687 179.23 167.759 173.191 175.24 173.191H239.026C246.545 173.191 252.641 179.291 252.641 186.817C252.641 194.342 246.545 200.442 239.026 200.442H216.163H215.672L215.664 200.934C215.537 208.282 209.541 214.2 202.164 214.2H161.508C154.052 214.2 148.007 208.154 148.007 200.697C148.007 193.363 153.853 187.394 161.139 187.199Z" fill="white" stroke="#2D3915"/>
<path d="M21.3152 156.741H21.8152V156.241C21.8152 148.933 27.7265 143.01 35.0162 143.01H69.5321C76.8218 143.01 82.7331 148.933 82.7331 156.241V156.741H83.2331C90.5227 156.741 96.434 162.664 96.434 169.972C96.434 177.28 90.5227 183.203 83.2331 183.203H21.3152C14.0256 183.203 8.11426 177.28 8.11426 169.972C8.11426 162.664 14.0256 156.741 21.3152 156.741Z" fill="white" stroke="#2D3915"/>
<path d="M157.373 80.5165C154.159 79.38 159.267 73.5189 162.675 73.583C166.035 73.6463 170.933 79.3705 167.773 80.5165C166.65 80.9239 164.714 80.5165 164.714 80.5165C164.714 80.5165 170.291 84.0182 168.589 86.0226C167.249 87.601 163.287 86.0226 163.287 86.0226V90.9168H162.675H162.471H161.859V86.0226C161.859 86.0226 157.897 87.601 156.557 86.0226C154.856 84.0182 160.432 80.5165 160.432 80.5165C160.432 80.5165 158.499 80.9149 157.373 80.5165Z" fill="#39AA44"/>
<path d="M179.311 119.671C176.097 118.534 181.205 112.673 184.613 112.737C187.973 112.8 192.87 118.525 189.711 119.671C188.588 120.078 186.652 119.671 186.652 119.671C186.652 119.671 192.228 123.172 190.527 125.177C189.186 126.755 185.224 125.177 185.224 125.177V130.071H184.613H184.409H183.797V125.177C183.797 125.177 179.835 126.755 178.495 125.177C176.793 123.172 182.369 119.671 182.369 119.671C182.369 119.671 180.437 120.069 179.311 119.671Z" fill="#39AA44"/>
<path d="M197.179 156.378C193.965 155.241 199.073 149.38 202.481 149.444C205.841 149.507 210.738 155.232 207.579 156.378C206.456 156.785 204.52 156.378 204.52 156.378C204.52 156.378 210.096 159.879 208.395 161.884C207.055 163.462 203.093 161.884 203.093 161.884V166.778H202.481H202.277H201.665V161.884C201.665 161.884 197.703 163.462 196.363 161.884C194.661 159.879 200.238 156.378 200.238 156.378C200.238 156.378 198.305 156.776 197.179 156.378Z" fill="#39AA44"/>
<path d="M122.213 189.414C118.999 188.277 124.107 182.416 127.515 182.48C130.875 182.543 135.773 188.267 132.613 189.414C131.49 189.821 129.554 189.414 129.554 189.414C129.554 189.414 135.131 192.915 133.429 194.92C132.089 196.498 128.127 194.92 128.127 194.92V199.814H127.515H127.311H126.699V194.92C126.699 194.92 122.737 196.498 121.397 194.92C119.696 192.915 125.272 189.414 125.272 189.414C125.272 189.414 123.339 189.812 122.213 189.414Z" fill="#39AA44"/>
<path d="M107.528 228.16C104.315 227.023 109.422 221.162 112.83 221.226C116.191 221.289 121.088 227.014 117.929 228.16C116.806 228.567 114.87 228.16 114.87 228.16C114.87 228.16 120.446 231.661 118.744 233.666C117.404 235.244 113.442 233.666 113.442 233.666V238.56H112.83H112.627H112.015V233.666C112.015 233.666 108.053 235.244 106.713 233.666C105.011 231.661 110.587 228.16 110.587 228.16C110.587 228.16 108.655 228.558 107.528 228.16Z" fill="#39AA44"/>
<path d="M72.8614 102.133C69.6478 100.996 74.7554 95.1353 78.1634 95.1995C81.5237 95.2628 86.4211 100.987 83.2616 102.133C82.1386 102.54 80.2027 102.133 80.2027 102.133C80.2027 102.133 85.779 105.635 84.0773 107.639C82.7372 109.217 78.7752 107.639 78.7752 107.639V112.533H78.1634H77.9595H77.3477V107.639C77.3477 107.639 73.3858 109.217 72.0457 107.639C70.344 105.635 75.9203 102.133 75.9203 102.133C75.9203 102.133 73.9876 102.531 72.8614 102.133Z" fill="#39AA44"/>
<path d="M91.6221 143.734C88.4085 142.597 93.5161 136.736 96.9242 136.8C100.284 136.864 105.182 142.588 102.022 143.734C100.899 144.141 98.9635 143.734 98.9635 143.734C98.9635 143.734 104.54 147.236 102.838 149.24C101.498 150.818 97.536 149.24 97.536 149.24V154.134H96.9242H96.7203H96.1085V149.24C96.1085 149.24 92.1465 150.818 90.8064 149.24C89.1047 147.236 94.681 143.734 94.681 143.734C94.681 143.734 92.7483 144.132 91.6221 143.734Z" fill="#39AA44"/>
<path d="M70.0069 204.096C66.7933 202.96 71.9009 197.098 75.309 197.163C78.6692 197.226 83.5666 202.95 80.4071 204.096C79.2841 204.503 77.3482 204.096 77.3482 204.096C77.3482 204.096 82.9245 207.598 81.2228 209.602C79.8827 211.181 75.9207 209.602 75.9207 209.602V214.496H75.309H75.105H74.4932V209.602C74.4932 209.602 70.5313 211.181 69.1912 209.602C67.4895 207.598 73.0658 204.096 73.0658 204.096C73.0658 204.096 71.1331 204.494 70.0069 204.096Z" fill="#39AA44"/>
<path d="M189.779 59.6696C184.513 55.3668 198.058 47.7705 204.414 50.1853C210.681 52.5663 216.013 66.6392 209.307 66.6701C206.924 66.6811 203.564 64.6111 203.564 64.6111C203.564 64.6111 211.67 74.9569 207.122 77.5849C203.541 79.6544 197.167 74.016 197.167 74.016L193.864 83.23L192.715 82.8182L192.333 82.6809L191.184 82.2691L194.487 73.0551C194.487 73.0551 185.983 73.3599 184.532 69.4863C182.69 64.5675 195.523 61.7286 195.523 61.7286C195.523 61.7286 191.625 61.1775 189.779 59.6696Z" fill="#39AA44"/>
<path d="M75.2468 64.9241C79.0923 59.3147 63.9578 55.8309 58.5367 59.9343C53.1917 63.9802 52.0292 78.9844 58.4733 77.1298C60.7638 76.4706 63.4067 73.5399 63.4067 73.5399C63.4067 73.5399 58.5338 85.7468 63.6368 86.9909C67.6556 87.9707 72.188 80.7684 72.188 80.7684L77.9472 88.683L78.9339 87.965L79.2628 87.7257L80.2495 87.0077L74.4903 79.0932C74.4903 79.0932 82.7376 76.9959 83.0415 72.8707C83.4274 67.6324 70.3134 68.514 70.3134 68.514C70.3134 68.514 73.8992 66.89 75.2468 64.9241Z" fill="url(#paint2_linear_4932_740)"/>
<path d="M149.227 9.793C150.159 7.03529 150.802 3.83997 153.713 3.83997C156.624 3.83997 157.267 7.03529 158.2 9.793C159.15 12.6029 158.2 17.3882 158.2 17.3882C158.2 17.3882 163.195 16.4401 166.153 17.3882C168.682 18.1991 171.489 18.4535 171.863 21.0832C172.244 23.7714 169.447 24.7322 167.172 26.2152C164.532 27.9368 159.423 28.4732 159.423 28.4732C159.423 28.4732 167.678 29.1439 171.863 31.9629C174.864 33.9846 177.979 35.1244 178.184 38.737C178.403 42.59 175.169 44.3426 171.863 46.3323C166.677 49.4528 156.364 46.3323 156.364 46.3323V65.8336H151.062V46.3323C151.062 46.3323 140.75 49.4528 135.564 46.3323C132.257 44.3426 129.023 42.59 129.242 38.737C129.447 35.1244 132.563 33.9846 135.564 31.9629C139.748 29.1439 148.003 28.4732 148.003 28.4732C148.003 28.4732 142.894 27.9368 140.254 26.2152C137.98 24.7322 135.182 23.7714 135.564 21.0832C135.937 18.4535 138.744 18.1991 141.274 17.3882C144.231 16.4401 149.227 17.3882 149.227 17.3882C149.227 17.3882 148.277 12.6029 149.227 9.793Z" fill="#2D3915"/>
<path d="M70.5588 30.211C70.6013 27.3002 70.2341 24.0616 73.0052 23.1696C75.7762 22.2776 77.3673 25.1222 79.0999 27.4615C80.8652 29.8451 81.4272 34.6914 81.4272 34.6914C81.4272 34.6914 85.8919 32.2581 88.9978 32.2543C91.6538 32.2511 94.4042 31.6331 95.5653 34.0219C96.7522 36.4638 94.3836 38.2357 92.6732 40.3442C90.6874 42.7921 85.9887 44.8682 85.9887 44.8682C85.9887 44.8682 94.0521 42.9771 98.8991 44.3782C102.375 45.3831 105.69 45.5133 106.992 48.8894C108.381 52.4899 105.84 55.1491 103.302 58.0564C99.3219 62.6159 88.5494 62.8055 88.5494 62.8055L94.5251 81.3687L89.478 82.9933L83.5024 64.4302C83.5024 64.4302 74.6423 70.5606 68.7495 69.1793C64.9922 68.2985 61.3769 67.6211 60.4045 63.8865C59.4928 60.3848 62.1092 58.3452 64.3464 55.5011C67.4658 51.5355 75.1181 48.3675 75.1181 48.3675C75.1181 48.3675 70.0907 49.4224 67.0498 48.5926C64.4305 47.8779 61.4731 47.8205 61.0126 45.1448C60.562 42.5273 63.1565 41.4247 65.3156 39.8779C67.8404 38.0691 72.8861 37.4409 72.8861 37.4409C72.8861 37.4409 70.5154 33.1768 70.5588 30.211Z" fill="#39AA44"/>
<path d="M123.529 45.6047C116.602 43.1712 127.611 30.6219 134.957 30.7593C142.2 30.8947 152.756 43.1509 145.946 45.6047C143.525 46.4769 139.353 45.6047 139.353 45.6047C139.353 45.6047 151.372 53.1022 147.704 57.3937C144.816 60.7733 136.276 57.3937 136.276 57.3937V67.8728H134.957H134.518H133.199V57.3937C133.199 57.3937 124.659 60.7733 121.77 57.3937C118.103 53.1022 130.122 45.6047 130.122 45.6047C130.122 45.6047 125.956 46.4575 123.529 45.6047Z" fill="#2D3915"/>
<path d="M100.767 50.7438C94.771 48.6044 104.301 37.5721 110.661 37.6929C116.931 37.812 126.069 48.5866 120.173 50.7438C118.078 51.5105 114.466 50.7438 114.466 50.7438C114.466 50.7438 124.871 57.335 121.695 61.1077C119.195 64.0788 111.802 61.1077 111.802 61.1077V70.3201H110.661H110.28H109.139V61.1077C109.139 61.1077 101.746 64.0788 99.2453 61.1077C96.0701 57.335 106.475 50.7438 106.475 50.7438C106.475 50.7438 102.869 51.4935 100.767 50.7438Z" fill="#2D3915"/>
<path d="M184.038 38.5084C185.038 36.8748 185.915 34.9183 187.783 35.342C189.652 35.7657 189.599 37.9094 189.796 39.8145C189.997 41.7556 188.691 44.6876 188.691 44.6876C188.691 44.6876 192.035 44.8064 193.795 45.8452C195.3 46.7336 197.065 47.3055 196.922 49.047C196.775 50.8272 194.84 51.0365 193.165 51.6569C191.22 52.3772 187.863 51.9778 187.863 51.9778C187.863 51.9778 193.063 53.6096 195.338 56.0274C196.97 57.7613 198.804 58.9461 198.41 61.2938C197.989 63.7977 195.659 64.4515 193.247 65.2468C189.465 66.4941 183.301 62.9909 183.301 62.9909L180.463 75.5029L177.061 74.7312L179.899 62.2192C179.899 62.2192 172.827 62.7203 169.952 59.9633C168.12 58.2054 166.3 56.6102 167.001 54.17C167.658 51.882 169.823 51.6042 172.044 50.7439C175.139 49.5443 180.534 50.3155 180.534 50.3155C180.534 50.3155 177.334 49.2278 175.89 47.7388C174.646 46.4563 172.991 45.4327 173.627 43.7635C174.249 42.1306 176.088 42.376 177.829 42.2239C179.865 42.0461 182.933 43.3815 182.933 43.3815C182.933 43.3815 183.019 40.173 184.038 38.5084Z" fill="#2D3915"/>
<path d="M148.881 39.4874C139.473 36.1179 154.425 18.742 164.403 18.9322C174.24 19.1198 188.577 36.0898 179.328 39.4874C176.04 40.695 170.373 39.4874 170.373 39.4874C170.373 39.4874 186.698 49.8685 181.716 55.8106C177.793 60.4901 166.194 55.8106 166.194 55.8106V70.3201H164.403H163.806H162.015V55.8106C162.015 55.8106 150.416 60.4901 146.492 55.8106C141.511 49.8685 157.836 39.4874 157.836 39.4874C157.836 39.4874 152.178 40.6682 148.881 39.4874Z" fill="url(#paint3_linear_4932_740)"/>
<path d="M91.285 56.0108C91.285 56.0108 87.5559 58.062 84.9796 57.9381C78.9828 57.6496 82.3895 47.2931 87.6842 42.3939C88.88 41.2874 90.1722 40.4593 91.4741 40.0884C98.4412 38.1036 112.197 46.9965 106.418 51.3853C104.364 52.9452 100.112 53.3126 100.112 53.3126C100.112 53.3126 113.847 57.1268 111.621 62.3932C109.868 66.5406 100.692 65.7339 100.692 65.7339L103.822 75.9755L102.561 76.361L102.141 76.4895L100.88 76.8749L97.7492 66.6333C97.7492 66.6333 90.5919 72.4326 86.82 69.9739C82.0303 66.8518 91.285 56.0108 91.285 56.0108Z" fill="url(#paint4_linear_4932_740)"/>
<path d="M114.153 12.6481C115.085 9.89039 115.728 6.69507 118.639 6.69507C121.55 6.69507 122.193 9.89039 123.125 12.6481C124.075 15.458 123.125 20.2433 123.125 20.2433C123.125 20.2433 128.121 19.2952 131.078 20.2433C133.608 21.0542 136.415 21.3086 136.788 23.9383C137.17 26.6265 134.372 27.5873 132.098 29.0703C129.458 30.7919 124.349 31.3283 124.349 31.3283C124.349 31.3283 132.604 31.999 136.788 34.818C139.789 36.8397 142.905 37.9795 143.11 41.5921C143.329 45.4451 140.095 47.1977 136.788 49.1874C131.602 52.3079 121.29 49.1874 121.29 49.1874V68.6887H115.988V49.1874C115.988 49.1874 105.675 52.3079 100.489 49.1874C97.1828 47.1977 93.949 45.4451 94.1677 41.5921C94.3729 37.9795 97.4884 36.8397 100.489 34.818C104.674 31.999 112.929 31.3283 112.929 31.3283C112.929 31.3283 107.82 30.7919 105.18 29.0703C102.905 27.5873 100.108 26.6265 100.489 23.9383C100.863 21.3086 103.67 21.0542 106.199 20.2433C109.157 19.2952 114.153 20.2433 114.153 20.2433C114.153 20.2433 113.202 15.458 114.153 12.6481Z" fill="#39AA44"/>
<path d="M143.211 37.6566C143.654 36.3504 143.959 34.8368 145.342 34.8368C146.724 34.8368 147.029 36.3504 147.472 37.6566C147.923 38.9876 147.472 41.2544 147.472 41.2544C147.472 41.2544 149.844 40.8053 151.248 41.2544C152.449 41.6385 153.782 41.759 153.959 43.0047C154.14 44.278 152.812 44.7331 151.732 45.4356C150.478 46.2511 148.053 46.5052 148.053 46.5052C148.053 46.5052 151.972 46.8229 153.959 48.1582C155.384 49.1158 156.863 49.6557 156.96 51.367C157.064 53.1921 155.529 54.0222 153.959 54.9647C151.497 56.4429 146.6 54.9647 146.6 54.9647V64.2022H144.083V54.9647C144.083 54.9647 139.187 56.4429 136.724 54.9647C135.154 54.0222 133.619 53.1921 133.723 51.367C133.82 49.6557 135.299 49.1158 136.724 48.1582C138.711 46.8229 142.631 46.5052 142.631 46.5052C142.631 46.5052 140.205 46.2511 138.951 45.4356C137.871 44.7331 136.543 44.278 136.724 43.0047C136.901 41.759 138.234 41.6385 139.435 41.2544C140.84 40.8053 143.211 41.2544 143.211 41.2544C143.211 41.2544 142.76 38.9876 143.211 37.6566Z" fill="#BFE470"/>
<path d="M89.2545 236.538L84.2352 233.685L84.2741 239.459L89.2545 236.538ZM200.336 85.8491L200.397 85.3527L200.336 85.8491ZM16.0829 203.477C9.93573 186.469 17.4348 166.223 34.7967 147.187C52.1411 128.171 79.2386 110.476 111.985 98.6403L111.645 97.6999C78.7774 109.58 51.532 127.355 34.0579 146.513C16.6013 165.653 8.80631 186.287 15.1424 203.817L16.0829 203.477ZM84.7569 236.069C67.4537 235.946 52.1579 233.019 40.2502 227.506C28.3452 221.994 19.854 213.911 16.0829 203.477L15.1424 203.817C19.0281 214.568 27.755 222.822 39.8301 228.413C51.9024 234.003 67.3486 236.945 84.7498 237.069L84.7569 236.069ZM111.985 98.6403C143.839 87.1272 175.127 83.2938 200.276 86.3454L200.397 85.3527C175.065 82.2789 143.618 86.1438 111.645 97.6999L111.985 98.6403ZM200.276 86.3454C226.864 89.5716 246.439 100.464 252.753 117.935L253.694 117.595C247.185 99.5875 227.118 88.5951 200.397 85.3527L200.276 86.3454ZM252.753 117.935C258.885 134.899 251.44 155.086 234.172 174.08L234.912 174.753C252.274 155.655 260.014 135.081 253.694 117.595L252.753 117.935Z" fill="#C590FB"/>
<path d="M263.836 183.045L264.009 183.514L263.836 183.045ZM261.792 103.114L267.343 101.527L265.943 107.128L261.792 103.114ZM37.5545 109.963C36.9273 110.13 36.303 110.298 35.6815 110.467L35.4191 109.502C36.0424 109.332 36.6684 109.164 37.2973 108.997L37.5545 109.963ZM31.9672 111.499C30.7215 111.852 29.4882 112.21 28.2673 112.572L27.9832 111.613C29.2078 111.25 30.4449 110.891 31.6941 110.537L31.9672 111.499ZM24.576 113.69C23.335 114.074 22.1079 114.462 20.8949 114.855L20.5869 113.904C21.804 113.51 23.0353 113.12 24.2803 112.734L24.576 113.69ZM17.2314 116.068C16.0007 116.485 14.7857 116.906 13.5868 117.332L13.2524 116.389C14.456 115.962 15.6755 115.539 16.9105 115.121L17.2314 116.068ZM9.96258 118.648C8.7439 119.102 7.54312 119.56 6.36065 120.022L5.99654 119.091C7.18422 118.627 8.39011 118.167 9.61379 117.711L9.96258 118.648ZM2.78332 121.457C1.57914 121.952 0.395722 122.452 -0.76649 122.957L-1.16461 122.039C0.00361611 121.532 1.19292 121.03 2.40282 120.532L2.78332 121.457ZM-4.28502 124.527C-5.47043 125.071 -6.63141 125.62 -7.76742 126.173L-8.20528 125.274C-7.06218 124.717 -5.89429 124.165 -4.70217 123.618L-4.28502 124.527ZM-11.2075 127.902C-12.3669 128.503 -13.4969 129.11 -14.5971 129.72L-15.0825 128.846C-13.9738 128.231 -12.8354 127.62 -11.668 127.014L-11.2075 127.902ZM-17.9256 131.637C-19.0504 132.31 -20.139 132.987 -21.1907 133.669L-21.7348 132.83C-20.6725 132.141 -19.5735 131.457 -18.4387 130.779L-17.9256 131.637ZM-24.3764 135.83C-25.4466 136.59 -26.4709 137.356 -27.4481 138.126L-28.067 137.34C-27.0761 136.559 -26.0385 135.784 -24.9555 135.015L-24.3764 135.83ZM-30.3876 140.582C-31.3733 141.458 -32.2977 142.339 -33.1593 143.225L-33.8759 142.527C-32.9963 141.623 -32.0544 140.726 -31.052 139.834L-30.3876 140.582ZM-35.7009 146.072C-36.5299 147.092 -37.2745 148.116 -37.9328 149.143L-38.7748 148.604C-38.0946 147.543 -37.3277 146.488 -36.477 145.441L-35.7009 146.072ZM-39.7557 152.468C-40.2946 153.65 -40.7175 154.834 -41.0219 156.019L-41.9905 155.77C-41.6704 154.524 -41.2272 153.285 -40.6657 152.053L-39.7557 152.468ZM-41.5851 159.73C-41.6138 160.355 -41.609 160.981 -41.5699 161.607L-42.568 161.669C-42.6093 161.007 -42.6144 160.345 -42.584 159.684L-41.5851 159.73ZM-41.5699 161.607C-41.5299 162.249 -41.4542 162.886 -41.3435 163.519L-42.3286 163.691C-42.4456 163.023 -42.5256 162.348 -42.568 161.669L-41.5699 161.607ZM-40.2779 167.219C-39.8106 168.378 -39.2216 169.52 -38.5136 170.645L-39.3599 171.177C-40.0972 170.006 -40.7142 168.811 -41.2052 167.594L-40.2779 167.219ZM-36.2074 173.766C-35.3952 174.721 -34.4944 175.661 -33.5072 176.586L-34.191 177.316C-35.2033 176.367 -36.1304 175.4 -36.969 174.414L-36.2074 173.766ZM-30.5281 179.129C-29.5315 179.908 -28.4717 180.675 -27.3501 181.429L-27.9079 182.259C-29.0479 181.492 -30.1273 180.712 -31.144 179.917L-30.5281 179.129ZM-24.0257 183.519C-22.9268 184.167 -21.7805 184.805 -20.5882 185.431L-21.0532 186.316C-22.2592 185.683 -23.4198 185.038 -24.5337 184.381L-24.0257 183.519ZM-17.0586 187.189C-15.8928 187.741 -14.6897 188.282 -13.4503 188.814L-13.8447 189.733C-15.0946 189.197 -16.3088 188.65 -17.4861 188.093L-17.0586 187.189ZM-9.79595 190.313C-8.59977 190.782 -7.37407 191.243 -6.11958 191.695L-6.45851 192.635C-7.72141 192.18 -8.95583 191.717 -10.161 191.244L-9.79595 190.313ZM-2.3867 192.986C-1.14908 193.397 0.113554 193.8 1.40061 194.195L1.10718 195.151C-0.186903 194.754 -1.4568 194.348 -2.70188 193.935L-2.3867 192.986ZM5.16607 195.308C6.41542 195.663 7.68567 196.012 8.97628 196.353L8.72086 197.319C7.4243 196.977 6.14795 196.627 4.89235 196.27L5.16607 195.308ZM12.8298 197.334C14.0859 197.642 15.3597 197.944 16.6508 198.239L16.4282 199.213C15.132 198.917 13.8529 198.615 12.5915 198.305L12.8298 197.334ZM20.5236 199.091C21.798 199.362 23.0881 199.626 24.3933 199.884L24.1996 200.865C22.8898 200.606 21.5951 200.341 20.3159 200.07L20.5236 199.091ZM28.273 200.623C29.5627 200.859 30.8662 201.09 32.1832 201.314L32.0153 202.3C30.6942 202.075 29.3865 201.844 28.0925 201.606L28.273 200.623ZM36.068 201.952C37.368 202.157 38.6803 202.356 40.0046 202.55L39.8601 203.539C38.532 203.345 37.2158 203.145 35.912 202.939L36.068 201.952ZM43.8961 203.096C45.1994 203.272 46.5135 203.442 47.8384 203.606L47.7153 204.599C46.387 204.434 45.0693 204.264 43.7624 204.087L43.8961 203.096ZM51.7487 204.071C53.0551 204.22 54.3712 204.363 55.6968 204.501L55.5936 205.495C54.2647 205.357 52.9454 205.214 51.6357 205.065L51.7487 204.071ZM59.6198 204.889C60.9292 205.012 62.2473 205.13 63.574 205.243L63.4894 206.239C62.1597 206.126 60.8385 206.008 59.526 205.884L59.6198 204.889ZM67.5048 205.559C68.8173 205.658 70.1376 205.753 71.4657 205.842L71.3987 206.84C70.0677 206.75 68.7445 206.656 67.4291 206.556L67.5048 205.559ZM75.4006 206.09C76.7161 206.167 78.0388 206.239 79.3684 206.306L79.3181 207.305C77.9857 207.237 76.6603 207.165 75.342 207.088L75.4006 206.09ZM83.3046 206.488C84.6231 206.544 85.9481 206.595 87.2794 206.64L87.2451 207.64C85.9112 207.594 84.5835 207.543 83.2624 207.487L83.3046 206.488ZM91.2148 206.76C92.5326 206.795 93.8562 206.825 95.1855 206.85L95.1666 207.85C93.8348 207.825 92.5086 207.795 91.1883 207.76L91.2148 206.76ZM99.1295 206.91C100.446 206.925 101.768 206.935 103.094 206.941L103.09 207.94C101.761 207.935 100.437 207.925 99.118 207.91L99.1295 206.91ZM107.047 206.942C108.362 206.938 109.681 206.929 111.005 206.915L111.015 207.915C109.689 207.929 108.367 207.938 107.05 207.942L107.047 206.942ZM114.966 206.859C116.278 206.836 117.595 206.808 118.916 206.776L118.941 207.776C117.618 207.808 116.298 207.836 114.983 207.859L114.966 206.859ZM122.884 206.664C124.195 206.623 125.509 206.577 126.827 206.526L126.866 207.525C125.545 207.576 124.229 207.622 122.916 207.664L122.884 206.664ZM130.793 206.36C132.104 206.3 133.418 206.236 134.736 206.168L134.788 207.166C133.468 207.235 132.151 207.299 130.838 207.359L130.793 206.36ZM138.691 205.948C139.352 205.909 140.013 205.869 140.676 205.828L140.738 206.826C140.075 206.867 139.412 206.907 138.75 206.946L138.691 205.948ZM140.676 205.828C141.331 205.787 141.985 205.745 142.638 205.702L142.703 206.7C142.049 206.743 141.394 206.785 140.738 206.826L140.676 205.828ZM146.553 205.431C147.862 205.337 149.166 205.238 150.467 205.135L150.546 206.132C149.243 206.235 147.936 206.334 146.626 206.429L146.553 205.431ZM154.378 204.812C155.685 204.699 156.988 204.582 158.287 204.462L158.38 205.457C157.078 205.578 155.773 205.695 154.463 205.808L154.378 204.812ZM162.196 204.085C163.502 203.954 164.804 203.82 166.101 203.681L166.207 204.675C164.908 204.814 163.604 204.949 162.295 205.08L162.196 204.085ZM170.003 203.249C171.308 203.101 172.607 202.948 173.902 202.79L174.022 203.783C172.726 203.941 171.424 204.094 170.117 204.243L170.003 203.249ZM177.797 202.304C179.1 202.136 180.397 201.964 181.688 201.788L181.823 202.779C180.529 202.955 179.23 203.128 177.925 203.295L177.797 202.304ZM185.575 201.245C186.875 201.058 188.17 200.867 189.458 200.672L189.607 201.661C188.317 201.856 187.02 202.047 185.717 202.235L185.575 201.245ZM193.336 200.069C194.633 199.863 195.924 199.652 197.209 199.437L197.374 200.423C196.087 200.638 194.793 200.85 193.493 201.057L193.336 200.069ZM201.077 198.774C202.371 198.546 203.659 198.315 204.939 198.079L205.12 199.063C203.837 199.299 202.547 199.531 201.25 199.759L201.077 198.774ZM208.796 197.353C210.087 197.104 211.371 196.851 212.646 196.594L212.844 197.574C211.565 197.832 210.279 198.085 208.985 198.335L208.796 197.353ZM216.49 195.801C217.777 195.53 219.056 195.254 220.326 194.974L220.541 195.951C219.268 196.231 217.987 196.508 216.696 196.78L216.49 195.801ZM224.155 194.112C225.438 193.817 226.712 193.517 227.975 193.213L228.209 194.186C226.942 194.49 225.666 194.791 224.379 195.087L224.155 194.112ZM231.786 192.277C233.065 191.956 234.332 191.631 235.588 191.302L235.841 192.269C234.582 192.599 233.311 192.925 232.03 193.247L231.786 192.277ZM239.378 190.286C240.65 189.938 241.909 189.586 243.156 189.229L243.431 190.19C242.18 190.548 240.917 190.902 239.642 191.251L239.378 190.286ZM246.921 188.128C248.184 187.75 249.434 187.368 250.67 186.982L250.969 187.936C249.729 188.324 248.475 188.707 247.207 189.086L246.921 188.128ZM254.403 185.788C255.659 185.377 256.9 184.962 258.125 184.542L258.449 185.488C257.219 185.91 255.974 186.326 254.714 186.739L254.403 185.788ZM261.828 183.243C262.444 183.022 263.056 182.799 263.664 182.575L264.009 183.514C263.399 183.738 262.785 183.962 262.166 184.184L261.828 183.243ZM263.664 182.575C264.297 182.342 264.926 182.108 265.55 181.872L265.903 182.808C265.276 183.044 264.645 183.28 264.009 183.514L263.664 182.575ZM269.286 180.425C270.544 179.925 271.781 179.419 272.996 178.91L273.383 179.832C272.162 180.344 270.919 180.852 269.655 181.354L269.286 180.425ZM276.681 177.319C277.92 176.769 279.135 176.213 280.323 175.653L280.75 176.558C279.554 177.121 278.333 177.68 277.087 178.233L276.681 177.319ZM283.924 173.902C285.14 173.291 286.326 172.675 287.481 172.054L287.955 172.934C286.791 173.56 285.597 174.18 284.373 174.795L283.924 173.902ZM290.972 170.107C292.153 169.423 293.297 168.733 294.403 168.039L294.935 168.886C293.819 169.587 292.664 170.283 291.473 170.972L290.972 170.107ZM297.743 165.845C298.868 165.072 299.946 164.293 300.974 163.508L301.58 164.304C300.538 165.098 299.448 165.887 298.31 166.669L297.743 165.845ZM304.08 160.998C305.121 160.103 306.098 159.203 307.009 158.299L307.714 159.008C306.784 159.931 305.79 160.847 304.732 161.756L304.08 160.998ZM309.706 155.383C310.59 154.334 311.384 153.281 312.088 152.224L312.92 152.779C312.194 153.869 311.376 154.952 310.471 156.027L309.706 155.383ZM314.044 148.794C314.625 147.572 315.081 146.347 315.411 145.122L316.377 145.382C316.03 146.67 315.552 147.951 314.947 149.223L314.044 148.794ZM316.029 141.265C316.062 140.615 316.058 139.964 316.018 139.313L317.016 139.251C317.059 139.939 317.062 140.628 317.028 141.315L316.029 141.265ZM316.018 139.313C315.979 138.69 315.906 138.071 315.801 137.456L316.786 137.287C316.898 137.937 316.974 138.591 317.016 139.251L316.018 139.313ZM314.787 133.856C314.341 132.723 313.779 131.605 313.103 130.504L313.955 129.981C314.66 131.128 315.249 132.298 315.718 133.49L314.787 133.856ZM310.895 127.439C310.117 126.502 309.254 125.579 308.308 124.669L309.001 123.948C309.972 124.881 310.861 125.832 311.665 126.801L310.895 127.439ZM305.449 122.166C304.489 121.396 303.469 120.638 302.388 119.893L302.955 119.07C304.055 119.828 305.095 120.6 306.075 121.386L305.449 122.166ZM299.178 117.822C298.119 117.181 297.014 116.55 295.863 115.929L296.338 115.049C297.502 115.677 298.622 116.316 299.696 116.966L299.178 117.822ZM292.456 114.186C291.333 113.64 290.173 113.103 288.978 112.576L289.382 111.661C290.587 112.193 291.758 112.735 292.893 113.287L292.456 114.186ZM285.451 111.087C284.287 110.618 283.094 110.156 281.873 109.703L282.221 108.765C283.451 109.222 284.652 109.687 285.825 110.16L285.451 111.087ZM278.261 108.415C277.071 108.008 275.857 107.608 274.619 107.215L274.921 106.262C276.166 106.657 277.387 107.059 278.584 107.469L278.261 108.415ZM270.944 106.093C269.734 105.737 268.503 105.388 267.252 105.046L267.516 104.081C268.773 104.425 270.01 104.776 271.226 105.134L270.944 106.093ZM263.836 183.045L264.009 183.514L263.836 183.045ZM261.792 103.114L267.343 101.527L265.943 107.128L261.792 103.114ZM37.5545 109.963C36.9273 110.13 36.303 110.298 35.6815 110.467L35.4191 109.502C36.0424 109.332 36.6684 109.164 37.2973 108.997L37.5545 109.963ZM31.9672 111.499C30.7215 111.852 29.4882 112.21 28.2673 112.572L27.9832 111.613C29.2078 111.25 30.4449 110.891 31.6941 110.537L31.9672 111.499ZM24.576 113.69C23.335 114.074 22.1079 114.462 20.8949 114.855L20.5869 113.904C21.804 113.51 23.0353 113.12 24.2803 112.734L24.576 113.69ZM17.2314 116.068C16.0007 116.485 14.7857 116.906 13.5868 117.332L13.2524 116.389C14.456 115.962 15.6755 115.539 16.9105 115.121L17.2314 116.068ZM9.96258 118.648C8.7439 119.102 7.54312 119.56 6.36065 120.022L5.99654 119.091C7.18422 118.627 8.39011 118.167 9.61379 117.711L9.96258 118.648ZM2.78332 121.457C1.57914 121.952 0.395722 122.452 -0.76649 122.957L-1.16461 122.039C0.00361611 121.532 1.19292 121.03 2.40282 120.532L2.78332 121.457ZM-4.28502 124.527C-5.47043 125.071 -6.63141 125.62 -7.76742 126.173L-8.20528 125.274C-7.06218 124.717 -5.89429 124.165 -4.70217 123.618L-4.28502 124.527ZM-11.2075 127.902C-12.3669 128.503 -13.4969 129.11 -14.5971 129.72L-15.0825 128.846C-13.9738 128.231 -12.8354 127.62 -11.668 127.014L-11.2075 127.902ZM-17.9256 131.637C-19.0504 132.31 -20.139 132.987 -21.1907 133.669L-21.7348 132.83C-20.6725 132.141 -19.5735 131.457 -18.4387 130.779L-17.9256 131.637ZM-24.3764 135.83C-25.4466 136.59 -26.4709 137.356 -27.4481 138.126L-28.067 137.34C-27.0761 136.559 -26.0385 135.784 -24.9555 135.015L-24.3764 135.83ZM-30.3876 140.582C-31.3733 141.458 -32.2977 142.339 -33.1593 143.225L-33.8759 142.527C-32.9963 141.623 -32.0544 140.726 -31.052 139.834L-30.3876 140.582ZM-35.7009 146.072C-36.5299 147.092 -37.2745 148.116 -37.9328 149.143L-38.7748 148.604C-38.0946 147.543 -37.3277 146.488 -36.477 145.441L-35.7009 146.072ZM-39.7557 152.468C-40.2946 153.65 -40.7175 154.834 -41.0219 156.019L-41.9905 155.77C-41.6704 154.524 -41.2272 153.285 -40.6657 152.053L-39.7557 152.468ZM-41.5851 159.73C-41.6138 160.355 -41.609 160.981 -41.5699 161.607L-42.568 161.669C-42.6093 161.007 -42.6144 160.345 -42.584 159.684L-41.5851 159.73ZM-41.5699 161.607C-41.5299 162.249 -41.4542 162.886 -41.3435 163.519L-42.3286 163.691C-42.4456 163.023 -42.5256 162.348 -42.568 161.669L-41.5699 161.607ZM-40.2779 167.219C-39.8106 168.378 -39.2216 169.52 -38.5136 170.645L-39.3599 171.177C-40.0972 170.006 -40.7142 168.811 -41.2052 167.594L-40.2779 167.219ZM-36.2074 173.766C-35.3952 174.721 -34.4944 175.661 -33.5072 176.586L-34.191 177.316C-35.2033 176.367 -36.1304 175.4 -36.969 174.414L-36.2074 173.766ZM-30.5281 179.129C-29.5315 179.908 -28.4717 180.675 -27.3501 181.429L-27.9079 182.259C-29.0479 181.492 -30.1273 180.712 -31.144 179.917L-30.5281 179.129ZM-24.0257 183.519C-22.9268 184.167 -21.7805 184.805 -20.5882 185.431L-21.0532 186.316C-22.2592 185.683 -23.4198 185.038 -24.5337 184.381L-24.0257 183.519ZM-17.0586 187.189C-15.8928 187.741 -14.6897 188.282 -13.4503 188.814L-13.8447 189.733C-15.0946 189.197 -16.3088 188.65 -17.4861 188.093L-17.0586 187.189ZM-9.79595 190.313C-8.59977 190.782 -7.37407 191.243 -6.11958 191.695L-6.45851 192.635C-7.72141 192.18 -8.95583 191.717 -10.161 191.244L-9.79595 190.313ZM-2.3867 192.986C-1.14908 193.397 0.113554 193.8 1.40061 194.195L1.10718 195.151C-0.186903 194.754 -1.4568 194.348 -2.70188 193.935L-2.3867 192.986ZM5.16607 195.308C6.41542 195.663 7.68567 196.012 8.97628 196.353L8.72086 197.319C7.4243 196.977 6.14795 196.627 4.89235 196.27L5.16607 195.308ZM12.8298 197.334C14.0859 197.642 15.3597 197.944 16.6508 198.239L16.4282 199.213C15.132 198.917 13.8529 198.615 12.5915 198.305L12.8298 197.334ZM20.5236 199.091C21.798 199.362 23.0881 199.626 24.3933 199.884L24.1996 200.865C22.8898 200.606 21.5951 200.341 20.3159 200.07L20.5236 199.091ZM28.273 200.623C29.5627 200.859 30.8662 201.09 32.1832 201.314L32.0153 202.3C30.6942 202.075 29.3865 201.844 28.0925 201.606L28.273 200.623ZM36.068 201.952C37.368 202.157 38.6803 202.356 40.0046 202.55L39.8601 203.539C38.532 203.345 37.2158 203.145 35.912 202.939L36.068 201.952ZM43.8961 203.096C45.1994 203.272 46.5135 203.442 47.8384 203.606L47.7153 204.599C46.387 204.434 45.0693 204.264 43.7624 204.087L43.8961 203.096ZM51.7487 204.071C53.0551 204.22 54.3712 204.363 55.6968 204.501L55.5936 205.495C54.2647 205.357 52.9454 205.214 51.6357 205.065L51.7487 204.071ZM59.6198 204.889C60.9292 205.012 62.2473 205.13 63.574 205.243L63.4894 206.239C62.1597 206.126 60.8385 206.008 59.526 205.884L59.6198 204.889ZM67.5048 205.559C68.8173 205.658 70.1376 205.753 71.4657 205.842L71.3987 206.84C70.0677 206.75 68.7445 206.656 67.4291 206.556L67.5048 205.559ZM75.4006 206.09C76.7161 206.167 78.0388 206.239 79.3684 206.306L79.3181 207.305C77.9857 207.237 76.6603 207.165 75.342 207.088L75.4006 206.09ZM83.3046 206.488C84.6231 206.544 85.9481 206.595 87.2794 206.64L87.2451 207.64C85.9112 207.594 84.5835 207.543 83.2624 207.487L83.3046 206.488ZM91.2148 206.76C92.5326 206.795 93.8562 206.825 95.1855 206.85L95.1666 207.85C93.8348 207.825 92.5086 207.795 91.1883 207.76L91.2148 206.76ZM99.1295 206.91C100.446 206.925 101.768 206.935 103.094 206.941L103.09 207.94C101.761 207.935 100.437 207.925 99.118 207.91L99.1295 206.91ZM107.047 206.942C108.362 206.938 109.681 206.929 111.005 206.915L111.015 207.915C109.689 207.929 108.367 207.938 107.05 207.942L107.047 206.942ZM114.966 206.859C116.278 206.836 117.595 206.808 118.916 206.776L118.941 207.776C117.618 207.808 116.298 207.836 114.983 207.859L114.966 206.859ZM122.884 206.664C124.195 206.623 125.509 206.577 126.827 206.526L126.866 207.525C125.545 207.576 124.229 207.622 122.916 207.664L122.884 206.664ZM130.793 206.36C132.104 206.3 133.418 206.236 134.736 206.168L134.788 207.166C133.468 207.235 132.151 207.299 130.838 207.359L130.793 206.36ZM138.691 205.948C139.352 205.909 140.013 205.869 140.676 205.828L140.738 206.826C140.075 206.867 139.412 206.907 138.75 206.946L138.691 205.948ZM140.676 205.828C141.331 205.787 141.985 205.745 142.638 205.702L142.703 206.7C142.049 206.743 141.394 206.785 140.738 206.826L140.676 205.828ZM146.553 205.431C147.862 205.337 149.166 205.238 150.467 205.135L150.546 206.132C149.243 206.235 147.936 206.334 146.626 206.429L146.553 205.431ZM154.378 204.812C155.685 204.699 156.988 204.582 158.287 204.462L158.38 205.457C157.078 205.578 155.773 205.695 154.463 205.808L154.378 204.812ZM162.196 204.085C163.502 203.954 164.804 203.82 166.101 203.681L166.207 204.675C164.908 204.814 163.604 204.949 162.295 205.08L162.196 204.085ZM170.003 203.249C171.308 203.101 172.607 202.948 173.902 202.79L174.022 203.783C172.726 203.941 171.424 204.094 170.117 204.243L170.003 203.249ZM177.797 202.304C179.1 202.136 180.397 201.964 181.688 201.788L181.823 202.779C180.529 202.955 179.23 203.128 177.925 203.295L177.797 202.304ZM185.575 201.245C186.875 201.058 188.17 200.867 189.458 200.672L189.607 201.661C188.317 201.856 187.02 202.047 185.717 202.235L185.575 201.245ZM193.336 200.069C194.633 199.863 195.924 199.652 197.209 199.437L197.374 200.423C196.087 200.638 194.793 200.85 193.493 201.057L193.336 200.069ZM201.077 198.774C202.371 198.546 203.659 198.315 204.939 198.079L205.12 199.063C203.837 199.299 202.547 199.531 201.25 199.759L201.077 198.774ZM208.796 197.353C210.087 197.104 211.371 196.851 212.646 196.594L212.844 197.574C211.565 197.832 210.279 198.085 208.985 198.335L208.796 197.353ZM216.49 195.801C217.777 195.53 219.056 195.254 220.326 194.974L220.541 195.951C219.268 196.231 217.987 196.508 216.696 196.78L216.49 195.801ZM224.155 194.112C225.438 193.817 226.712 193.517 227.975 193.213L228.209 194.186C226.942 194.49 225.666 194.791 224.379 195.087L224.155 194.112ZM231.786 192.277C233.065 191.956 234.332 191.631 235.588 191.302L235.841 192.269C234.582 192.599 233.311 192.925 232.03 193.247L231.786 192.277ZM239.378 190.286C240.65 189.938 241.909 189.586 243.156 189.229L243.431 190.19C242.18 190.548 240.917 190.902 239.642 191.251L239.378 190.286ZM246.921 188.128C248.184 187.75 249.434 187.368 250.67 186.982L250.969 187.936C249.729 188.324 248.475 188.707 247.207 189.086L246.921 188.128ZM254.403 185.788C255.659 185.377 256.9 184.962 258.125 184.542L258.449 185.488C257.219 185.91 255.974 186.326 254.714 186.739L254.403 185.788ZM261.828 183.243C262.444 183.022 263.056 182.799 263.664 182.575L264.009 183.514C263.399 183.738 262.785 183.962 262.166 184.184L261.828 183.243ZM263.664 182.575C264.297 182.342 264.926 182.108 265.55 181.872L265.903 182.808C265.276 183.044 264.645 183.28 264.009 183.514L263.664 182.575ZM269.286 180.425C270.544 179.925 271.781 179.419 272.996 178.91L273.383 179.832C272.162 180.344 270.919 180.852 269.655 181.354L269.286 180.425ZM276.681 177.319C277.92 176.769 279.135 176.213 280.323 175.653L280.75 176.558C279.554 177.121 278.333 177.68 277.087 178.233L276.681 177.319ZM283.924 173.902C285.14 173.291 286.326 172.675 287.481 172.054L287.955 172.934C286.791 173.56 285.597 174.18 284.373 174.795L283.924 173.902ZM290.972 170.107C292.153 169.423 293.297 168.733 294.403 168.039L294.935 168.886C293.819 169.587 292.664 170.283 291.473 170.972L290.972 170.107ZM297.743 165.845C298.868 165.072 299.946 164.293 300.974 163.508L301.58 164.304C300.538 165.098 299.448 165.887 298.31 166.669L297.743 165.845ZM304.08 160.998C305.121 160.103 306.098 159.203 307.009 158.299L307.714 159.008C306.784 159.931 305.79 160.847 304.732 161.756L304.08 160.998ZM309.706 155.383C310.59 154.334 311.384 153.281 312.088 152.224L312.92 152.779C312.194 153.869 311.376 154.952 310.471 156.027L309.706 155.383ZM314.044 148.794C314.625 147.572 315.081 146.347 315.411 145.122L316.377 145.382C316.03 146.67 315.552 147.951 314.947 149.223L314.044 148.794ZM316.029 141.265C316.062 140.615 316.058 139.964 316.018 139.313L317.016 139.251C317.059 139.939 317.062 140.628 317.028 141.315L316.029 141.265ZM316.018 139.313C315.979 138.69 315.906 138.071 315.801 137.456L316.786 137.287C316.898 137.937 316.974 138.591 317.016 139.251L316.018 139.313ZM314.787 133.856C314.341 132.723 313.779 131.605 313.103 130.504L313.955 129.981C314.66 131.128 315.249 132.298 315.718 133.49L314.787 133.856ZM310.895 127.439C310.117 126.502 309.254 125.579 308.308 124.669L309.001 123.948C309.972 124.881 310.861 125.832 311.665 126.801L310.895 127.439ZM305.449 122.166C304.489 121.396 303.469 120.638 302.388 119.893L302.955 119.07C304.055 119.828 305.095 120.6 306.075 121.386L305.449 122.166ZM299.178 117.822C298.119 117.181 297.014 116.55 295.863 115.929L296.338 115.049C297.502 115.677 298.622 116.316 299.696 116.966L299.178 117.822ZM292.456 114.186C291.333 113.64 290.173 113.103 288.978 112.576L289.382 111.661C290.587 112.193 291.758 112.735 292.893 113.287L292.456 114.186ZM285.451 111.087C284.287 110.618 283.094 110.156 281.873 109.703L282.221 108.765C283.451 109.222 284.652 109.687 285.825 110.16L285.451 111.087ZM278.261 108.415C277.071 108.008 275.857 107.608 274.619 107.215L274.921 106.262C276.166 106.657 277.387 107.059 278.584 107.469L278.261 108.415ZM270.944 106.093C269.734 105.737 268.503 105.388 267.252 105.046L267.516 104.081C268.773 104.425 270.01 104.776 271.226 105.134L270.944 106.093Z" fill="#C590FB"/>
<path d="M234.525 212.996L235.016 212.904L234.525 212.996ZM182.085 240.8L183.239 246.457L187.561 242.63L182.085 240.8ZM97.2542 75.5855C97.0738 74.9306 96.8963 74.2785 96.7217 73.6292L95.756 73.8888C95.9311 74.5402 96.1092 75.1943 96.2901 75.8511L97.2542 75.5855ZM95.6987 69.7251C95.3625 68.4071 95.0389 67.1015 94.7278 65.8086L93.7555 66.0426C94.0677 67.3399 94.3925 68.65 94.7298 69.9723L95.6987 69.7251ZM93.8126 61.8803C93.5135 60.5523 93.2284 59.2389 92.9574 57.9408L91.9785 58.1452C92.2506 59.4485 92.5368 60.767 92.837 62.1L93.8126 61.8803ZM92.1666 53.9882C91.91 52.6453 91.6693 51.3203 91.4447 50.0139L90.4592 50.1834C90.6849 51.496 90.9266 52.8271 91.1844 54.1759L92.1666 53.9882ZM90.8011 46.0303C90.5971 44.6781 90.4115 43.3479 90.2445 42.0407L89.2526 42.1674C89.4205 43.4824 89.6072 44.8201 89.8123 46.1795L90.8011 46.0303ZM89.7847 38.0429C89.6453 36.674 89.5281 35.3334 89.4334 34.0221L88.436 34.0942C88.5315 35.4157 88.6495 36.766 88.7898 38.1442L89.7847 38.0429ZM89.2098 30.0113C89.1569 28.63 89.1316 27.2863 89.1342 25.9816L88.1342 25.9796C88.1316 27.2985 88.1572 28.6557 88.2106 30.0496L89.2098 30.0113ZM89.236 21.9736C89.3061 20.586 89.4125 19.2512 89.5554 17.9715L88.5616 17.8605C88.4163 19.162 88.3083 20.5169 88.2372 21.9231L89.236 21.9736ZM90.1484 14.0107C90.4121 12.6372 90.7273 11.3455 91.0941 10.1387L90.1374 9.84782C89.7592 11.0919 89.4359 12.4181 89.1664 13.8222L90.1484 14.0107ZM92.5073 6.43793C93.1068 5.17598 93.7853 4.05356 94.5426 3.07501L93.7517 2.46303C92.9451 3.50541 92.2302 4.69069 91.604 6.00884L92.5073 6.43793ZM97.3247 0.374454C97.8538 0.000245986 98.4093 -0.32676 98.9915 -0.605562L98.5596 -1.50748C97.9259 -1.20401 97.3218 -0.848291 96.7473 -0.441988L97.3247 0.374454ZM98.9915 -0.605562C99.5741 -0.884566 100.178 -1.11244 100.801 -1.29011L100.527 -2.25185C99.8501 -2.05894 99.1938 -1.81118 98.5596 -1.50748L98.9915 -0.605562ZM104.642 -1.76432C105.875 -1.74134 107.17 -1.56794 108.524 -1.24646L108.755 -2.2194C107.34 -2.55523 105.974 -2.73967 104.661 -2.76415L104.642 -1.76432ZM112.306 -0.0253209C113.474 0.444205 114.676 1.00692 115.908 1.66071L116.377 0.777246C115.117 0.108854 113.883 -0.469127 112.679 -0.953153L112.306 -0.0253209ZM119.354 3.67268C120.439 4.36184 121.544 5.11381 122.668 5.92709L123.254 5.11705C122.115 4.29289 120.994 3.52942 119.89 2.82855L119.354 3.67268ZM125.86 8.36284C126.875 9.17619 127.904 10.0355 128.944 10.9397L129.6 10.1849C128.55 9.27249 127.512 8.40455 126.485 7.58232L125.86 8.36284ZM131.934 13.6308C132.894 14.5244 133.863 15.4537 134.84 16.418L135.543 15.7062C134.559 14.7354 133.583 13.7993 132.615 12.8987L131.934 13.6308ZM137.674 19.2885C138.591 20.2412 139.514 21.223 140.443 22.2332L141.18 21.5563C140.246 20.5407 139.317 19.5533 138.394 18.595L137.674 19.2885ZM143.133 25.2192C144.006 26.2082 144.883 27.2213 145.764 28.2577L146.526 27.61C145.641 26.5689 144.76 25.5513 143.883 24.5575L143.133 25.2192ZM148.35 31.3529C149.195 32.3819 150.044 33.4317 150.895 34.5017L151.677 33.8793C150.823 32.8052 149.972 31.7514 149.123 30.7182L148.35 31.3529ZM153.374 37.6664C154.184 38.717 154.997 39.7853 155.812 40.871L156.612 40.2709C155.794 39.1816 154.979 38.1097 154.165 37.0555L153.374 37.6664ZM158.219 44.1233C159.003 45.1969 159.788 46.2862 160.574 47.3907L161.389 46.8108C160.6 45.703 159.813 44.6105 159.026 43.5335L158.219 44.1233ZM162.89 50.6853C163.654 51.7843 164.417 52.8974 165.182 54.0241L166.009 53.4628C165.243 52.333 164.477 51.2169 163.712 50.1148L162.89 50.6853ZM167.422 57.3644C168.159 58.4768 168.897 59.6016 169.634 60.7385L170.473 60.1945C169.734 59.0547 168.994 57.927 168.255 56.8119L167.422 57.3644ZM171.818 64.1434C172.532 65.2676 173.245 66.4029 173.957 67.5491L174.806 67.0213C174.092 65.8724 173.378 64.7344 172.662 63.6076L171.818 64.1434ZM176.077 70.9958C176.771 72.1352 177.464 73.2847 178.156 74.4442L179.014 73.9318C178.321 72.7698 177.627 71.6177 176.931 70.4758L176.077 70.9958ZM180.209 77.9199C180.885 79.0756 181.56 80.2406 182.233 81.4147L183.101 80.9172C182.426 79.7406 181.75 78.5731 181.072 77.4149L180.209 77.9199ZM184.223 84.9179C184.882 86.0881 185.539 87.2668 186.194 88.4538L187.069 87.9706C186.413 86.7812 185.755 85.6001 185.095 84.4276L184.223 84.9179ZM188.123 91.9836C188.763 93.1646 189.401 94.3534 190.036 95.5499L190.919 95.0806C190.283 93.8819 189.644 92.6908 189.003 91.5074L188.123 91.9836ZM191.911 99.1117C192.532 100.302 193.15 101.499 193.766 102.703L194.656 102.248C194.039 101.041 193.42 99.8417 192.798 98.6494L191.911 99.1117ZM195.588 106.298C196.19 107.497 196.79 108.702 197.387 109.914L198.284 109.472C197.686 108.258 197.085 107.051 196.482 105.849L195.588 106.298ZM199.157 113.54C199.45 114.147 199.743 114.756 200.035 115.366L200.937 114.934C200.645 114.323 200.351 113.713 200.057 113.104L199.157 113.54ZM200.035 115.366C200.324 115.968 200.61 116.569 200.895 117.17L201.799 116.741C201.513 116.139 201.226 115.537 200.937 114.934L200.035 115.366ZM202.592 120.783C203.156 121.993 203.712 123.201 204.263 124.407L205.173 123.992C204.621 122.784 204.063 121.573 203.499 120.361L202.592 120.783ZM205.906 128.044C206.451 129.263 206.99 130.48 207.521 131.693L208.437 131.292C207.904 130.076 207.365 128.857 206.819 127.636L205.906 128.044ZM209.109 135.354C209.635 136.582 210.155 137.807 210.668 139.029L211.59 138.642C211.076 137.417 210.555 136.19 210.028 134.96L209.109 135.354ZM212.199 142.716C212.707 143.953 213.207 145.186 213.7 146.415L214.628 146.042C214.134 144.811 213.633 143.575 213.124 142.336L212.199 142.716ZM215.171 150.125C215.659 151.37 216.139 152.611 216.611 153.847L217.545 153.49C217.072 152.252 216.591 151.008 216.102 149.761L215.171 150.125ZM218.019 157.58C218.485 158.833 218.944 160.081 219.394 161.324L220.334 160.983C219.883 159.738 219.424 158.487 218.956 157.231L218.019 157.58ZM220.737 165.084C221.182 166.348 221.618 167.605 222.045 168.856L222.992 168.532C222.563 167.279 222.126 166.019 221.68 164.752L220.737 165.084ZM223.317 172.638C223.738 173.909 224.149 175.173 224.551 176.429L225.504 176.125C225.101 174.865 224.688 173.598 224.267 172.323L223.317 172.638ZM225.748 180.237C226.143 181.519 226.529 182.793 226.904 184.057L227.863 183.773C227.487 182.505 227.1 181.227 226.703 179.942L225.748 180.237ZM228.017 187.887C228.384 189.178 228.741 190.458 229.086 191.728L230.051 191.466C229.705 190.192 229.347 188.908 228.979 187.613L228.017 187.887ZM230.108 195.588C230.444 196.888 230.768 198.177 231.08 199.453L232.051 199.216C231.738 197.935 231.414 196.642 231.077 195.337L230.108 195.588ZM231.998 203.336C232.299 204.648 232.586 205.945 232.86 207.229L233.838 207.02C233.563 205.732 233.275 204.429 232.973 203.112L231.998 203.336ZM233.659 211.134C233.787 211.79 233.912 212.441 234.033 213.088L235.016 212.904C234.895 212.254 234.769 211.6 234.64 210.942L233.659 211.134ZM234.033 213.088C234.16 213.768 234.283 214.444 234.402 215.116L235.387 214.941C235.267 214.267 235.144 213.588 235.016 212.904L234.033 213.088ZM235.079 219.172C235.295 220.55 235.491 221.905 235.668 223.236L236.66 223.104C236.481 221.765 236.284 220.402 236.067 219.018L235.079 219.172ZM236.161 227.321C236.31 228.713 236.437 230.077 236.542 231.41L237.538 231.333C237.433 229.989 237.306 228.616 237.155 227.214L236.161 227.321ZM236.794 235.505C236.856 236.91 236.891 238.277 236.897 239.604L237.897 239.6C237.891 238.258 237.856 236.878 237.793 235.461L236.794 235.505ZM236.82 243.702C236.758 245.118 236.659 246.48 236.523 247.786L237.517 247.89C237.656 246.562 237.756 245.18 237.819 243.746L236.82 243.702ZM235.949 251.826C235.691 253.231 235.38 254.552 235.016 255.786L235.975 256.069C236.35 254.798 236.669 253.442 236.933 252.007L235.949 251.826ZM233.606 259.575C233.005 260.868 232.323 262.018 231.56 263.02L232.355 263.626C233.168 262.559 233.886 261.346 234.513 259.997L233.606 259.575ZM228.739 265.79C228.2 266.174 227.634 266.508 227.04 266.793L227.472 267.695C228.119 267.385 228.734 267.021 229.319 266.605L228.739 265.79ZM227.04 266.793C226.472 267.065 225.884 267.288 225.277 267.464L225.555 268.424C226.214 268.234 226.854 267.991 227.472 267.695L227.04 266.793ZM221.528 267.953C220.321 267.942 219.054 267.785 217.729 267.485L217.508 268.46C218.893 268.774 220.232 268.941 221.519 268.953L221.528 267.953ZM214.041 266.337C212.893 265.89 211.713 265.352 210.501 264.724L210.041 265.612C211.281 266.254 212.494 266.808 213.678 267.269L214.041 266.337ZM207.116 262.79C206.05 262.127 204.965 261.402 203.862 260.617L203.282 261.432C204.401 262.228 205.503 262.964 206.588 263.639L207.116 262.79ZM200.727 258.266C199.731 257.48 198.721 256.65 197.699 255.775L197.049 256.535C198.08 257.418 199.1 258.257 200.108 259.051L200.727 258.266ZM194.765 253.172C193.822 252.308 192.87 251.408 191.911 250.474L191.213 251.191C192.18 252.131 193.138 253.038 194.089 253.909L194.765 253.172ZM189.128 247.693C188.231 246.774 187.328 245.827 186.419 244.851L185.688 245.533C186.601 246.514 187.51 247.467 188.412 248.392L189.128 247.693ZM234.525 212.996L235.016 212.904L234.525 212.996ZM182.085 240.8L183.239 246.457L187.561 242.63L182.085 240.8ZM97.2542 75.5855C97.0738 74.9306 96.8963 74.2785 96.7217 73.6292L95.756 73.8888C95.9311 74.5402 96.1092 75.1943 96.2901 75.8511L97.2542 75.5855ZM95.6987 69.7251C95.3625 68.4071 95.0389 67.1015 94.7278 65.8086L93.7555 66.0426C94.0677 67.3399 94.3925 68.65 94.7298 69.9723L95.6987 69.7251ZM93.8126 61.8803C93.5135 60.5523 93.2284 59.2389 92.9574 57.9408L91.9785 58.1452C92.2506 59.4485 92.5368 60.767 92.837 62.1L93.8126 61.8803ZM92.1666 53.9882C91.91 52.6453 91.6693 51.3203 91.4447 50.0139L90.4592 50.1834C90.6849 51.496 90.9266 52.8271 91.1844 54.1759L92.1666 53.9882ZM90.8011 46.0303C90.5971 44.6781 90.4115 43.3479 90.2445 42.0407L89.2526 42.1674C89.4205 43.4824 89.6072 44.8201 89.8123 46.1795L90.8011 46.0303ZM89.7847 38.0429C89.6453 36.674 89.5281 35.3334 89.4334 34.0221L88.436 34.0942C88.5315 35.4157 88.6495 36.766 88.7898 38.1442L89.7847 38.0429ZM89.2098 30.0113C89.1569 28.63 89.1316 27.2863 89.1342 25.9816L88.1342 25.9796C88.1316 27.2985 88.1572 28.6557 88.2106 30.0496L89.2098 30.0113ZM89.236 21.9736C89.3061 20.586 89.4125 19.2512 89.5554 17.9715L88.5616 17.8605C88.4163 19.162 88.3083 20.5169 88.2372 21.9231L89.236 21.9736ZM90.1484 14.0107C90.4121 12.6372 90.7273 11.3455 91.0941 10.1387L90.1374 9.84782C89.7592 11.0919 89.4359 12.4181 89.1664 13.8222L90.1484 14.0107ZM92.5073 6.43793C93.1068 5.17598 93.7853 4.05356 94.5426 3.07501L93.7517 2.46303C92.9451 3.50541 92.2302 4.69069 91.604 6.00884L92.5073 6.43793ZM97.3247 0.374454C97.8538 0.000245986 98.4093 -0.32676 98.9915 -0.605562L98.5596 -1.50748C97.9259 -1.20401 97.3218 -0.848291 96.7473 -0.441988L97.3247 0.374454ZM98.9915 -0.605562C99.5741 -0.884566 100.178 -1.11244 100.801 -1.29011L100.527 -2.25185C99.8501 -2.05894 99.1938 -1.81118 98.5596 -1.50748L98.9915 -0.605562ZM104.642 -1.76432C105.875 -1.74134 107.17 -1.56794 108.524 -1.24646L108.755 -2.2194C107.34 -2.55523 105.974 -2.73967 104.661 -2.76415L104.642 -1.76432ZM112.306 -0.0253209C113.474 0.444205 114.676 1.00692 115.908 1.66071L116.377 0.777246C115.117 0.108854 113.883 -0.469127 112.679 -0.953153L112.306 -0.0253209ZM119.354 3.67268C120.439 4.36184 121.544 5.11381 122.668 5.92709L123.254 5.11705C122.115 4.29289 120.994 3.52942 119.89 2.82855L119.354 3.67268ZM125.86 8.36284C126.875 9.17619 127.904 10.0355 128.944 10.9397L129.6 10.1849C128.55 9.27249 127.512 8.40455 126.485 7.58232L125.86 8.36284ZM131.934 13.6308C132.894 14.5244 133.863 15.4537 134.84 16.418L135.543 15.7062C134.559 14.7354 133.583 13.7993 132.615 12.8987L131.934 13.6308ZM137.674 19.2885C138.591 20.2412 139.514 21.223 140.443 22.2332L141.18 21.5563C140.246 20.5407 139.317 19.5533 138.394 18.595L137.674 19.2885ZM143.133 25.2192C144.006 26.2082 144.883 27.2213 145.764 28.2577L146.526 27.61C145.641 26.5689 144.76 25.5513 143.883 24.5575L143.133 25.2192ZM148.35 31.3529C149.195 32.3819 150.044 33.4317 150.895 34.5017L151.677 33.8793C150.823 32.8052 149.972 31.7514 149.123 30.7182L148.35 31.3529ZM153.374 37.6664C154.184 38.717 154.997 39.7853 155.812 40.871L156.612 40.2709C155.794 39.1816 154.979 38.1097 154.165 37.0555L153.374 37.6664ZM158.219 44.1233C159.003 45.1969 159.788 46.2862 160.574 47.3907L161.389 46.8108C160.6 45.703 159.813 44.6105 159.026 43.5335L158.219 44.1233ZM162.89 50.6853C163.654 51.7843 164.417 52.8974 165.182 54.0241L166.009 53.4628C165.243 52.333 164.477 51.2169 163.712 50.1148L162.89 50.6853ZM167.422 57.3644C168.159 58.4768 168.897 59.6016 169.634 60.7385L170.473 60.1945C169.734 59.0547 168.994 57.927 168.255 56.8119L167.422 57.3644ZM171.818 64.1434C172.532 65.2676 173.245 66.4029 173.957 67.5491L174.806 67.0213C174.092 65.8724 173.378 64.7344 172.662 63.6076L171.818 64.1434ZM176.077 70.9958C176.771 72.1352 177.464 73.2847 178.156 74.4442L179.014 73.9318C178.321 72.7698 177.627 71.6177 176.931 70.4758L176.077 70.9958ZM180.209 77.9199C180.885 79.0756 181.56 80.2406 182.233 81.4147L183.101 80.9172C182.426 79.7406 181.75 78.5731 181.072 77.4149L180.209 77.9199ZM184.223 84.9179C184.882 86.0881 185.539 87.2668 186.194 88.4538L187.069 87.9706C186.413 86.7812 185.755 85.6001 185.095 84.4276L184.223 84.9179ZM188.123 91.9836C188.763 93.1646 189.401 94.3534 190.036 95.5499L190.919 95.0806C190.283 93.8819 189.644 92.6908 189.003 91.5074L188.123 91.9836ZM191.911 99.1117C192.532 100.302 193.15 101.499 193.766 102.703L194.656 102.248C194.039 101.041 193.42 99.8417 192.798 98.6494L191.911 99.1117ZM195.588 106.298C196.19 107.497 196.79 108.702 197.387 109.914L198.284 109.472C197.686 108.258 197.085 107.051 196.482 105.849L195.588 106.298ZM199.157 113.54C199.45 114.147 199.743 114.756 200.035 115.366L200.937 114.934C200.645 114.323 200.351 113.713 200.057 113.104L199.157 113.54ZM200.035 115.366C200.324 115.968 200.61 116.569 200.895 117.17L201.799 116.741C201.513 116.139 201.226 115.537 200.937 114.934L200.035 115.366ZM202.592 120.783C203.156 121.993 203.712 123.201 204.263 124.407L205.173 123.992C204.621 122.784 204.063 121.573 203.499 120.361L202.592 120.783ZM205.906 128.044C206.451 129.263 206.99 130.48 207.521 131.693L208.437 131.292C207.904 130.076 207.365 128.857 206.819 127.636L205.906 128.044ZM209.109 135.354C209.635 136.582 210.155 137.807 210.668 139.029L211.59 138.642C211.076 137.417 210.555 136.19 210.028 134.96L209.109 135.354ZM212.199 142.716C212.707 143.953 213.207 145.186 213.7 146.415L214.628 146.042C214.134 144.811 213.633 143.575 213.124 142.336L212.199 142.716ZM215.171 150.125C215.659 151.37 216.139 152.611 216.611 153.847L217.545 153.49C217.072 152.252 216.591 151.008 216.102 149.761L215.171 150.125ZM218.019 157.58C218.485 158.833 218.944 160.081 219.394 161.324L220.334 160.983C219.883 159.738 219.424 158.487 218.956 157.231L218.019 157.58ZM220.737 165.084C221.182 166.348 221.618 167.605 222.045 168.856L222.992 168.532C222.563 167.279 222.126 166.019 221.68 164.752L220.737 165.084ZM223.317 172.638C223.738 173.909 224.149 175.173 224.551 176.429L225.504 176.125C225.101 174.865 224.688 173.598 224.267 172.323L223.317 172.638ZM225.748 180.237C226.143 181.519 226.529 182.793 226.904 184.057L227.863 183.773C227.487 182.505 227.1 181.227 226.703 179.942L225.748 180.237ZM228.017 187.887C228.384 189.178 228.741 190.458 229.086 191.728L230.051 191.466C229.705 190.192 229.347 188.908 228.979 187.613L228.017 187.887ZM230.108 195.588C230.444 196.888 230.768 198.177 231.08 199.453L232.051 199.216C231.738 197.935 231.414 196.642 231.077 195.337L230.108 195.588ZM231.998 203.336C232.299 204.648 232.586 205.945 232.86 207.229L233.838 207.02C233.563 205.732 233.275 204.429 232.973 203.112L231.998 203.336ZM233.659 211.134C233.787 211.79 233.912 212.441 234.033 213.088L235.016 212.904C234.895 212.254 234.769 211.6 234.64 210.942L233.659 211.134ZM234.033 213.088C234.16 213.768 234.283 214.444 234.402 215.116L235.387 214.941C235.267 214.267 235.144 213.588 235.016 212.904L234.033 213.088ZM235.079 219.172C235.295 220.55 235.491 221.905 235.668 223.236L236.66 223.104C236.481 221.765 236.284 220.402 236.067 219.018L235.079 219.172ZM236.161 227.321C236.31 228.713 236.437 230.077 236.542 231.41L237.538 231.333C237.433 229.989 237.306 228.616 237.155 227.214L236.161 227.321ZM236.794 235.505C236.856 236.91 236.891 238.277 236.897 239.604L237.897 239.6C237.891 238.258 237.856 236.878 237.793 235.461L236.794 235.505ZM236.82 243.702C236.758 245.118 236.659 246.48 236.523 247.786L237.517 247.89C237.656 246.562 237.756 245.18 237.819 243.746L236.82 243.702ZM235.949 251.826C235.691 253.231 235.38 254.552 235.016 255.786L235.975 256.069C236.35 254.798 236.669 253.442 236.933 252.007L235.949 251.826ZM233.606 259.575C233.005 260.868 232.323 262.018 231.56 263.02L232.355 263.626C233.168 262.559 233.886 261.346 234.513 259.997L233.606 259.575ZM228.739 265.79C228.2 266.174 227.634 266.508 227.04 266.793L227.472 267.695C228.119 267.385 228.734 267.021 229.319 266.605L228.739 265.79ZM227.04 266.793C226.472 267.065 225.884 267.288 225.277 267.464L225.555 268.424C226.214 268.234 226.854 267.991 227.472 267.695L227.04 266.793ZM221.528 267.953C220.321 267.942 219.054 267.785 217.729 267.485L217.508 268.46C218.893 268.774 220.232 268.941 221.519 268.953L221.528 267.953ZM214.041 266.337C212.893 265.89 211.713 265.352 210.501 264.724L210.041 265.612C211.281 266.254 212.494 266.808 213.678 267.269L214.041 266.337ZM207.116 262.79C206.05 262.127 204.965 261.402 203.862 260.617L203.282 261.432C204.401 262.228 205.503 262.964 206.588 263.639L207.116 262.79ZM200.727 258.266C199.731 257.48 198.721 256.65 197.699 255.775L197.049 256.535C198.08 257.418 199.1 258.257 200.108 259.051L200.727 258.266ZM194.765 253.172C193.822 252.308 192.87 251.408 191.911 250.474L191.213 251.191C192.18 252.131 193.138 253.038 194.089 253.909L194.765 253.172ZM189.128 247.693C188.231 246.774 187.328 245.827 186.419 244.851L185.688 245.533C186.601 246.514 187.51 247.467 188.412 248.392L189.128 247.693Z" fill="#C590FB"/>
<path d="M32.7473 138.803L31.3338 133.205L27.1927 137.228L32.7473 138.803ZM252.745 145.181L253.14 144.874L252.745 145.181ZM-1.27717 54.2142C3.25098 46.3712 11.323 41.0199 22.1236 38.0959C32.927 35.1711 46.4249 34.6866 61.7251 36.5562C92.3235 40.2952 130.03 53.437 167.575 75.1137L168.075 74.2477C130.442 52.5203 92.6077 39.3225 61.8464 35.5636C46.4668 33.6843 32.8302 34.1613 21.8623 37.1306C10.8916 40.1007 2.55547 45.5759 -2.1432 53.7142L-1.27717 54.2142ZM29.9772 135.234C15.246 119.78 4.60735 104.37 -0.928981 90.3857C-6.46703 76.3976 -6.87484 63.9097 -1.27717 54.2142L-2.1432 53.7142C-7.95325 63.7776 -7.45636 76.6153 -1.85876 90.7539C3.74056 104.897 14.4685 120.414 29.2534 135.924L29.9772 135.234ZM167.575 75.1137C204.096 96.1993 233.701 121.455 252.35 145.487L253.14 144.874C234.395 120.719 204.683 95.3831 168.075 74.2477L167.575 75.1137ZM252.35 145.487C262.198 158.178 268.976 170.507 272.117 181.683C275.257 192.857 274.752 202.838 270.1 210.894L270.966 211.394C275.793 203.034 276.267 192.755 273.08 181.412C269.893 170.072 263.037 157.627 253.14 144.874L252.35 145.487ZM270.1 210.894C265.584 218.717 257.541 224.061 246.782 226.99C236.02 229.92 222.575 230.422 207.332 228.581L207.212 229.573C222.534 231.424 236.118 230.93 247.045 227.955C257.974 224.98 266.28 219.512 270.966 211.394L270.1 210.894Z" fill="#C590FB"/>
<circle cx="243.149" cy="70.1157" r="14.4788" fill="url(#paint5_linear_4932_740)"/>
<defs>
<linearGradient id="paint0_linear_4932_740" x1="140.651" y1="251.407" x2="140.651" y2="60.5316" gradientUnits="userSpaceOnUse">
<stop stop-color="#2D3915"/>
<stop offset="1" stop-color="#549B5F"/>
</linearGradient>
<linearGradient id="paint1_linear_4932_740" x1="43.0656" y1="132.552" x2="237.74" y2="178.416" gradientUnits="userSpaceOnUse">
<stop offset="0.01" stop-color="#39AA44"/>
<stop offset="0.697222" stop-color="#C590FB"/>
</linearGradient>
<linearGradient id="paint2_linear_4932_740" x1="58.7006" y1="59.8138" x2="79.0984" y2="87.8453" gradientUnits="userSpaceOnUse">
<stop stop-color="#2D3915"/>
<stop offset="1" stop-color="#C590FB"/>
</linearGradient>
<linearGradient id="paint3_linear_4932_740" x1="164.104" y1="18.9307" x2="164.104" y2="70.3201" gradientUnits="userSpaceOnUse">
<stop stop-color="#39AA44"/>
<stop offset="1" stop-color="#C590FB"/>
</linearGradient>
<linearGradient id="paint4_linear_4932_740" x1="91.2636" y1="40.1516" x2="102.351" y2="76.4252" gradientUnits="userSpaceOnUse">
<stop stop-color="#BFE470"/>
<stop offset="1" stop-color="#C590FB"/>
</linearGradient>
<linearGradient id="paint5_linear_4932_740" x1="257.627" y1="61.5712" x2="228.67" y2="78.6603" gradientUnits="userSpaceOnUse">
<stop stop-color="#C590FB"/>
<stop offset="0.59" stop-color="#9D97C7"/>
<stop offset="1" stop-color="#39AA44"/>
</linearGradient>
</defs>
</svg>
