<svg width="144" height="50" viewBox="0 0 144 50" fill="none" xmlns="http://www.w3.org/2000/svg">
<path d="M63.0078 42.3906C61.3802 42.3906 59.9023 42.1237 58.5742 41.5898C57.2461 41.056 56.1068 40.3268 55.1562 39.4023C54.2057 38.4909 53.4701 37.4167 52.9492 36.1797C52.4414 34.9297 52.1875 33.5951 52.1875 32.1758V31.3945C52.1875 29.7799 52.4414 28.3086 52.9492 26.9805C53.457 25.6393 54.1667 24.487 55.0781 23.5234C55.9896 22.5599 57.0703 21.8112 58.3203 21.2773C59.5703 20.7435 60.931 20.4766 62.4023 20.4766C63.9258 20.4766 65.2799 20.7305 66.4648 21.2383C67.6628 21.7331 68.6784 22.4362 69.5117 23.3477C70.332 24.2591 70.957 25.3594 71.3867 26.6484C71.8164 27.9245 72.0312 29.3372 72.0312 30.8867V33.1914H57.6953V33.25C57.8776 34.0964 58.112 34.7799 58.3984 35.3008C58.6849 35.8086 59.069 36.2708 59.5508 36.6875C60.0456 37.1172 60.612 37.4492 61.25 37.6836C61.888 37.918 62.5846 38.0352 63.3398 38.0352C64.4076 38.0352 65.4427 37.8333 66.4453 37.4297C67.4479 37.026 68.2617 36.4206 68.8867 35.6133L71.6016 38.543C70.9115 39.5195 69.8177 40.4049 68.3203 41.1992C66.8229 41.9935 65.0521 42.3906 63.0078 42.3906ZM62.3633 24.8711C61.7513 24.8711 61.1914 24.9818 60.6836 25.2031C60.1758 25.4115 59.7331 25.7174 59.3555 26.1211C58.9648 26.5247 58.6393 27.0065 58.3789 27.5664C58.1185 28.1263 57.9232 28.7513 57.793 29.4414H66.6992V29.0117C66.6992 28.4388 66.5951 27.8984 66.3867 27.3906C66.1784 26.8828 65.8919 26.4401 65.5273 26.0625C65.1628 25.6979 64.7135 25.4115 64.1797 25.2031C63.6589 24.9818 63.0534 24.8711 62.3633 24.8711ZM96.1328 38.6797C95.7812 39.1094 95.2995 39.5456 94.6875 39.9883C94.0755 40.431 93.3529 40.8281 92.5195 41.1797C91.6732 41.5443 90.7292 41.8372 89.6875 42.0586C88.6458 42.2799 87.526 42.3906 86.3281 42.3906C85.2865 42.3906 84.3034 42.2669 83.3789 42.0195C82.4674 41.7852 81.6276 41.4401 80.8594 40.9844C80.1042 40.5156 79.4141 39.9427 78.7891 39.2656C78.1771 38.5885 77.6562 37.8138 77.2266 36.9414C76.7318 35.9779 76.3542 34.8906 76.0938 33.6797C75.8464 32.4688 75.7227 31.1536 75.7227 29.7344V25.8672C75.7227 24.513 75.8464 23.2565 76.0938 22.0977C76.3411 20.9258 76.6927 19.8646 77.1484 18.9141C77.5781 18.0677 78.0729 17.306 78.6328 16.6289C79.2057 15.9518 79.8307 15.3659 80.5078 14.8711C81.3021 14.3112 82.168 13.888 83.1055 13.6016C84.043 13.3151 85.0326 13.1719 86.0742 13.1719C87.6758 13.1719 89.069 13.3737 90.2539 13.7773C91.4518 14.181 92.4609 14.7604 93.2812 15.5156C94.1016 16.2839 94.7396 17.2148 95.1953 18.3086C95.6641 19.4023 95.9701 20.6328 96.1133 22H90.7617C90.6706 21.3099 90.5273 20.6979 90.332 20.1641C90.1497 19.6302 89.8958 19.181 89.5703 18.8164C89.2057 18.4128 88.7435 18.1133 88.1836 17.918C87.6367 17.7096 86.9792 17.6055 86.2109 17.6055C85.7943 17.6055 85.3906 17.6706 85 17.8008C84.6094 17.931 84.2448 18.1198 83.9062 18.3672C83.4635 18.7057 83.0599 19.1484 82.6953 19.6953C82.3438 20.2422 82.0508 20.8867 81.8164 21.6289C81.6341 22.2018 81.4909 22.8398 81.3867 23.543C81.2956 24.2461 81.25 25.0078 81.25 25.8281V29.7344C81.25 30.763 81.3151 31.7005 81.4453 32.5469C81.5885 33.3932 81.7839 34.1419 82.0312 34.793C82.1875 35.1706 82.3633 35.5221 82.5586 35.8477C82.7669 36.1602 82.9948 36.4401 83.2422 36.6875C83.6589 37.1042 84.1406 37.4232 84.6875 37.6445C85.2474 37.8529 85.8789 37.9635 86.582 37.9766C87.0117 37.9766 87.4349 37.944 87.8516 37.8789C88.2682 37.8138 88.6589 37.7227 89.0234 37.6055C89.388 37.4883 89.707 37.3581 89.9805 37.2148C90.2669 37.0586 90.4818 36.8958 90.625 36.7266L90.6445 31.5703H85.9375V27.4688H96.1133L96.1328 38.6797ZM100.059 31.2383C100.059 29.7018 100.28 28.2826 100.723 26.9805C101.165 25.6654 101.816 24.526 102.676 23.5625C103.522 22.599 104.557 21.8438 105.781 21.2969C107.018 20.75 108.431 20.4766 110.02 20.4766C111.608 20.4766 113.021 20.75 114.258 21.2969C115.495 21.8438 116.543 22.599 117.402 23.5625C118.249 24.526 118.893 25.6654 119.336 26.9805C119.779 28.2826 120 29.7018 120 31.2383V31.6484C120 33.1979 119.779 34.6302 119.336 35.9453C118.893 37.2474 118.249 38.3802 117.402 39.3438C116.556 40.3073 115.514 41.0625 114.277 41.6094C113.04 42.1432 111.634 42.4102 110.059 42.4102C108.47 42.4102 107.051 42.1432 105.801 41.6094C104.564 41.0625 103.522 40.3073 102.676 39.3438C101.816 38.3802 101.165 37.2474 100.723 35.9453C100.28 34.6302 100.059 33.1979 100.059 31.6484V31.2383ZM105.488 31.6484C105.488 32.5339 105.573 33.3672 105.742 34.1484C105.911 34.9167 106.178 35.5872 106.543 36.1602C106.908 36.7461 107.376 37.2083 107.949 37.5469C108.535 37.8854 109.238 38.0547 110.059 38.0547C110.853 38.0547 111.536 37.8854 112.109 37.5469C112.682 37.2083 113.151 36.7461 113.516 36.1602C113.867 35.5872 114.128 34.9167 114.297 34.1484C114.466 33.3672 114.551 32.5339 114.551 31.6484V31.2383C114.551 30.3789 114.466 29.5651 114.297 28.7969C114.128 28.0286 113.867 27.3516 113.516 26.7656C113.151 26.1797 112.682 25.7174 112.109 25.3789C111.536 25.0404 110.84 24.8711 110.02 24.8711C109.212 24.8711 108.522 25.0404 107.949 25.3789C107.376 25.7174 106.908 26.1797 106.543 26.7656C106.178 27.3516 105.911 28.0286 105.742 28.7969C105.573 29.5651 105.488 30.3789 105.488 31.2383V31.6484Z" fill="black"/>
<rect y="8" width="42" height="42" rx="21" fill="#687943"/>
</svg>
