<svg width="27" height="35" viewBox="0 0 27 35" fill="none" xmlns="http://www.w3.org/2000/svg">
<path id="Vector" d="M10.9589 4.14959C11.47 2.63638 11.8223 0.883057 13.4178 0.883057C15.0133 0.883057 15.3656 2.63638 15.8767 4.14959C16.3974 5.6914 15.8767 8.31722 15.8767 8.31722C15.8767 8.31722 18.6146 7.79696 20.2356 8.31722C21.6218 8.76213 23.1605 8.90177 23.3651 10.3447C23.5742 11.8198 22.0409 12.347 20.7944 13.1607C19.3473 14.1054 16.5473 14.3997 16.5473 14.3997C16.5473 14.3997 21.0716 14.7678 23.3651 16.3146C25.0098 17.4239 26.7174 18.0493 26.8298 20.0317C26.9497 22.1458 25.1773 23.1075 23.3651 24.1993C20.5227 25.9116 14.8708 24.1993 14.8708 24.1993V34.9H11.9648V24.1993C11.9648 24.1993 6.31287 25.9116 3.47054 24.1993C1.65824 23.1075 -0.114148 22.1458 0.00575881 20.0317C0.118189 18.0493 1.82575 17.4239 3.47054 16.3146C5.76396 14.7678 10.2883 14.3997 10.2883 14.3997C10.2883 14.3997 7.48831 14.1054 6.04118 13.1607C4.79469 12.347 3.26144 11.8198 3.47054 10.3447C3.67508 8.90177 5.21379 8.76213 6.60001 8.31722C8.22101 7.79696 10.9589 8.31722 10.9589 8.31722C10.9589 8.31722 10.4382 5.6914 10.9589 4.14959Z" fill="url(#paint0_linear_1_835)"/>
<defs>
<linearGradient id="paint0_linear_1_835" x1="13.4178" y1="0.883057" x2="13.4178" y2="34.9" gradientUnits="userSpaceOnUse">
<stop stop-color="#C590FB"/>
<stop offset="1" stop-color="#76AC0B"/>
</linearGradient>
</defs>
</svg>
