<svg width="23" height="32" viewBox="0 0 23 32" fill="none" xmlns="http://www.w3.org/2000/svg">
<path id="Vector" d="M2.03693 13.0779C-3.7116 11.0209 5.42499 0.413638 11.5214 0.529755C17.5323 0.644244 26.2927 11.0038 20.641 13.0779C18.6322 13.815 15.1692 13.0779 15.1692 13.0779C15.1692 13.0779 25.1442 19.4151 22.1002 23.0425C19.703 25.8991 12.6157 23.0425 12.6157 23.0425V31.9H11.5214H11.1566H10.0622V23.0425C10.0622 23.0425 2.97498 25.8991 0.577784 23.0425C-2.4662 19.4151 7.50872 13.0779 7.50872 13.0779C7.50872 13.0779 4.05151 13.7987 2.03693 13.0779Z" fill="url(#paint0_linear_1_833)"/>
<defs>
<linearGradient id="paint0_linear_1_833" x1="11.339" y1="0.528809" x2="11.339" y2="31.9" gradientUnits="userSpaceOnUse">
<stop stop-color="#39AA44"/>
<stop offset="1" stop-color="#C590FB"/>
</linearGradient>
</defs>
</svg>
