<svg width="25" height="25" viewBox="0 0 25 25" fill="none" xmlns="http://www.w3.org/2000/svg">
<rect x="0.4375" width="17.0892" height="21" rx="8.54462" fill="#D9D9D9"/>
<path d="M9.08351 7.56C8.71551 7.56 8.42351 7.476 8.20751 7.308C7.99151 7.132 7.88351 6.872 7.88351 6.528C7.88351 6.184 7.99151 5.924 8.20751 5.748C8.42351 5.572 8.71551 5.484 9.08351 5.484C9.45951 5.484 9.75551 5.572 9.97151 5.748C10.1875 5.924 10.2955 6.184 10.2955 6.528C10.2955 6.872 10.1875 7.132 9.97151 7.308C9.75551 7.476 9.45951 7.56 9.08351 7.56ZM10.1995 8.4V13.548C10.1995 13.804 10.2635 13.976 10.3915 14.064C10.5195 14.152 10.6955 14.196 10.9195 14.196H10.9555V15H7.37951V14.196H7.41551C7.63951 14.196 7.81551 14.152 7.94351 14.064C8.07151 13.976 8.13551 13.804 8.13551 13.548V9.744C8.13551 9.616 8.07951 9.532 7.96751 9.492C7.86351 9.444 7.70351 9.396 7.48751 9.348L7.37951 9.324V8.4H10.1995Z" fill="black"/>
</svg>
