<svg width="22" height="31" viewBox="0 0 22 31" fill="none" xmlns="http://www.w3.org/2000/svg">
<path id="Vector" d="M7.25843 12.5314C7.25843 12.5314 3.91646 13.2349 1.96903 12.5314C-2.56405 10.8939 2.4781 3.70361 7.68907 1.17117C8.866 0.5992 10.0515 0.264835 11.1373 0.285713C16.9479 0.397443 25.4163 10.5074 19.953 12.5314C18.0112 13.2509 14.6636 12.5314 14.6636 12.5314C14.6636 12.5314 24.306 18.716 21.3635 22.256C19.0462 25.0438 12.1952 22.256 12.1952 22.256V30.9H11.1373H10.7847H9.72682V22.256C9.72682 22.256 2.87581 25.0438 0.558525 22.256C-2.384 18.716 7.25843 12.5314 7.25843 12.5314Z" fill="url(#paint0_linear_1_834)"/>
<defs>
<linearGradient id="paint0_linear_1_834" x1="10.961" y1="0.28479" x2="10.961" y2="30.9" gradientUnits="userSpaceOnUse">
<stop stop-color="#76AC0B"/>
<stop offset="1" stop-color="#C590FB"/>
</linearGradient>
</defs>
</svg>
